{"glyphs":{"0":{"ha":876,"x_min":68,"x_max":808,"o":"m 438 978 q 656 929 575 978 q 773 772 738 881 q 808 479 808 663 q 773 188 808 297 q 656 30 738 78 q 438 -18 575 -18 q 219 30 300 -18 q 103 188 139 78 q 68 479 68 297 q 103 772 68 663 q 219 929 139 881 q 438 978 300 978 m 436 813 q 360 797 390 813 q 311 745 329 782 q 285 644 293 708 q 278 479 278 579 q 285 315 278 381 q 311 214 293 250 q 360 163 329 178 q 436 147 390 147 q 515 163 483 147 q 565 214 547 178 q 591 315 583 250 q 599 479 599 381 q 591 644 599 579 q 565 745 583 708 q 515 797 547 782 q 436 813 483 813 z "},"1":{"ha":600,"x_min":17,"x_max":472,"o":"m 472 958 l 472 0 l 261 0 l 261 681 q 263 733 261 707 q 271 783 265 758 l 43 725 l 17 863 l 261 958 l 472 958 z "},"2":{"ha":807,"x_min":61,"x_max":747,"o":"m 394 975 q 567 958 494 975 q 679 892 639 940 q 719 753 719 844 q 706 651 719 697 q 659 554 693 604 q 561 436 625 504 l 310 176 q 380 184 344 182 q 451 186 415 186 l 747 186 l 747 0 l 61 0 l 61 114 q 68 160 61 139 q 92 200 75 182 l 331 456 q 460 612 415 543 q 503 731 504 681 q 488 774 503 761 q 444 792 472 788 q 371 797 415 797 q 281 797 324 797 q 191 793 239 796 q 79 785 143 790 l 69 942 q 194 964 139 957 q 297 973 249 971 q 394 975 346 975 z "},"3":{"ha":788,"x_min":56,"x_max":719,"o":"m 378 978 q 560 958 492 978 q 660 889 629 938 q 692 754 692 840 q 679 638 692 689 q 635 556 667 588 q 543 513 603 524 l 543 507 q 679 432 642 492 q 718 267 717 372 q 688 103 719 167 q 583 11 656 40 q 388 -18 510 -18 q 219 -10 304 -18 q 56 7 135 -3 l 64 163 q 165 156 121 158 q 248 153 208 154 q 331 151 288 151 q 436 163 397 151 q 492 206 475 175 q 508 294 508 238 q 497 369 508 339 q 454 415 486 400 q 360 431 422 431 l 179 429 l 179 568 l 360 568 q 433 578 406 568 q 473 606 460 589 q 490 648 486 624 q 493 699 493 672 q 479 769 493 746 q 433 800 465 792 q 342 808 400 808 q 202 807 269 808 q 83 803 135 806 l 75 951 q 228 972 153 965 q 378 978 303 978 z "},"4":{"ha":885,"x_min":29,"x_max":843,"o":"m 494 958 l 264 407 q 264 373 254 385 q 293 361 274 361 l 843 361 l 843 235 l 725 215 l 140 215 q 74 236 101 215 q 38 291 47 257 q 43 361 29 325 l 296 958 l 494 958 m 726 772 l 726 0 l 532 0 l 532 619 l 567 772 l 726 772 z "},"5":{"ha":767,"x_min":53,"x_max":710,"o":"m 681 958 l 674 799 l 275 799 l 264 618 l 404 603 q 551 569 492 594 q 644 504 610 544 q 694 411 679 464 q 710 293 710 358 q 694 175 710 231 q 642 76 679 119 q 540 8 606 33 q 374 -17 475 -17 q 224 -9 307 -17 q 53 14 140 -1 l 72 175 q 206 163 140 168 q 319 158 271 158 q 431 174 393 158 q 484 220 469 189 q 500 299 499 251 q 490 372 503 344 q 451 415 478 400 q 381 436 425 429 q 272 447 336 443 l 153 460 q 106 485 124 464 q 89 535 88 506 l 114 958 l 681 958 z "},"6":{"ha":819,"x_min":71,"x_max":764,"o":"m 474 975 q 571 972 508 975 q 701 950 633 969 l 690 815 q 624 817 654 817 q 558 818 593 818 q 474 818 524 818 q 373 805 413 818 q 312 754 333 792 q 283 644 290 717 q 275 453 275 572 q 279 296 275 357 q 298 201 283 235 q 343 153 313 167 q 428 140 374 140 q 520 160 490 140 q 558 219 550 179 q 565 322 565 260 q 554 419 565 385 q 514 467 543 453 q 429 482 485 482 q 358 472 390 482 q 288 439 325 463 q 197 374 251 415 l 192 454 q 279 562 238 524 q 371 615 321 600 q 490 629 421 629 q 656 599 597 629 q 740 502 715 568 q 764 326 764 436 q 751 177 764 242 q 701 69 738 113 q 598 5 664 26 q 425 -17 532 -17 q 251 6 321 -17 q 143 81 182 28 q 88 228 104 135 q 71 464 71 322 q 96 732 71 631 q 171 886 121 833 q 297 957 221 939 q 474 975 372 975 z "},"7":{"ha":733,"x_min":38,"x_max":713,"o":"m 615 958 q 673 944 650 958 q 704 903 696 929 q 701 846 713 878 l 408 0 l 200 0 l 446 696 q 463 742 454 719 q 486 786 472 765 l 46 786 l 38 958 l 615 958 z "},"8":{"ha":865,"x_min":74,"x_max":793,"o":"m 433 975 q 603 960 538 975 q 705 914 668 944 q 756 835 742 883 q 769 719 769 786 q 755 616 769 664 q 709 537 740 568 q 626 500 678 506 l 626 494 q 729 453 693 489 q 779 363 765 418 q 793 239 793 307 q 764 91 793 147 q 657 9 735 35 q 433 -17 579 -17 q 213 9 292 -17 q 104 91 135 35 q 74 239 74 147 q 88 363 74 307 q 139 453 103 418 q 240 494 175 489 l 240 500 q 158 537 190 506 q 112 616 126 568 q 97 719 97 664 q 112 835 97 786 q 163 914 126 883 q 265 960 200 944 q 433 975 331 975 m 436 428 q 354 421 386 428 q 304 398 322 414 q 279 353 286 382 q 272 279 272 325 q 285 196 272 226 q 334 153 299 165 q 435 142 369 142 q 534 153 500 142 q 581 196 568 165 q 593 279 593 226 q 586 354 593 325 q 563 399 579 383 q 515 422 546 415 q 436 428 485 428 m 435 829 q 344 817 375 829 q 300 776 313 806 q 288 694 288 747 q 300 615 288 643 q 345 578 313 588 q 438 568 378 568 q 528 578 497 568 q 569 616 558 589 q 579 694 579 643 q 568 776 579 747 q 526 817 557 806 q 435 829 494 829 z "},"9":{"ha":819,"x_min":57,"x_max":747,"o":"m 397 975 q 577 952 508 975 q 683 875 646 929 q 733 727 719 821 q 747 489 747 633 q 725 226 747 326 q 656 74 703 126 q 531 2 608 21 q 344 -17 454 -17 q 242 -13 307 -17 q 99 10 176 -10 l 111 144 q 181 142 150 143 q 250 142 213 142 q 344 142 288 142 q 447 157 407 142 q 507 212 486 172 q 536 322 528 251 q 544 500 544 392 q 540 660 544 597 q 523 757 536 722 q 479 805 510 792 q 396 818 449 818 q 305 799 335 818 q 266 739 275 779 q 257 635 257 699 q 268 544 257 579 q 308 492 279 508 q 390 476 338 476 q 460 487 429 476 q 528 521 492 497 q 619 585 565 544 l 625 504 q 538 398 579 436 q 447 344 496 360 q 328 329 397 329 q 165 367 224 329 q 81 474 106 406 q 57 632 57 543 q 87 826 57 750 q 191 938 117 901 q 397 975 265 975 z "},"A":{"ha":907,"x_min":1,"x_max":906,"o":"m 554 958 q 601 944 581 958 q 628 903 621 929 l 906 0 l 689 0 l 493 706 q 482 752 488 728 q 472 799 476 776 l 435 799 q 426 752 431 776 q 414 706 421 728 l 218 0 l 1 0 l 279 903 q 306 944 286 929 q 353 958 326 958 l 554 958 m 701 413 l 701 254 l 204 254 l 204 413 l 701 413 z "},"Á":{"ha":907,"x_min":1,"x_max":906,"o":"m 554 958 q 601 944 581 958 q 628 903 621 929 l 906 0 l 689 0 l 493 706 q 482 752 488 728 q 472 799 476 776 l 435 799 q 426 752 431 776 q 414 706 421 728 l 218 0 l 1 0 l 279 903 q 306 944 286 929 q 353 958 326 958 l 554 958 m 701 413 l 701 254 l 204 254 l 204 413 l 701 413 m 615 1299 l 704 1161 l 394 1006 l 335 1093 l 615 1299 z "},"Ă":{"ha":907,"x_min":1,"x_max":906,"o":"m 554 958 q 601 944 581 958 q 628 903 621 929 l 906 0 l 689 0 l 493 706 q 482 752 488 728 q 472 799 476 776 l 435 799 q 426 752 431 776 q 414 706 421 728 l 218 0 l 1 0 l 279 903 q 306 944 286 929 q 353 958 326 958 l 554 958 m 701 413 l 701 254 l 204 254 l 204 413 l 701 413 m 585 1250 l 682 1236 q 664 1131 690 1179 q 585 1054 638 1083 q 454 1025 532 1025 q 325 1054 379 1025 q 245 1131 271 1083 q 226 1236 219 1179 l 324 1250 q 356 1181 324 1204 q 456 1157 388 1157 q 553 1181 521 1157 q 585 1250 585 1204 z "},"Ắ":{"ha":907,"x_min":1,"x_max":906,"o":"m 554 958 q 601 944 581 958 q 628 903 621 929 l 906 0 l 689 0 l 493 706 q 482 752 488 728 q 472 799 476 776 l 435 799 q 426 752 431 776 q 414 706 421 728 l 218 0 l 1 0 l 279 903 q 306 944 286 929 q 353 958 326 958 l 554 958 m 701 413 l 701 254 l 204 254 l 204 413 l 701 413 m 585 1251 l 682 1238 q 664 1133 690 1181 q 585 1056 638 1085 q 454 1026 532 1026 q 325 1056 379 1026 q 245 1133 271 1085 q 226 1238 219 1181 l 324 1251 q 356 1182 324 1206 q 456 1158 388 1158 q 553 1182 521 1158 q 585 1251 585 1206 m 579 1490 l 661 1364 l 425 1249 l 369 1328 l 579 1490 z "},"Ặ":{"ha":907,"x_min":1,"x_max":906,"o":"m 585 1250 l 682 1236 q 664 1131 689 1179 q 585 1054 639 1083 q 456 1025 532 1025 q 325 1054 379 1025 q 245 1131 271 1083 q 226 1236 219 1179 l 324 1250 q 356 1181 324 1204 q 456 1157 388 1157 q 553 1181 521 1157 q 585 1250 585 1204 m 554 958 q 601 944 581 958 q 628 903 621 929 l 906 0 l 689 0 l 493 706 q 482 752 488 728 q 472 799 476 776 l 435 799 q 426 752 431 776 q 414 706 421 728 l 218 0 l 1 0 l 279 903 q 306 944 286 929 q 353 958 326 958 l 554 958 m 701 413 l 701 254 l 204 254 l 204 413 l 701 413 m 488 -71 q 547 -128 547 -71 l 547 -200 q 488 -258 547 -258 l 424 -258 q 365 -200 365 -258 l 365 -128 q 424 -71 365 -71 l 488 -71 z "},"Ằ":{"ha":907,"x_min":1,"x_max":906,"o":"m 554 958 q 601 944 581 958 q 628 903 621 929 l 906 0 l 689 0 l 493 706 q 482 752 488 728 q 472 799 476 776 l 435 799 q 426 752 431 776 q 414 706 421 728 l 218 0 l 1 0 l 279 903 q 306 944 286 929 q 353 958 326 958 l 554 958 m 701 413 l 701 254 l 204 254 l 204 413 l 701 413 m 325 1251 q 357 1182 325 1206 q 454 1158 389 1158 q 553 1182 521 1158 q 585 1251 585 1206 l 683 1238 q 664 1133 690 1181 q 584 1056 638 1085 q 454 1026 531 1026 q 324 1056 378 1026 q 245 1133 271 1085 q 226 1238 219 1181 l 325 1251 m 329 1490 l 540 1328 l 485 1249 l 247 1364 l 329 1490 z "},"Ẳ":{"ha":907,"x_min":1,"x_max":906,"o":"m 554 958 q 601 944 581 958 q 628 903 621 929 l 906 0 l 689 0 l 493 706 q 482 752 488 728 q 472 799 476 776 l 435 799 q 426 752 431 776 q 414 706 421 728 l 218 0 l 1 0 l 279 903 q 306 944 286 929 q 353 958 326 958 l 554 958 m 701 413 l 701 254 l 204 254 l 204 413 l 701 413 m 585 1251 l 682 1238 q 664 1133 690 1181 q 585 1056 638 1085 q 454 1026 532 1026 q 325 1056 379 1026 q 245 1133 271 1085 q 226 1238 219 1181 l 324 1251 q 356 1182 324 1206 q 456 1158 388 1158 q 553 1182 521 1158 q 585 1251 585 1206 m 415 1321 q 461 1346 446 1331 q 478 1386 476 1361 q 452 1416 478 1413 q 392 1406 426 1419 l 372 1492 q 480 1507 432 1513 q 556 1472 528 1501 q 583 1388 583 1442 q 541 1290 583 1326 q 433 1242 499 1253 l 415 1321 z "},"Ẵ":{"ha":907,"x_min":1,"x_max":906,"o":"m 554 958 q 601 944 581 958 q 628 903 621 929 l 906 0 l 689 0 l 493 706 q 482 752 488 728 q 472 799 476 776 l 435 799 q 426 752 431 776 q 414 706 421 728 l 218 0 l 1 0 l 279 903 q 306 944 286 929 q 353 958 326 958 l 554 958 m 701 413 l 701 254 l 204 254 l 204 413 l 701 413 m 585 1251 l 682 1238 q 664 1133 690 1181 q 585 1056 638 1085 q 454 1026 532 1026 q 325 1056 379 1026 q 245 1133 271 1085 q 226 1238 219 1181 l 324 1251 q 356 1182 324 1206 q 454 1158 388 1158 q 552 1182 519 1158 q 585 1251 585 1206 m 340 1475 q 397 1464 372 1472 q 445 1444 422 1456 q 490 1424 468 1433 q 540 1410 513 1414 q 581 1419 572 1406 q 590 1468 590 1433 l 671 1468 q 653 1330 685 1378 q 565 1288 621 1282 q 506 1299 533 1290 q 456 1319 479 1308 q 410 1340 432 1331 q 367 1353 389 1350 q 325 1342 333 1357 q 317 1293 317 1328 l 236 1293 q 240 1398 226 1357 q 281 1458 253 1439 q 340 1475 308 1478 z "},"Â":{"ha":907,"x_min":1,"x_max":906,"o":"m 554 958 q 601 944 581 958 q 628 903 621 929 l 906 0 l 689 0 l 493 706 q 482 752 488 728 q 472 799 476 776 l 435 799 q 426 752 431 776 q 414 706 421 728 l 218 0 l 1 0 l 279 903 q 306 944 286 929 q 353 958 326 958 l 554 958 m 701 413 l 701 254 l 204 254 l 204 413 l 701 413 m 529 1264 l 715 1078 l 661 1004 l 461 1136 l 450 1136 l 247 1004 l 192 1083 l 381 1264 l 529 1264 z "},"Ấ":{"ha":907,"x_min":1,"x_max":906,"o":"m 554 958 q 601 944 581 958 q 628 903 621 929 l 906 0 l 689 0 l 493 706 q 482 752 488 728 q 472 799 476 776 l 435 799 q 426 752 431 776 q 414 706 421 728 l 218 0 l 1 0 l 279 903 q 306 944 286 929 q 353 958 326 958 l 554 958 m 701 413 l 701 254 l 204 254 l 204 413 l 701 413 m 381 1251 l 528 1251 l 710 1089 l 656 1010 l 460 1128 l 449 1128 l 256 1010 l 201 1083 l 381 1251 m 788 1436 l 893 1328 l 679 1171 l 610 1239 l 788 1436 z "},"Ậ":{"ha":907,"x_min":1,"x_max":906,"o":"m 554 958 q 601 944 581 958 q 628 903 621 929 l 906 0 l 689 0 l 493 706 q 482 752 488 728 q 472 799 476 776 l 435 799 q 426 752 431 776 q 414 706 421 728 l 218 0 l 1 0 l 279 903 q 306 944 286 929 q 353 958 326 958 l 554 958 m 701 413 l 701 254 l 204 254 l 204 413 l 701 413 m 529 1257 l 715 1071 l 661 997 l 461 1129 l 450 1129 l 247 997 l 193 1076 l 381 1257 l 529 1257 m 488 -75 q 546 -132 546 -75 l 546 -204 q 488 -261 546 -261 l 425 -261 q 365 -204 365 -261 l 365 -132 q 425 -75 365 -75 l 488 -75 z "},"Ầ":{"ha":907,"x_min":1,"x_max":906,"o":"m 554 958 q 601 944 581 958 q 628 903 621 929 l 906 0 l 689 0 l 493 706 q 482 752 488 728 q 472 799 476 776 l 435 799 q 426 752 431 776 q 414 706 421 728 l 218 0 l 1 0 l 279 903 q 306 944 286 929 q 353 958 326 958 l 554 958 m 701 413 l 701 254 l 204 254 l 204 413 l 701 413 m 529 1251 l 707 1083 l 653 1010 l 461 1128 l 450 1128 l 254 1010 l 200 1089 l 381 1251 l 529 1251 m 121 1436 l 300 1239 l 231 1171 l 17 1328 l 121 1436 z "},"Ẩ":{"ha":907,"x_min":1,"x_max":906,"o":"m 554 958 q 601 944 581 958 q 628 903 621 929 l 906 0 l 689 0 l 493 706 q 482 752 488 728 q 472 799 476 776 l 435 799 q 426 752 431 776 q 414 706 421 728 l 218 0 l 1 0 l 279 903 q 306 944 286 929 q 353 958 326 958 l 554 958 m 701 413 l 701 254 l 204 254 l 204 413 l 701 413 m 381 1251 l 528 1251 l 710 1089 l 656 1010 l 460 1128 l 449 1128 l 256 1010 l 201 1083 l 381 1251 m 625 1275 q 672 1300 657 1285 q 688 1340 686 1315 q 662 1370 688 1367 q 601 1358 636 1374 l 582 1446 q 690 1461 642 1467 q 765 1425 738 1456 q 793 1342 793 1394 q 751 1244 793 1281 q 643 1196 708 1207 l 625 1275 z "},"Ẫ":{"ha":907,"x_min":1,"x_max":906,"o":"m 554 958 q 601 944 581 958 q 628 903 621 929 l 906 0 l 689 0 l 493 706 q 482 752 488 728 q 472 799 476 776 l 435 799 q 426 752 431 776 q 414 706 421 728 l 218 0 l 1 0 l 279 903 q 306 944 286 929 q 353 958 326 958 l 554 958 m 701 413 l 701 254 l 204 254 l 204 413 l 701 413 m 529 1251 l 707 1083 l 654 1010 l 461 1128 l 450 1128 l 254 1010 l 199 1089 l 381 1251 l 529 1251 m 342 1475 q 399 1464 374 1472 q 447 1444 424 1456 q 492 1424 469 1433 q 540 1411 514 1415 q 583 1419 574 1406 q 592 1468 592 1433 l 672 1468 q 654 1331 686 1378 q 567 1288 622 1283 q 508 1300 535 1290 q 457 1320 481 1310 q 412 1340 433 1331 q 367 1353 390 1350 q 326 1342 335 1357 q 318 1293 318 1328 l 238 1293 q 241 1398 228 1357 q 282 1458 254 1439 q 342 1475 310 1478 z "},"Ȁ":{"ha":907,"x_min":1,"x_max":906,"o":"m 554 958 q 601 944 581 958 q 628 903 621 929 l 906 0 l 689 0 l 493 706 q 482 752 488 728 q 472 799 476 776 l 435 799 q 426 752 431 776 q 414 706 421 728 l 218 0 l 1 0 l 279 903 q 306 944 286 929 q 353 958 326 958 l 554 958 m 701 413 l 701 254 l 204 254 l 204 413 l 701 413 m 514 1329 l 675 1074 l 592 1008 l 381 1242 l 514 1329 m 250 1329 l 411 1074 l 329 1008 l 118 1242 l 250 1329 z "},"Ä":{"ha":907,"x_min":1,"x_max":906,"o":"m 554 958 q 601 944 581 958 q 628 903 621 929 l 906 0 l 689 0 l 493 706 q 482 752 488 728 q 472 799 476 776 l 435 799 q 426 752 431 776 q 414 706 421 728 l 218 0 l 1 0 l 279 903 q 306 944 286 929 q 353 958 326 958 l 554 958 m 701 413 l 701 254 l 204 254 l 204 413 l 701 413 m 614 1228 q 658 1183 658 1228 l 658 1101 q 614 1058 658 1058 l 547 1058 q 503 1101 503 1058 l 503 1183 q 547 1228 503 1228 l 614 1228 m 360 1228 q 403 1183 403 1228 l 403 1101 q 360 1058 403 1058 l 292 1058 q 249 1101 249 1058 l 249 1183 q 292 1228 249 1228 l 360 1228 z "},"Ạ":{"ha":907,"x_min":1,"x_max":906,"o":"m 554 958 q 601 944 581 958 q 628 903 621 929 l 906 0 l 689 0 l 493 706 q 482 752 488 728 q 472 799 476 776 l 435 799 q 426 752 431 776 q 414 706 421 728 l 218 0 l 1 0 l 279 903 q 306 944 286 929 q 353 958 326 958 l 554 958 m 701 413 l 701 254 l 204 254 l 204 413 l 701 413 m 488 -71 q 547 -128 547 -71 l 547 -200 q 488 -258 547 -258 l 424 -258 q 365 -200 365 -258 l 365 -128 q 424 -71 365 -71 l 488 -71 z "},"À":{"ha":907,"x_min":1,"x_max":906,"o":"m 554 958 q 601 944 581 958 q 628 903 621 929 l 906 0 l 689 0 l 493 706 q 482 752 488 728 q 472 799 476 776 l 435 799 q 426 752 431 776 q 414 706 421 728 l 218 0 l 1 0 l 279 903 q 306 944 286 929 q 353 958 326 958 l 554 958 m 701 413 l 701 254 l 204 254 l 204 413 l 701 413 m 282 1307 l 564 1101 l 504 1015 l 193 1169 l 282 1307 z "},"Ả":{"ha":907,"x_min":1,"x_max":906,"o":"m 554 958 q 601 944 581 958 q 628 903 621 929 l 906 0 l 689 0 l 493 706 q 482 752 488 728 q 472 799 476 776 l 435 799 q 426 752 431 776 q 414 706 421 728 l 218 0 l 1 0 l 279 903 q 306 944 286 929 q 353 958 326 958 l 554 958 m 701 413 l 701 254 l 204 254 l 204 413 l 701 413 m 431 1107 q 485 1138 468 1119 q 503 1188 503 1156 q 473 1231 503 1222 q 406 1225 443 1239 l 383 1324 q 505 1338 451 1347 q 590 1290 558 1328 q 622 1192 622 1253 q 601 1107 622 1143 q 541 1049 579 1071 q 453 1018 503 1026 l 431 1107 z "},"Ȃ":{"ha":907,"x_min":1,"x_max":906,"o":"m 554 958 q 601 944 581 958 q 628 903 621 929 l 906 0 l 689 0 l 493 706 q 482 752 488 728 q 472 799 476 776 l 435 799 q 426 752 431 776 q 414 706 421 728 l 218 0 l 1 0 l 279 903 q 306 944 286 929 q 353 958 326 958 l 554 958 m 701 413 l 701 254 l 204 254 l 204 413 l 701 413 m 324 1031 l 226 1044 q 244 1151 219 1103 q 324 1227 269 1199 q 453 1256 378 1256 q 584 1227 531 1256 q 664 1151 638 1199 q 682 1044 690 1103 l 585 1031 q 553 1101 585 1078 q 453 1124 521 1124 q 356 1101 388 1124 q 324 1031 324 1078 z "},"Ā":{"ha":907,"x_min":1,"x_max":906,"o":"m 554 958 q 601 944 581 958 q 628 903 621 929 l 906 0 l 689 0 l 493 706 q 482 752 488 728 q 472 799 476 776 l 435 799 q 426 752 431 776 q 414 706 421 728 l 218 0 l 1 0 l 279 903 q 306 944 286 929 q 353 958 326 958 l 554 958 m 701 413 l 701 254 l 204 254 l 204 413 l 701 413 m 664 1207 l 664 1078 l 249 1078 l 249 1207 l 664 1207 z "},"Ą":{"ha":907,"x_min":1,"x_max":925,"o":"m 554 958 q 601 944 581 958 q 628 903 621 929 l 906 0 l 689 0 l 493 706 q 482 752 488 728 q 472 799 476 776 l 435 799 q 426 752 431 776 q 414 706 421 728 l 218 0 l 1 0 l 279 903 q 306 944 286 929 q 353 958 326 958 l 554 958 m 701 413 l 701 254 l 204 254 l 204 413 l 701 413 m 825 3 l 907 0 q 862 -65 883 -32 q 822 -139 840 -99 q 831 -194 803 -183 q 910 -193 858 -206 l 925 -267 q 799 -297 850 -297 q 717 -277 747 -297 q 680 -224 688 -257 q 685 -154 672 -190 q 729 -79 696 -119 q 825 3 763 -39 z "},"Å":{"ha":907,"x_min":1,"x_max":906,"o":"m 554 958 q 601 944 581 958 q 628 903 621 929 l 906 0 l 689 0 l 493 706 q 482 752 488 728 q 472 799 476 776 l 435 799 q 426 752 431 776 q 414 706 421 728 l 218 0 l 1 0 l 279 903 q 306 944 286 929 q 353 958 326 958 l 554 958 m 701 413 l 701 254 l 204 254 l 204 413 l 701 413 m 456 1311 q 538 1290 500 1311 q 597 1232 575 1268 q 619 1151 619 1196 q 597 1070 619 1107 q 538 1013 575 1033 q 456 992 500 992 q 374 1013 411 992 q 314 1069 336 1033 q 292 1151 292 1106 q 313 1232 292 1196 q 373 1290 335 1268 q 456 1311 411 1311 m 454 1225 q 404 1204 425 1225 q 383 1150 383 1183 q 404 1098 383 1118 q 454 1078 425 1078 q 507 1098 486 1078 q 528 1150 528 1118 q 507 1204 528 1183 q 454 1225 486 1225 z "},"Ǻ":{"ha":907,"x_min":1,"x_max":906,"o":"m 554 875 q 600 860 581 875 q 628 819 619 846 l 906 0 l 689 0 l 493 622 q 481 669 486 644 q 472 715 476 693 l 435 715 q 426 669 431 693 q 414 622 421 644 l 218 0 l 1 0 l 279 819 q 308 860 289 846 q 353 875 326 875 l 554 875 m 704 383 l 704 225 l 203 225 l 203 383 l 704 383 m 542 1501 l 628 1365 l 338 1231 l 279 1317 l 542 1501 m 456 1231 q 538 1209 500 1231 q 597 1151 575 1188 q 619 1071 619 1115 q 597 990 619 1026 q 538 932 575 953 q 456 911 500 911 q 374 932 411 911 q 314 989 336 953 q 292 1071 292 1025 q 314 1151 292 1115 q 374 1209 336 1188 q 456 1231 411 1231 m 456 1144 q 404 1124 425 1144 q 383 1071 383 1103 q 404 1017 383 1038 q 456 997 425 997 q 507 1017 486 997 q 528 1071 528 1038 q 507 1124 528 1103 q 456 1144 486 1144 z "},"Ã":{"ha":907,"x_min":1,"x_max":906,"o":"m 554 958 q 601 944 581 958 q 628 903 621 929 l 906 0 l 689 0 l 493 706 q 482 752 488 728 q 472 799 476 776 l 435 799 q 426 752 431 776 q 414 706 421 728 l 218 0 l 1 0 l 279 903 q 306 944 286 929 q 353 958 326 958 l 554 958 m 701 413 l 701 254 l 204 254 l 204 413 l 701 413 m 325 1246 q 388 1234 360 1243 q 441 1214 415 1225 q 492 1192 467 1203 q 546 1178 518 1182 q 591 1188 582 1172 q 600 1239 600 1203 l 689 1239 q 669 1090 704 1142 q 575 1043 635 1039 q 490 1063 528 1047 q 419 1093 451 1078 q 353 1113 386 1108 q 309 1102 318 1118 q 300 1049 300 1086 l 213 1049 q 216 1163 201 1118 q 260 1228 231 1207 q 325 1246 290 1249 z "},"Æ":{"ha":1297,"x_min":-14,"x_max":1242,"o":"m 794 961 q 1029 959 925 961 q 1242 949 1133 957 l 1233 796 l 892 796 q 838 776 858 796 q 818 724 818 757 l 818 233 q 837 181 818 199 q 892 163 856 163 l 1233 163 l 1242 10 q 1026 -1 1139 0 q 801 -3 913 -3 q 669 51 718 -3 q 619 189 619 104 l 619 733 q 629 785 619 760 q 653 826 639 811 l 638 826 q 609 795 624 815 q 581 753 594 775 l 204 0 l -14 0 l 392 775 q 449 863 418 826 q 525 920 481 899 q 635 951 569 942 q 794 961 701 961 m 671 422 l 671 268 l 214 268 l 219 422 l 671 422 m 635 571 l 1182 569 l 1182 428 l 635 426 l 635 571 z "},"Ǽ":{"ha":1297,"x_min":-14,"x_max":1242,"o":"m 794 961 q 1029 959 925 961 q 1242 949 1133 957 l 1233 796 l 892 796 q 838 776 858 796 q 818 724 818 757 l 818 233 q 837 181 818 199 q 892 163 856 163 l 1233 163 l 1242 10 q 1026 -1 1139 0 q 801 -3 913 -3 q 669 51 718 -3 q 619 189 619 104 l 619 733 q 629 785 619 760 q 653 826 639 811 l 638 826 q 609 795 624 815 q 581 753 594 775 l 204 0 l -14 0 l 392 775 q 449 863 418 826 q 525 920 481 899 q 635 951 569 942 q 794 961 701 961 m 671 422 l 671 268 l 214 268 l 219 422 l 671 422 m 635 571 l 1182 569 l 1182 428 l 635 426 l 635 571 m 950 1313 l 1039 1175 l 729 1021 l 668 1107 l 950 1313 z "},"B":{"ha":889,"x_min":97,"x_max":831,"o":"m 460 969 q 659 948 585 969 q 767 872 733 926 q 800 719 800 818 q 760 563 800 617 q 631 501 721 510 l 631 494 q 786 419 742 485 q 831 239 831 354 q 797 86 831 140 q 691 10 763 32 q 504 -11 619 -11 q 342 -10 411 -11 q 216 -7 274 -10 q 97 0 158 -4 l 118 147 q 246 144 151 146 q 467 143 340 143 q 559 154 526 143 q 605 195 592 165 q 618 281 618 225 q 604 372 618 340 q 557 417 590 404 q 463 429 524 429 l 117 429 l 117 564 l 460 564 q 542 575 513 565 q 585 613 572 585 q 597 692 597 640 q 584 769 597 743 q 538 806 571 796 q 449 815 506 815 q 311 816 371 815 q 205 816 251 817 q 118 811 158 815 l 97 958 q 204 966 153 964 q 317 969 256 968 q 460 969 378 969 m 304 958 l 304 0 l 97 0 l 97 958 l 304 958 z "},"C":{"ha":817,"x_min":65,"x_max":779,"o":"m 471 975 q 587 972 539 975 q 675 961 635 968 q 758 943 715 954 l 742 786 q 658 790 696 789 q 576 793 619 792 q 471 794 532 794 q 360 766 400 794 q 304 669 321 738 q 288 479 288 601 q 304 290 288 358 q 360 193 321 221 q 471 165 400 165 q 632 168 567 165 q 761 178 697 171 l 779 22 q 643 -8 713 1 q 471 -17 574 -17 q 233 31 322 -17 q 105 188 144 79 q 65 479 65 296 q 105 771 65 663 q 233 927 144 879 q 471 975 322 975 z "},"Ć":{"ha":817,"x_min":65,"x_max":779,"o":"m 471 975 q 587 972 539 975 q 675 961 635 968 q 758 943 715 954 l 742 786 q 658 790 696 789 q 576 793 619 792 q 471 794 532 794 q 360 766 400 794 q 304 669 321 738 q 288 479 288 601 q 304 290 288 358 q 360 193 321 221 q 471 165 400 165 q 632 168 567 165 q 761 178 697 171 l 779 22 q 643 -8 713 1 q 471 -17 574 -17 q 233 31 322 -17 q 105 188 144 79 q 65 479 65 296 q 105 771 65 663 q 233 927 144 879 q 471 975 322 975 m 624 1304 l 713 1167 l 403 1011 l 343 1099 l 624 1304 z "},"Č":{"ha":817,"x_min":65,"x_max":779,"o":"m 471 975 q 587 972 539 975 q 675 961 635 968 q 758 943 715 954 l 742 786 q 658 790 696 789 q 576 793 619 792 q 471 794 532 794 q 360 766 400 794 q 304 669 321 738 q 288 479 288 601 q 304 290 288 358 q 360 193 321 221 q 471 165 400 165 q 632 168 567 165 q 761 178 697 171 l 779 22 q 643 -8 713 1 q 471 -17 574 -17 q 233 31 322 -17 q 105 188 144 79 q 65 479 65 296 q 105 771 65 663 q 233 927 144 879 q 471 975 322 975 m 664 1289 l 718 1211 l 506 1031 l 421 1031 l 208 1211 l 263 1289 l 458 1176 l 469 1176 l 664 1289 z "},"Ç":{"ha":817,"x_min":65,"x_max":779,"o":"m 471 975 q 587 972 539 975 q 675 961 635 968 q 758 943 715 954 l 742 786 q 658 790 696 789 q 576 793 619 792 q 471 794 532 794 q 360 766 400 794 q 304 669 321 738 q 288 479 288 601 q 304 290 288 358 q 360 193 321 221 q 471 165 400 165 q 632 168 567 165 q 761 178 697 171 l 779 22 q 643 -8 713 1 q 471 -17 574 -17 q 233 31 322 -17 q 105 188 144 79 q 65 479 65 296 q 105 771 65 663 q 233 927 144 879 q 471 975 322 975 m 372 -83 q 488 -78 443 -75 q 553 -103 532 -82 q 572 -174 574 -125 q 532 -287 569 -242 q 433 -351 494 -332 q 293 -360 371 -369 l 318 -274 q 405 -256 369 -275 q 443 -190 440 -236 q 428 -166 444 -171 q 353 -161 411 -161 l 372 -83 z "},"Ḉ":{"ha":817,"x_min":65,"x_max":779,"o":"m 471 975 q 587 972 539 975 q 675 961 635 968 q 758 943 715 954 l 742 786 q 658 790 696 789 q 576 793 619 792 q 471 794 532 794 q 360 766 400 794 q 304 669 321 738 q 288 479 288 601 q 304 290 288 358 q 360 193 321 221 q 471 165 400 165 q 632 168 567 165 q 761 178 697 171 l 779 22 q 643 -8 713 1 q 471 -17 574 -17 q 233 31 322 -17 q 105 188 144 79 q 65 479 65 296 q 105 771 65 663 q 233 927 144 879 q 471 975 322 975 m 628 1313 l 717 1175 l 407 1021 l 346 1107 l 628 1313 m 372 -83 q 488 -78 443 -75 q 554 -103 533 -82 q 572 -174 575 -125 q 533 -287 571 -242 q 433 -351 494 -332 q 293 -360 371 -369 l 318 -274 q 405 -256 369 -275 q 443 -190 440 -236 q 428 -166 444 -171 q 353 -161 411 -161 l 372 -83 z "},"Ĉ":{"ha":817,"x_min":65,"x_max":779,"o":"m 471 975 q 587 972 539 975 q 675 961 635 968 q 758 943 715 954 l 742 786 q 658 790 696 789 q 576 793 619 792 q 471 794 532 794 q 360 766 400 794 q 304 669 321 738 q 288 479 288 601 q 304 290 288 358 q 360 193 321 221 q 471 165 400 165 q 632 168 567 165 q 761 178 697 171 l 779 22 q 643 -8 713 1 q 471 -17 574 -17 q 233 31 322 -17 q 105 188 144 79 q 65 479 65 296 q 105 771 65 663 q 233 927 144 879 q 471 975 322 975 m 538 1268 l 724 1082 l 669 1008 l 469 1140 l 458 1140 l 256 1008 l 200 1088 l 389 1268 l 538 1268 z "},"Ċ":{"ha":817,"x_min":65,"x_max":779,"o":"m 471 975 q 587 972 539 975 q 675 961 635 968 q 758 943 715 954 l 742 786 q 658 790 696 789 q 576 793 619 792 q 471 794 532 794 q 360 766 400 794 q 304 669 321 738 q 288 479 288 601 q 304 290 288 358 q 360 193 321 221 q 471 165 400 165 q 632 168 567 165 q 761 178 697 171 l 779 22 q 643 -8 713 1 q 471 -17 574 -17 q 233 31 322 -17 q 105 188 144 79 q 65 479 65 296 q 105 771 65 663 q 233 927 144 879 q 471 975 322 975 m 494 1238 q 553 1181 553 1238 l 553 1108 q 494 1050 553 1050 l 432 1050 q 372 1108 372 1050 l 372 1181 q 432 1238 372 1238 l 494 1238 z "},"D":{"ha":949,"x_min":97,"x_max":883,"o":"m 472 972 q 665 948 586 972 q 791 868 743 924 q 861 717 839 813 q 883 479 883 622 q 861 242 883 338 q 791 91 839 147 q 665 11 743 35 q 472 -12 586 -12 q 272 -9 364 -12 q 97 0 179 -6 l 185 157 q 310 152 238 154 q 472 150 383 150 q 585 178 544 150 q 643 279 626 207 q 660 479 660 351 q 643 680 660 608 q 585 781 626 751 q 472 810 544 810 q 321 809 388 810 q 190 808 254 808 l 97 958 q 272 968 181 964 q 472 972 363 972 m 308 958 l 308 0 l 97 0 l 97 958 l 308 958 z "},"Ǆ":{"ha":1753,"x_min":97,"x_max":1701,"o":"m 472 972 q 665 948 586 972 q 791 868 743 924 q 861 717 839 813 q 883 479 883 622 q 861 242 883 338 q 791 91 839 147 q 665 11 743 35 q 472 -12 586 -12 q 272 -9 364 -12 q 97 0 179 -6 l 185 157 q 310 152 238 154 q 472 150 383 150 q 585 178 544 150 q 643 279 626 207 q 660 479 660 351 q 643 680 660 608 q 585 781 626 751 q 472 810 544 810 q 321 809 388 810 q 190 808 254 808 l 97 958 q 272 968 181 964 q 472 972 363 972 m 308 958 l 308 0 l 97 0 l 97 958 l 308 958 m 1457 803 l 1690 801 l 1228 157 l 994 158 l 1457 803 m 1701 158 l 1701 0 l 994 0 l 994 158 l 1701 158 m 1690 958 l 1690 801 l 1006 801 l 1006 958 l 1690 958 m 1547 1289 l 1601 1211 l 1389 1031 l 1304 1031 l 1092 1211 l 1146 1289 l 1342 1176 l 1353 1176 l 1547 1289 z "},"Ď":{"ha":949,"x_min":97,"x_max":883,"o":"m 472 972 q 665 948 586 972 q 791 868 743 924 q 861 717 839 813 q 883 479 883 622 q 861 242 883 338 q 791 91 839 147 q 665 11 743 35 q 472 -12 586 -12 q 272 -9 364 -12 q 97 0 179 -6 l 185 157 q 310 152 238 154 q 472 150 383 150 q 585 178 544 150 q 643 279 626 207 q 660 479 660 351 q 643 680 660 608 q 585 781 626 751 q 472 810 544 810 q 321 809 388 810 q 190 808 254 808 l 97 958 q 272 968 181 964 q 472 972 363 972 m 308 958 l 308 0 l 97 0 l 97 958 l 308 958 m 664 1289 l 718 1211 l 506 1031 l 421 1031 l 208 1211 l 263 1289 l 458 1176 l 469 1176 l 664 1289 z "},"Đ":{"ha":951,"x_min":21,"x_max":886,"o":"m 486 556 l 486 450 l 21 450 l 21 556 l 486 556 m 475 972 q 667 948 589 972 q 794 868 746 924 q 864 717 842 813 q 886 479 886 622 q 864 242 886 338 q 794 91 842 147 q 667 11 746 35 q 475 -12 589 -12 q 274 -9 367 -12 q 100 0 182 -6 l 188 157 q 313 152 240 154 q 475 150 386 150 q 588 178 547 150 q 646 279 629 207 q 663 479 663 351 q 646 680 663 608 q 588 781 629 751 q 475 810 547 810 q 324 809 390 810 q 193 808 257 808 l 100 958 q 274 968 183 964 q 475 972 365 972 m 311 958 l 311 0 l 100 0 l 100 958 l 311 958 z "},"Ḍ":{"ha":949,"x_min":97,"x_max":883,"o":"m 472 972 q 665 948 586 972 q 791 868 743 924 q 861 717 839 813 q 883 479 883 622 q 861 242 883 338 q 791 91 839 147 q 665 11 743 35 q 472 -12 586 -12 q 272 -9 364 -12 q 97 0 179 -6 l 185 157 q 310 152 238 154 q 472 150 383 150 q 585 178 544 150 q 643 279 626 207 q 660 479 660 351 q 643 680 660 608 q 585 781 626 751 q 472 810 544 810 q 321 809 388 810 q 190 808 254 808 l 97 958 q 272 968 181 964 q 472 972 363 972 m 308 958 l 308 0 l 97 0 l 97 958 l 308 958 m 490 -75 q 549 -132 549 -75 l 549 -204 q 490 -261 549 -261 l 428 -261 q 368 -204 368 -261 l 368 -132 q 428 -75 368 -75 l 490 -75 z "},"Ḏ":{"ha":949,"x_min":97,"x_max":883,"o":"m 472 972 q 665 948 586 972 q 791 868 743 924 q 861 717 839 813 q 883 479 883 622 q 861 242 883 338 q 791 91 839 147 q 665 11 743 35 q 472 -12 586 -12 q 272 -9 364 -12 q 97 0 179 -6 l 185 157 q 310 152 238 154 q 472 150 383 150 q 585 178 544 150 q 643 279 626 207 q 660 479 660 351 q 643 680 660 608 q 585 781 626 751 q 472 810 544 810 q 321 809 388 810 q 190 808 254 808 l 97 958 q 272 968 181 964 q 472 972 363 972 m 308 958 l 308 0 l 97 0 l 97 958 l 308 958 m 664 -104 l 664 -233 l 249 -233 l 249 -104 l 664 -104 z "},"ǅ":{"ha":1678,"x_min":97,"x_max":1624,"o":"m 472 972 q 665 948 586 972 q 791 868 743 924 q 861 717 839 813 q 883 479 883 622 q 861 242 883 338 q 791 91 839 147 q 665 11 743 35 q 472 -12 586 -12 q 272 -9 364 -12 q 97 0 179 -6 l 185 157 q 310 152 238 154 q 472 150 383 150 q 585 178 544 150 q 643 279 626 207 q 660 479 660 351 q 643 680 660 608 q 585 781 626 751 q 472 810 544 810 q 321 809 388 810 q 190 808 254 808 l 97 958 q 272 968 181 964 q 472 972 363 972 m 308 958 l 308 0 l 97 0 l 97 958 l 308 958 m 1383 544 l 1618 543 l 1239 140 l 1003 142 l 1383 544 m 1625 142 l 1625 0 l 1003 0 l 1003 142 l 1625 142 m 1618 686 l 1618 543 l 1010 543 l 1010 686 l 1618 686 m 1522 1040 l 1576 963 l 1364 782 l 1279 782 l 1067 963 l 1121 1040 l 1317 928 l 1328 928 l 1522 1040 z "},"Ð":{"ha":951,"x_min":21,"x_max":886,"o":"m 486 556 l 486 450 l 21 450 l 21 556 l 486 556 m 475 972 q 667 948 589 972 q 794 868 746 924 q 864 717 842 813 q 886 479 886 622 q 864 242 886 338 q 794 91 842 147 q 667 11 746 35 q 475 -12 589 -12 q 274 -9 367 -12 q 100 0 182 -6 l 188 157 q 313 152 240 154 q 475 150 386 150 q 588 178 547 150 q 646 279 629 207 q 663 479 663 351 q 646 680 663 608 q 588 781 629 751 q 475 810 547 810 q 324 809 390 810 q 193 808 257 808 l 100 958 q 274 968 183 964 q 475 972 365 972 m 311 958 l 311 0 l 100 0 l 100 958 l 311 958 z "},"E":{"ha":803,"x_min":89,"x_max":749,"o":"m 294 963 q 450 962 371 963 q 606 958 529 961 q 749 949 682 956 l 739 794 l 371 794 q 319 777 336 794 q 301 724 301 760 l 301 235 q 319 182 301 200 q 371 164 336 164 l 739 164 l 749 10 q 606 1 682 4 q 450 -2 529 -1 q 294 -3 371 -3 q 147 50 203 -3 q 89 189 90 103 l 89 769 q 147 910 90 857 q 294 963 203 963 m 114 574 l 688 574 l 688 424 l 114 424 l 114 574 z "},"É":{"ha":803,"x_min":89,"x_max":749,"o":"m 294 963 q 450 962 371 963 q 606 958 529 961 q 749 949 682 956 l 739 794 l 371 794 q 319 777 336 794 q 301 724 301 760 l 301 235 q 319 182 301 200 q 371 164 336 164 l 739 164 l 749 10 q 606 1 682 4 q 450 -2 529 -1 q 294 -3 371 -3 q 147 50 203 -3 q 89 189 90 103 l 89 769 q 147 910 90 857 q 294 963 203 963 m 114 574 l 688 574 l 688 424 l 114 424 l 114 574 m 601 1313 l 690 1175 l 381 1019 l 321 1107 l 601 1313 z "},"Ĕ":{"ha":803,"x_min":89,"x_max":749,"o":"m 294 963 q 450 962 371 963 q 606 958 529 961 q 749 949 682 956 l 739 794 l 371 794 q 319 777 336 794 q 301 724 301 760 l 301 235 q 319 182 301 200 q 371 164 336 164 l 739 164 l 749 10 q 606 1 682 4 q 450 -2 529 -1 q 294 -3 371 -3 q 147 50 203 -3 q 89 189 90 103 l 89 769 q 147 910 90 857 q 294 963 203 963 m 114 574 l 688 574 l 688 424 l 114 424 l 114 574 m 571 1264 l 668 1250 q 650 1145 676 1193 q 571 1068 624 1097 q 440 1039 518 1039 q 311 1068 365 1039 q 231 1145 257 1097 q 213 1250 206 1193 l 310 1264 q 342 1194 310 1218 q 442 1171 374 1171 q 539 1194 507 1171 q 571 1264 571 1218 z "},"Ě":{"ha":803,"x_min":89,"x_max":749,"o":"m 294 963 q 450 962 371 963 q 606 958 529 961 q 749 949 682 956 l 739 794 l 371 794 q 319 777 336 794 q 301 724 301 760 l 301 235 q 319 182 301 200 q 371 164 336 164 l 739 164 l 749 10 q 606 1 682 4 q 450 -2 529 -1 q 294 -3 371 -3 q 147 50 203 -3 q 89 189 90 103 l 89 769 q 147 910 90 857 q 294 963 203 963 m 114 574 l 688 574 l 688 424 l 114 424 l 114 574 m 642 1297 l 696 1219 l 483 1039 l 399 1039 l 186 1219 l 240 1297 l 436 1185 l 447 1185 l 642 1297 z "},"Ḝ":{"ha":803,"x_min":89,"x_max":749,"o":"m 569 1264 l 667 1250 q 649 1145 674 1193 q 570 1068 624 1097 q 440 1039 517 1039 q 310 1068 364 1039 q 230 1145 256 1097 q 211 1250 204 1193 l 308 1264 q 340 1194 308 1218 q 440 1171 372 1171 q 538 1194 506 1171 q 569 1264 569 1218 m 294 963 q 450 962 371 963 q 606 958 529 961 q 749 949 682 956 l 739 794 l 371 794 q 319 777 336 794 q 301 724 301 760 l 301 235 q 319 182 301 200 q 371 164 336 164 l 739 164 l 749 10 q 606 1 682 4 q 450 -2 529 -1 q 294 -3 371 -3 q 147 50 203 -3 q 89 189 90 103 l 89 769 q 147 910 90 857 q 294 963 203 963 m 114 574 l 688 574 l 688 424 l 114 424 l 114 574 m 351 -53 q 467 -48 422 -44 q 533 -73 513 -51 q 551 -143 554 -94 q 512 -256 550 -211 q 412 -320 474 -301 q 272 -329 350 -339 l 297 -243 q 384 -225 349 -244 q 422 -160 419 -206 q 407 -135 424 -140 q 332 -131 390 -131 l 351 -53 z "},"Ê":{"ha":803,"x_min":89,"x_max":749,"o":"m 294 963 q 450 962 371 963 q 606 958 529 961 q 749 949 682 956 l 739 794 l 371 794 q 319 777 336 794 q 301 724 301 760 l 301 235 q 319 182 301 200 q 371 164 336 164 l 739 164 l 749 10 q 606 1 682 4 q 450 -2 529 -1 q 294 -3 371 -3 q 147 50 203 -3 q 89 189 90 103 l 89 769 q 147 910 90 857 q 294 963 203 963 m 114 574 l 688 574 l 688 424 l 114 424 l 114 574 m 515 1278 l 701 1092 l 647 1018 l 447 1150 l 436 1150 l 233 1018 l 178 1097 l 367 1278 l 515 1278 z "},"Ế":{"ha":803,"x_min":89,"x_max":878,"o":"m 294 963 q 450 962 371 963 q 606 958 529 961 q 749 949 682 956 l 739 794 l 371 794 q 319 777 336 794 q 301 724 301 760 l 301 235 q 319 182 301 200 q 371 164 336 164 l 739 164 l 749 10 q 606 1 682 4 q 450 -2 529 -1 q 294 -3 371 -3 q 147 50 203 -3 q 89 189 90 103 l 89 769 q 147 910 90 857 q 294 963 203 963 m 114 574 l 688 574 l 688 424 l 114 424 l 114 574 m 365 1265 l 513 1265 l 694 1103 l 640 1024 l 444 1142 l 433 1142 l 240 1024 l 186 1097 l 365 1265 m 772 1450 l 878 1342 l 664 1185 l 594 1253 l 772 1450 z "},"Ệ":{"ha":803,"x_min":89,"x_max":749,"o":"m 514 1271 l 700 1085 l 646 1011 l 446 1143 l 435 1143 l 232 1011 l 178 1090 l 365 1271 l 514 1271 m 294 963 q 450 962 371 963 q 606 958 529 961 q 749 949 682 956 l 739 794 l 371 794 q 319 777 336 794 q 301 724 301 760 l 301 235 q 319 182 301 200 q 371 164 336 164 l 739 164 l 749 10 q 606 1 682 4 q 450 -2 529 -1 q 294 -3 371 -3 q 147 50 203 -3 q 89 189 90 103 l 89 769 q 147 910 90 857 q 294 963 203 963 m 114 574 l 688 574 l 688 424 l 114 424 l 114 574 m 463 -58 q 521 -115 521 -58 l 521 -187 q 463 -244 521 -244 l 400 -244 q 340 -187 340 -244 l 340 -115 q 400 -58 340 -58 l 463 -58 z "},"Ề":{"ha":803,"x_min":1,"x_max":749,"o":"m 294 963 q 450 962 371 963 q 606 958 529 961 q 749 949 682 956 l 739 794 l 371 794 q 319 777 336 794 q 301 724 301 760 l 301 235 q 319 182 301 200 q 371 164 336 164 l 739 164 l 749 10 q 606 1 682 4 q 450 -2 529 -1 q 294 -3 371 -3 q 147 50 203 -3 q 89 189 90 103 l 89 769 q 147 910 90 857 q 294 963 203 963 m 114 574 l 688 574 l 688 424 l 114 424 l 114 574 m 515 1265 l 693 1097 l 639 1024 l 447 1142 l 436 1142 l 240 1024 l 186 1103 l 367 1265 l 515 1265 m 107 1450 l 286 1253 l 217 1185 l 3 1342 l 107 1450 z "},"Ể":{"ha":803,"x_min":89,"x_max":778,"o":"m 294 963 q 450 962 371 963 q 606 958 529 961 q 749 949 682 956 l 739 794 l 371 794 q 319 777 336 794 q 301 724 301 760 l 301 235 q 319 182 301 200 q 371 164 336 164 l 739 164 l 749 10 q 606 1 682 4 q 450 -2 529 -1 q 294 -3 371 -3 q 147 50 203 -3 q 89 189 90 103 l 89 769 q 147 910 90 857 q 294 963 203 963 m 114 574 l 688 574 l 688 424 l 114 424 l 114 574 m 365 1265 l 513 1265 l 694 1103 l 640 1024 l 444 1142 l 433 1142 l 240 1024 l 186 1097 l 365 1265 m 610 1289 q 656 1314 642 1299 q 672 1354 671 1329 q 647 1384 672 1381 q 586 1372 621 1388 l 567 1460 q 674 1475 626 1481 q 750 1439 722 1469 q 778 1356 778 1408 q 735 1258 778 1294 q 628 1210 693 1221 l 610 1289 z "},"Ễ":{"ha":803,"x_min":89,"x_max":749,"o":"m 294 963 q 450 962 371 963 q 606 958 529 961 q 749 949 682 956 l 739 794 l 371 794 q 319 777 336 794 q 301 724 301 760 l 301 235 q 319 182 301 200 q 371 164 336 164 l 739 164 l 749 10 q 606 1 682 4 q 450 -2 529 -1 q 294 -3 371 -3 q 147 50 203 -3 q 89 189 90 103 l 89 769 q 147 910 90 857 q 294 963 203 963 m 114 574 l 688 574 l 688 424 l 114 424 l 114 574 m 515 1265 l 693 1097 l 640 1024 l 447 1142 l 436 1142 l 240 1024 l 185 1103 l 367 1265 l 515 1265 m 328 1489 q 385 1478 360 1486 q 433 1458 410 1469 q 478 1438 456 1447 q 526 1425 500 1429 q 569 1433 560 1419 q 578 1482 578 1447 l 658 1482 q 640 1344 672 1392 q 553 1301 608 1297 q 494 1314 521 1304 q 443 1334 467 1324 q 398 1354 419 1344 q 353 1367 376 1364 q 313 1356 321 1371 q 304 1307 304 1342 l 224 1307 q 227 1412 214 1371 q 268 1472 240 1453 q 328 1489 296 1492 z "},"Ȅ":{"ha":803,"x_min":89,"x_max":749,"o":"m 294 963 q 450 962 371 963 q 606 958 529 961 q 749 949 682 956 l 739 794 l 371 794 q 319 777 336 794 q 301 724 301 760 l 301 235 q 319 182 301 200 q 371 164 336 164 l 739 164 l 749 10 q 606 1 682 4 q 450 -2 529 -1 q 294 -3 371 -3 q 147 50 203 -3 q 89 189 90 103 l 89 769 q 147 910 90 857 q 294 963 203 963 m 114 574 l 688 574 l 688 424 l 114 424 l 114 574 m 499 1343 l 660 1088 l 576 1022 l 365 1256 l 499 1343 m 235 1343 l 396 1088 l 314 1022 l 103 1256 l 235 1343 z "},"Ë":{"ha":803,"x_min":89,"x_max":749,"o":"m 294 963 q 450 962 371 963 q 606 958 529 961 q 749 949 682 956 l 739 794 l 371 794 q 319 777 336 794 q 301 724 301 760 l 301 235 q 319 182 301 200 q 371 164 336 164 l 739 164 l 749 10 q 606 1 682 4 q 450 -2 529 -1 q 294 -3 371 -3 q 147 50 203 -3 q 89 189 90 103 l 89 769 q 147 910 90 857 q 294 963 203 963 m 114 574 l 688 574 l 688 424 l 114 424 l 114 574 m 599 1242 q 643 1197 643 1242 l 643 1115 q 599 1072 643 1072 l 532 1072 q 488 1115 488 1072 l 488 1197 q 532 1242 488 1242 l 599 1242 m 344 1242 q 388 1197 388 1242 l 388 1115 q 344 1072 388 1072 l 276 1072 q 233 1115 233 1072 l 233 1197 q 276 1242 233 1242 l 344 1242 z "},"Ė":{"ha":803,"x_min":89,"x_max":749,"o":"m 294 963 q 450 962 371 963 q 606 958 529 961 q 749 949 682 956 l 739 794 l 371 794 q 319 777 336 794 q 301 724 301 760 l 301 235 q 319 182 301 200 q 371 164 336 164 l 739 164 l 749 10 q 606 1 682 4 q 450 -2 529 -1 q 294 -3 371 -3 q 147 50 203 -3 q 89 189 90 103 l 89 769 q 147 910 90 857 q 294 963 203 963 m 114 574 l 688 574 l 688 424 l 114 424 l 114 574 m 472 1246 q 531 1189 531 1246 l 531 1117 q 472 1058 531 1058 l 410 1058 q 350 1117 350 1058 l 350 1189 q 410 1246 350 1246 l 472 1246 z "},"Ẹ":{"ha":803,"x_min":89,"x_max":749,"o":"m 294 963 q 450 962 371 963 q 606 958 529 961 q 749 949 682 956 l 739 794 l 371 794 q 319 777 336 794 q 301 724 301 760 l 301 235 q 319 182 301 200 q 371 164 336 164 l 739 164 l 749 10 q 606 1 682 4 q 450 -2 529 -1 q 294 -3 371 -3 q 147 50 203 -3 q 89 189 90 103 l 89 769 q 147 910 90 857 q 294 963 203 963 m 114 574 l 688 574 l 688 424 l 114 424 l 114 574 m 463 -54 q 522 -111 522 -54 l 522 -183 q 463 -242 522 -242 l 399 -242 q 340 -183 340 -242 l 340 -111 q 399 -54 340 -54 l 463 -54 z "},"È":{"ha":803,"x_min":89,"x_max":749,"o":"m 294 963 q 450 962 371 963 q 606 958 529 961 q 749 949 682 956 l 739 794 l 371 794 q 319 777 336 794 q 301 724 301 760 l 301 235 q 319 182 301 200 q 371 164 336 164 l 739 164 l 749 10 q 606 1 682 4 q 450 -2 529 -1 q 294 -3 371 -3 q 147 50 203 -3 q 89 189 90 103 l 89 769 q 147 910 90 857 q 294 963 203 963 m 114 574 l 688 574 l 688 424 l 114 424 l 114 574 m 268 1321 l 550 1115 l 490 1029 l 179 1183 l 268 1321 z "},"Ẻ":{"ha":803,"x_min":89,"x_max":749,"o":"m 294 963 q 450 962 371 963 q 606 958 529 961 q 749 949 682 956 l 739 794 l 371 794 q 319 777 336 794 q 301 724 301 760 l 301 235 q 319 182 301 200 q 371 164 336 164 l 739 164 l 749 10 q 606 1 682 4 q 450 -2 529 -1 q 294 -3 371 -3 q 147 50 203 -3 q 89 189 90 103 l 89 769 q 147 910 90 857 q 294 963 203 963 m 114 574 l 688 574 l 688 424 l 114 424 l 114 574 m 401 1119 q 456 1149 439 1131 q 472 1199 472 1167 q 443 1242 472 1233 q 375 1236 414 1251 l 354 1335 q 476 1349 422 1358 q 560 1302 529 1339 q 592 1204 592 1265 q 569 1118 592 1154 q 509 1060 547 1082 q 422 1029 471 1038 l 401 1119 z "},"Ȇ":{"ha":803,"x_min":89,"x_max":749,"o":"m 294 963 q 450 962 371 963 q 606 958 529 961 q 749 949 682 956 l 739 794 l 371 794 q 319 777 336 794 q 301 724 301 760 l 301 235 q 319 182 301 200 q 371 164 336 164 l 739 164 l 749 10 q 606 1 682 4 q 450 -2 529 -1 q 294 -3 371 -3 q 147 50 203 -3 q 89 189 90 103 l 89 769 q 147 910 90 857 q 294 963 203 963 m 114 574 l 688 574 l 688 424 l 114 424 l 114 574 m 308 1044 l 211 1058 q 229 1165 204 1117 q 308 1241 254 1213 q 438 1269 363 1269 q 569 1241 515 1269 q 649 1165 622 1213 q 667 1058 675 1117 l 569 1044 q 538 1115 569 1092 q 438 1138 506 1138 q 340 1115 372 1138 q 308 1044 308 1092 z "},"Ē":{"ha":803,"x_min":89,"x_max":749,"o":"m 294 963 q 450 962 371 963 q 606 958 529 961 q 749 949 682 956 l 739 794 l 371 794 q 319 777 336 794 q 301 724 301 760 l 301 235 q 319 182 301 200 q 371 164 336 164 l 739 164 l 749 10 q 606 1 682 4 q 450 -2 529 -1 q 294 -3 371 -3 q 147 50 203 -3 q 89 189 90 103 l 89 769 q 147 910 90 857 q 294 963 203 963 m 114 574 l 688 574 l 688 424 l 114 424 l 114 574 m 649 1221 l 649 1092 l 233 1092 l 233 1221 l 649 1221 z "},"Ḗ":{"ha":803,"x_min":89,"x_max":749,"o":"m 294 963 q 450 962 371 963 q 606 958 529 961 q 749 949 682 956 l 739 794 l 371 794 q 319 777 336 794 q 301 724 301 760 l 301 235 q 319 182 301 200 q 371 164 336 164 l 739 164 l 749 10 q 606 1 682 4 q 450 -2 529 -1 q 294 -3 371 -3 q 147 50 203 -3 q 89 189 90 103 l 89 769 q 147 910 90 857 q 294 963 203 963 m 114 574 l 688 574 l 688 424 l 114 424 l 114 574 m 649 1189 l 649 1060 l 233 1060 l 233 1189 l 649 1189 m 518 1485 l 611 1365 l 383 1233 l 322 1307 l 518 1485 z "},"Ḕ":{"ha":803,"x_min":89,"x_max":749,"o":"m 294 963 q 450 962 371 963 q 606 958 529 961 q 749 949 682 956 l 739 794 l 371 794 q 319 777 336 794 q 301 724 301 760 l 301 235 q 319 182 301 200 q 371 164 336 164 l 739 164 l 749 10 q 606 1 682 4 q 450 -2 529 -1 q 294 -3 371 -3 q 147 50 203 -3 q 89 189 90 103 l 89 769 q 147 910 90 857 q 294 963 203 963 m 114 574 l 688 574 l 688 424 l 114 424 l 114 574 m 232 1189 l 647 1189 l 647 1060 l 232 1060 l 232 1189 m 361 1485 l 558 1307 l 496 1233 l 268 1365 l 361 1485 z "},"Ę":{"ha":803,"x_min":89,"x_max":768,"o":"m 294 963 q 450 962 371 963 q 606 958 529 961 q 749 949 682 956 l 739 794 l 371 794 q 319 777 336 794 q 301 724 301 760 l 301 235 q 319 182 301 200 q 371 164 336 164 l 739 164 l 749 10 q 606 1 682 4 q 450 -2 529 -1 q 294 -3 371 -3 q 147 50 203 -3 q 89 189 90 103 l 89 769 q 147 910 90 857 q 294 963 203 963 m 114 574 l 688 574 l 688 424 l 114 424 l 114 574 m 668 13 l 750 10 q 705 -56 726 -22 q 665 -129 683 -89 q 674 -185 646 -174 q 753 -183 701 -196 l 768 -257 q 642 -287 693 -287 q 560 -267 590 -287 q 523 -214 531 -247 q 528 -144 515 -181 q 572 -69 539 -110 q 668 13 606 -29 z "},"Ẽ":{"ha":803,"x_min":89,"x_max":749,"o":"m 294 963 q 450 962 371 963 q 606 958 529 961 q 749 949 682 956 l 739 794 l 371 794 q 319 777 336 794 q 301 724 301 760 l 301 235 q 319 182 301 200 q 371 164 336 164 l 739 164 l 749 10 q 606 1 682 4 q 450 -2 529 -1 q 294 -3 371 -3 q 147 50 203 -3 q 89 189 90 103 l 89 769 q 147 910 90 857 q 294 963 203 963 m 114 574 l 688 574 l 688 424 l 114 424 l 114 574 m 311 1260 q 374 1248 346 1257 q 427 1228 401 1239 q 478 1206 453 1217 q 532 1192 504 1196 q 577 1201 568 1186 q 586 1253 586 1217 l 675 1253 q 656 1104 690 1156 q 561 1057 621 1053 q 476 1076 514 1061 q 405 1107 438 1092 q 339 1126 372 1122 q 295 1116 304 1132 q 286 1063 286 1100 l 199 1063 q 202 1176 188 1132 q 247 1242 217 1221 q 311 1260 276 1263 z "},"Ə":{"ha":907,"x_min":60,"x_max":843,"o":"m 453 -17 q 228 22 314 -17 q 101 130 142 60 q 60 294 60 200 q 122 489 60 421 q 301 557 185 557 l 771 557 l 771 404 l 369 404 q 289 371 311 404 q 268 292 267 338 q 306 186 268 224 q 442 149 343 149 q 566 181 525 149 q 621 284 607 214 q 635 468 635 354 q 629 628 635 563 q 602 735 624 694 q 536 795 581 776 q 415 814 492 814 q 263 808 342 814 q 107 792 183 803 l 90 926 q 194 955 138 944 q 310 971 250 965 q 424 976 369 976 q 674 926 583 976 q 804 765 765 875 q 843 478 843 654 q 806 192 843 300 q 683 33 768 83 q 453 -17 597 -17 z "},"F":{"ha":774,"x_min":94,"x_max":740,"o":"m 300 963 q 451 962 374 963 q 602 958 528 961 q 740 947 676 956 l 729 794 l 382 794 q 325 777 344 794 q 306 724 306 760 l 306 0 l 94 0 l 94 767 q 151 910 94 857 q 300 963 208 963 m 118 557 l 678 557 l 678 407 l 118 407 l 118 557 z "},"G":{"ha":900,"x_min":65,"x_max":828,"o":"m 492 978 q 606 974 554 978 q 703 963 657 971 q 794 943 750 956 l 778 789 q 683 793 729 792 q 592 795 638 794 q 496 796 546 796 q 397 783 436 796 q 333 736 357 771 q 299 639 310 701 q 289 476 289 576 q 304 289 289 357 q 356 192 319 221 q 453 164 392 164 q 529 172 494 164 q 594 195 564 181 q 647 224 624 210 l 671 124 q 609 61 650 94 q 510 5 568 28 q 376 -18 451 -18 q 199 33 268 -18 q 97 194 129 85 q 65 481 65 304 q 106 776 65 668 q 241 931 147 885 q 492 978 335 978 m 828 553 l 828 0 l 672 0 l 643 146 l 624 185 l 624 553 l 828 553 z "},"Ğ":{"ha":900,"x_min":65,"x_max":828,"o":"m 492 978 q 606 974 554 978 q 703 963 657 971 q 794 943 750 956 l 778 789 q 683 793 729 792 q 592 795 638 794 q 496 796 546 796 q 397 783 436 796 q 333 736 357 771 q 299 639 310 701 q 289 476 289 576 q 304 289 289 357 q 356 192 319 221 q 453 164 392 164 q 529 172 494 164 q 594 195 564 181 q 647 224 624 210 l 671 124 q 609 61 650 94 q 510 5 568 28 q 376 -18 451 -18 q 199 33 268 -18 q 97 194 129 85 q 65 481 65 304 q 106 776 65 668 q 241 931 147 885 q 492 978 335 978 m 828 553 l 828 0 l 672 0 l 643 146 l 624 185 l 624 553 l 828 553 m 603 1260 l 700 1246 q 682 1141 708 1189 q 603 1064 656 1093 q 472 1035 550 1035 q 343 1064 397 1035 q 263 1141 289 1093 q 244 1246 238 1189 l 342 1260 q 374 1190 342 1214 q 474 1167 406 1167 q 571 1190 539 1167 q 603 1260 603 1214 z "},"Ǧ":{"ha":900,"x_min":65,"x_max":828,"o":"m 492 978 q 606 974 554 978 q 703 963 657 971 q 794 943 750 956 l 778 789 q 683 793 729 792 q 592 795 638 794 q 496 796 546 796 q 397 783 436 796 q 333 736 357 771 q 299 639 310 701 q 289 476 289 576 q 304 289 289 357 q 356 192 319 221 q 453 164 392 164 q 529 172 494 164 q 594 195 564 181 q 647 224 624 210 l 671 124 q 609 61 650 94 q 510 5 568 28 q 376 -18 451 -18 q 199 33 268 -18 q 97 194 129 85 q 65 481 65 304 q 106 776 65 668 q 241 931 147 885 q 492 978 335 978 m 828 553 l 828 0 l 672 0 l 643 146 l 624 185 l 624 553 l 828 553 m 674 1293 l 728 1215 l 515 1035 l 431 1035 l 218 1215 l 272 1293 l 468 1181 l 479 1181 l 674 1293 z "},"Ĝ":{"ha":900,"x_min":65,"x_max":828,"o":"m 492 978 q 606 974 554 978 q 703 963 657 971 q 794 943 750 956 l 778 789 q 683 793 729 792 q 592 795 638 794 q 496 796 546 796 q 397 783 436 796 q 333 736 357 771 q 299 639 310 701 q 289 476 289 576 q 304 289 289 357 q 356 192 319 221 q 453 164 392 164 q 529 172 494 164 q 594 195 564 181 q 647 224 624 210 l 671 124 q 609 61 650 94 q 510 5 568 28 q 376 -18 451 -18 q 199 33 268 -18 q 97 194 129 85 q 65 481 65 304 q 106 776 65 668 q 241 931 147 885 q 492 978 335 978 m 828 553 l 828 0 l 672 0 l 643 146 l 624 185 l 624 553 l 828 553 m 547 1274 l 733 1088 l 679 1014 l 479 1146 l 468 1146 l 265 1014 l 210 1093 l 399 1274 l 547 1274 z "},"Ģ":{"ha":900,"x_min":65,"x_max":828,"o":"m 492 978 q 606 974 554 978 q 703 963 657 971 q 794 943 750 956 l 778 789 q 683 793 729 792 q 592 795 638 794 q 496 796 546 796 q 397 783 436 796 q 333 736 357 771 q 299 639 310 701 q 289 476 289 576 q 304 289 289 357 q 356 192 319 221 q 453 164 392 164 q 529 172 494 164 q 594 195 564 181 q 647 224 624 210 l 671 124 q 609 61 650 94 q 510 5 568 28 q 376 -18 451 -18 q 199 33 268 -18 q 97 194 129 85 q 65 481 65 304 q 106 776 65 668 q 241 931 147 885 q 492 978 335 978 m 828 553 l 828 0 l 672 0 l 643 146 l 624 185 l 624 553 l 828 553 m 490 -74 q 540 -86 526 -74 q 556 -131 554 -99 l 556 -201 q 538 -314 554 -267 q 490 -404 521 -361 l 415 -383 q 431 -315 426 -349 q 435 -240 435 -281 q 381 -190 382 -240 l 383 -131 q 398 -86 383 -99 q 449 -74 413 -74 l 490 -74 z "},"Ġ":{"ha":900,"x_min":65,"x_max":828,"o":"m 492 978 q 606 974 554 978 q 703 963 657 971 q 794 943 750 956 l 778 789 q 683 793 729 792 q 592 795 638 794 q 496 796 546 796 q 397 783 436 796 q 333 736 357 771 q 299 639 310 701 q 289 476 289 576 q 304 289 289 357 q 356 192 319 221 q 453 164 392 164 q 529 172 494 164 q 594 195 564 181 q 647 224 624 210 l 671 124 q 609 61 650 94 q 510 5 568 28 q 376 -18 451 -18 q 199 33 268 -18 q 97 194 129 85 q 65 481 65 304 q 106 776 65 668 q 241 931 147 885 q 492 978 335 978 m 828 553 l 828 0 l 672 0 l 643 146 l 624 185 l 624 553 l 828 553 m 506 1242 q 564 1185 564 1242 l 564 1113 q 506 1054 564 1054 l 443 1054 q 383 1113 383 1054 l 383 1185 q 443 1242 383 1242 l 506 1242 z "},"Ḡ":{"ha":900,"x_min":65,"x_max":828,"o":"m 492 978 q 606 974 554 978 q 703 963 657 971 q 794 943 750 956 l 778 789 q 683 793 729 792 q 592 795 638 794 q 496 796 546 796 q 397 783 436 796 q 333 736 357 771 q 299 639 310 701 q 289 476 289 576 q 304 289 289 357 q 356 192 319 221 q 453 164 392 164 q 529 172 494 164 q 594 195 564 181 q 647 224 624 210 l 671 124 q 609 61 650 94 q 510 5 568 28 q 376 -18 451 -18 q 199 33 268 -18 q 97 194 129 85 q 65 481 65 304 q 106 776 65 668 q 241 931 147 885 q 492 978 335 978 m 828 553 l 828 0 l 672 0 l 643 146 l 624 185 l 624 553 l 828 553 m 681 1217 l 681 1088 l 265 1088 l 265 1217 l 681 1217 z "},"H":{"ha":960,"x_min":97,"x_max":863,"o":"m 310 958 l 310 0 l 97 0 l 97 958 l 310 958 m 667 590 l 667 432 l 299 432 l 299 590 l 667 590 m 863 958 l 863 0 l 651 0 l 651 958 l 863 958 z "},"Ħ":{"ha":965,"x_min":17,"x_max":950,"o":"m 950 811 l 950 713 l 17 713 l 17 811 l 950 811 m 313 958 l 313 0 l 100 0 l 100 958 l 313 958 m 669 590 l 669 432 l 301 432 l 301 590 l 669 590 m 865 958 l 865 0 l 654 0 l 654 958 l 865 958 z "},"Ḫ":{"ha":960,"x_min":97,"x_max":863,"o":"m 310 958 l 310 0 l 97 0 l 97 958 l 310 958 m 667 590 l 667 432 l 299 432 l 299 590 l 667 590 m 863 958 l 863 0 l 651 0 l 651 958 l 863 958 m 611 -56 l 708 -69 q 691 -176 717 -128 q 612 -252 665 -224 q 482 -281 558 -281 q 351 -252 406 -281 q 272 -176 297 -224 q 253 -69 246 -128 l 350 -56 q 382 -126 350 -103 q 482 -149 414 -149 q 579 -126 547 -149 q 611 -56 611 -103 z "},"Ĥ":{"ha":960,"x_min":97,"x_max":863,"o":"m 310 958 l 310 0 l 97 0 l 97 958 l 310 958 m 667 590 l 667 432 l 299 432 l 299 590 l 667 590 m 863 958 l 863 0 l 651 0 l 651 958 l 863 958 m 554 1274 l 740 1088 l 686 1014 l 486 1146 l 475 1146 l 272 1014 l 217 1093 l 406 1274 l 554 1274 z "},"Ḥ":{"ha":960,"x_min":97,"x_max":863,"o":"m 310 958 l 310 0 l 97 0 l 97 958 l 310 958 m 667 590 l 667 432 l 299 432 l 299 590 l 667 590 m 863 958 l 863 0 l 651 0 l 651 958 l 863 958 m 514 -58 q 572 -115 572 -58 l 572 -187 q 514 -244 572 -244 l 451 -244 q 392 -187 392 -244 l 392 -115 q 451 -58 392 -58 l 514 -58 z "},"I":{"ha":406,"x_min":97,"x_max":308,"o":"m 308 958 l 308 0 l 97 0 l 97 958 l 308 958 z "},"Ĳ":{"ha":922,"x_min":97,"x_max":829,"o":"m 308 958 l 308 0 l 97 0 l 97 958 l 308 958 m 829 958 l 829 189 q 772 38 829 90 q 610 -15 714 -15 q 551 -12 585 -15 q 485 -3 517 -10 q 433 11 453 3 l 457 149 l 524 149 q 619 226 619 149 l 619 958 l 829 958 z "},"Í":{"ha":406,"x_min":83,"x_max":453,"o":"m 308 958 l 308 0 l 97 0 l 97 958 l 308 958 m 364 1304 l 453 1167 l 143 1011 l 83 1099 l 364 1304 z "},"Ĭ":{"ha":406,"x_min":-32,"x_max":439,"o":"m 308 958 l 308 0 l 97 0 l 97 958 l 308 958 m 333 1254 l 431 1240 q 413 1135 439 1183 q 333 1058 386 1088 q 203 1029 281 1029 q 74 1058 128 1029 q -6 1135 19 1088 q -25 1240 -32 1183 l 72 1254 q 104 1185 72 1208 q 204 1161 136 1161 q 301 1185 269 1161 q 333 1254 333 1208 z "},"Î":{"ha":406,"x_min":-60,"x_max":464,"o":"m 308 958 l 308 0 l 97 0 l 97 958 l 308 958 m 278 1268 l 464 1082 l 410 1008 l 210 1140 l 199 1140 l -4 1008 l -60 1088 l 129 1268 l 278 1268 z "},"Ȉ":{"ha":406,"x_min":-135,"x_max":424,"o":"m 308 958 l 308 0 l 97 0 l 97 958 l 308 958 m 263 1333 l 424 1078 l 340 1013 l 129 1246 l 263 1333 m -1 1333 l 160 1078 l 78 1013 l -133 1246 l -1 1333 z "},"Ï":{"ha":406,"x_min":-3,"x_max":406,"o":"m 308 958 l 308 0 l 97 0 l 97 958 l 308 958 m 363 1233 q 407 1189 407 1233 l 407 1107 q 363 1064 407 1064 l 296 1064 q 251 1107 251 1064 l 251 1189 q 296 1233 251 1233 l 363 1233 m 108 1233 q 151 1189 151 1233 l 151 1107 q 108 1064 151 1064 l 40 1064 q -3 1107 -3 1064 l -3 1189 q 40 1233 -3 1233 l 108 1233 z "},"Ḯ":{"ha":406,"x_min":15,"x_max":392,"o":"m 308 958 l 308 0 l 97 0 l 97 958 l 308 958 m 349 1208 q 389 1168 389 1208 l 389 1094 q 349 1054 389 1054 l 288 1054 q 247 1094 247 1054 l 247 1168 q 288 1208 247 1208 l 349 1208 m 301 1518 l 392 1396 l 143 1257 l 83 1333 l 301 1518 m 118 1208 q 157 1168 157 1208 l 157 1094 q 118 1054 157 1054 l 57 1054 q 17 1094 17 1054 l 17 1168 q 57 1208 17 1208 l 118 1208 z "},"İ":{"ha":406,"x_min":97,"x_max":308,"o":"m 308 958 l 308 0 l 97 0 l 97 958 l 308 958 m 236 1238 q 294 1181 294 1238 l 294 1108 q 236 1050 294 1050 l 174 1050 q 114 1108 114 1050 l 114 1181 q 174 1238 114 1238 l 236 1238 z "},"Ị":{"ha":406,"x_min":97,"x_max":308,"o":"m 308 958 l 308 0 l 97 0 l 97 958 l 308 958 m 233 -54 q 293 -111 293 -54 l 293 -183 q 233 -242 293 -242 l 169 -242 q 111 -183 111 -242 l 111 -111 q 169 -54 111 -54 l 233 -54 z "},"Ì":{"ha":406,"x_min":-58,"x_max":313,"o":"m 308 958 l 308 0 l 97 0 l 97 958 l 308 958 m 31 1313 l 313 1107 l 253 1021 l -58 1175 l 31 1313 z "},"Ỉ":{"ha":406,"x_min":97,"x_max":354,"o":"m 308 958 l 308 0 l 97 0 l 97 958 l 308 958 m 164 1111 q 218 1140 201 1122 q 235 1190 235 1158 q 206 1234 235 1225 q 138 1228 176 1243 l 117 1326 q 238 1340 185 1350 q 323 1294 292 1331 q 354 1196 354 1257 q 332 1110 354 1146 q 272 1051 310 1074 q 185 1021 233 1029 l 164 1111 z "},"Ȋ":{"ha":406,"x_min":-33,"x_max":438,"o":"m 308 958 l 308 0 l 97 0 l 97 958 l 308 958 m 72 1035 l -25 1049 q -7 1155 -32 1107 q 72 1231 18 1203 q 201 1260 126 1260 q 333 1231 279 1260 q 413 1155 386 1203 q 431 1049 439 1107 l 333 1035 q 301 1105 333 1082 q 201 1128 269 1128 q 104 1105 136 1128 q 72 1035 72 1082 z "},"Ī":{"ha":406,"x_min":-4,"x_max":411,"o":"m 308 958 l 308 0 l 97 0 l 97 958 l 308 958 m 413 1213 l 413 1083 l -3 1083 l -3 1213 l 413 1213 z "},"Į":{"ha":406,"x_min":47,"x_max":308,"o":"m 308 958 l 308 0 l 97 0 l 97 958 l 308 958 m 200 3 l 282 0 q 237 -65 258 -32 q 197 -139 215 -99 q 206 -194 178 -183 q 285 -193 233 -206 l 300 -267 q 174 -297 225 -297 q 92 -277 122 -297 q 55 -224 63 -257 q 60 -154 47 -190 q 104 -79 71 -119 q 200 3 138 -39 z "},"Ĩ":{"ha":406,"x_min":-50,"x_max":453,"o":"m 308 958 l 308 0 l 97 0 l 97 958 l 308 958 m 74 1250 q 136 1238 108 1247 q 190 1218 164 1229 q 241 1197 215 1207 q 294 1182 267 1186 q 340 1192 331 1176 q 349 1243 349 1207 l 438 1243 q 418 1094 453 1146 q 324 1047 383 1043 q 238 1067 276 1051 q 167 1097 200 1082 q 101 1117 135 1113 q 58 1106 67 1122 q 49 1053 49 1090 l -39 1053 q -35 1167 -50 1122 q 9 1232 -21 1211 q 74 1250 39 1253 z "},"J":{"ha":517,"x_min":28,"x_max":424,"o":"m 424 958 l 424 189 q 366 38 424 90 q 204 -15 308 -15 q 145 -12 179 -15 q 79 -3 111 -10 q 28 11 47 3 l 51 149 l 118 149 q 214 226 214 149 l 214 958 l 424 958 z "},"Ĵ":{"ha":517,"x_min":28,"x_max":582,"o":"m 424 958 l 424 189 q 366 38 424 90 q 204 -15 308 -15 q 145 -12 179 -15 q 79 -3 111 -10 q 28 11 47 3 l 51 149 l 118 149 q 214 226 214 149 l 214 958 l 424 958 m 396 1269 l 582 1083 l 528 1010 l 328 1142 l 317 1142 l 114 1010 l 58 1089 l 247 1269 l 396 1269 z "},"K":{"ha":881,"x_min":97,"x_max":874,"o":"m 857 958 l 607 572 q 574 530 592 547 q 538 500 556 513 l 538 496 q 579 461 557 483 q 615 415 601 439 l 874 0 l 638 0 l 340 501 l 628 958 l 857 958 m 308 958 l 308 688 q 301 594 308 640 q 279 503 294 547 q 299 415 290 461 q 308 331 308 369 l 308 0 l 97 0 l 97 958 l 308 958 m 417 572 l 417 425 l 244 425 l 244 572 l 417 572 z "},"Ķ":{"ha":881,"x_min":97,"x_max":874,"o":"m 857 958 l 607 572 q 574 530 592 547 q 538 500 556 513 l 538 496 q 579 461 557 483 q 615 415 601 439 l 874 0 l 638 0 l 340 501 l 628 958 l 857 958 m 308 958 l 308 688 q 301 594 308 640 q 279 503 294 547 q 299 415 290 461 q 308 331 308 369 l 308 0 l 97 0 l 97 958 l 308 958 m 417 572 l 417 425 l 244 425 l 244 572 l 417 572 m 482 -74 q 532 -86 518 -74 q 547 -131 546 -99 l 547 -201 q 529 -314 546 -267 q 482 -404 513 -361 l 407 -383 q 422 -315 418 -349 q 426 -240 426 -281 q 372 -190 374 -240 l 375 -131 q 390 -86 375 -99 q 440 -74 404 -74 l 482 -74 z "},"L":{"ha":744,"x_min":94,"x_max":725,"o":"m 306 958 l 306 242 q 325 189 306 207 q 381 171 344 171 l 715 171 l 725 11 q 519 -1 626 1 q 306 -3 411 -3 q 147 53 200 -3 q 94 196 94 108 l 94 958 l 306 958 z "},"Ǉ":{"ha":1261,"x_min":94,"x_max":1168,"o":"m 306 958 l 306 242 q 325 189 306 207 q 381 171 344 171 l 715 171 l 725 11 q 519 -1 626 1 q 306 -3 411 -3 q 147 53 200 -3 q 94 196 94 108 l 94 958 l 306 958 m 1168 958 l 1168 189 q 1110 38 1168 90 q 949 -15 1053 -15 q 890 -12 924 -15 q 824 -3 856 -10 q 772 11 792 3 l 796 149 l 863 149 q 958 226 958 149 l 958 958 l 1168 958 z "},"Ĺ":{"ha":744,"x_min":76,"x_max":725,"o":"m 306 958 l 306 242 q 325 189 306 207 q 381 171 344 171 l 715 171 l 725 11 q 519 -1 626 1 q 306 -3 411 -3 q 147 53 200 -3 q 94 196 94 108 l 94 958 l 306 958 m 357 1306 l 446 1168 l 136 1013 l 76 1100 l 357 1306 z "},"Ľ":{"ha":744,"x_min":94,"x_max":725,"o":"m 306 958 l 306 242 q 325 189 306 207 q 381 171 344 171 l 715 171 l 725 11 q 519 -1 626 1 q 306 -3 411 -3 q 147 53 200 -3 q 94 196 94 108 l 94 958 l 306 958 m 558 956 q 603 943 590 956 q 617 896 615 931 l 617 822 q 601 706 617 754 q 558 613 586 657 l 490 633 q 503 706 500 671 q 507 782 506 740 q 458 833 457 782 l 460 896 q 474 943 461 931 q 519 956 488 956 l 558 956 z "},"Ļ":{"ha":744,"x_min":94,"x_max":725,"o":"m 306 958 l 306 242 q 325 189 306 207 q 381 171 344 171 l 715 171 l 725 11 q 519 -1 626 1 q 306 -3 411 -3 q 147 53 200 -3 q 94 196 94 108 l 94 958 l 306 958 m 431 -75 q 482 -87 468 -75 q 496 -132 496 -100 l 496 -203 q 479 -315 496 -268 q 432 -406 463 -362 l 357 -385 q 371 -316 367 -350 q 376 -242 375 -282 q 322 -192 324 -242 l 324 -132 q 339 -87 324 -100 q 389 -75 354 -75 l 431 -75 z "},"Ŀ":{"ha":744,"x_min":94,"x_max":725,"o":"m 306 958 l 306 242 q 325 189 306 207 q 381 171 344 171 l 715 171 l 725 11 q 519 -1 626 1 q 306 -3 411 -3 q 147 53 200 -3 q 94 196 94 108 l 94 958 l 306 958 m 503 474 q 444 531 444 474 l 444 603 q 503 661 444 661 l 565 661 q 625 603 625 661 l 625 531 q 565 474 625 474 l 503 474 z "},"Ḷ":{"ha":744,"x_min":94,"x_max":725,"o":"m 306 958 l 306 242 q 325 189 306 207 q 381 171 344 171 l 715 171 l 725 11 q 519 -1 626 1 q 306 -3 411 -3 q 147 53 200 -3 q 94 196 94 108 l 94 958 l 306 958 m 460 -58 q 518 -115 518 -58 l 518 -187 q 460 -244 518 -244 l 397 -244 q 338 -187 338 -244 l 338 -115 q 397 -58 338 -58 l 460 -58 z "},"ǈ":{"ha":1128,"x_min":94,"x_max":1040,"o":"m 306 958 l 306 242 q 325 189 306 207 q 381 171 344 171 l 715 171 l 725 11 q 519 -1 626 1 q 306 -3 411 -3 q 147 53 200 -3 q 94 196 94 108 l 94 958 l 306 958 m 1040 686 l 1040 32 q 1019 -90 1040 -31 q 958 -196 997 -149 q 863 -272 918 -243 l 749 -183 q 817 -81 797 -131 q 836 32 836 -31 l 836 686 l 1040 686 m 981 996 q 1040 935 1040 996 l 1040 860 q 981 799 1040 799 l 892 799 q 831 860 831 799 l 831 935 q 892 996 831 996 l 981 996 z "},"Ḻ":{"ha":744,"x_min":94,"x_max":725,"o":"m 306 958 l 306 242 q 325 189 306 207 q 381 171 344 171 l 715 171 l 725 11 q 519 -1 626 1 q 306 -3 411 -3 q 147 53 200 -3 q 94 196 94 108 l 94 958 l 306 958 m 633 -87 l 633 -217 l 218 -217 l 218 -87 l 633 -87 z "},"Ł":{"ha":749,"x_min":19,"x_max":729,"o":"m 463 686 l 463 576 l 19 399 l 19 510 l 463 686 m 310 958 l 310 242 q 329 189 310 207 q 385 171 349 171 l 719 171 l 729 11 q 523 -1 631 1 q 310 -3 415 -3 q 151 53 204 -3 q 99 196 99 108 l 99 958 l 310 958 z "},"M":{"ha":1271,"x_min":79,"x_max":1192,"o":"m 1078 958 q 1156 881 1153 958 l 1192 0 l 996 0 l 964 796 l 939 796 l 785 197 q 701 131 772 131 l 568 131 q 483 197 497 131 l 328 796 l 304 796 l 275 0 l 79 0 l 114 881 q 193 958 118 958 l 392 958 q 475 892 460 958 l 599 408 q 613 341 607 375 q 625 272 618 307 l 643 272 q 656 341 650 307 q 669 410 663 375 l 792 892 q 876 958 806 958 l 1078 958 z "},"Ṃ":{"ha":1271,"x_min":79,"x_max":1192,"o":"m 1078 958 q 1156 881 1153 958 l 1192 0 l 996 0 l 964 796 l 939 796 l 785 197 q 701 131 772 131 l 568 131 q 483 197 497 131 l 328 796 l 304 796 l 275 0 l 79 0 l 114 881 q 193 958 118 958 l 392 958 q 475 892 460 958 l 599 408 q 613 341 607 375 q 625 272 618 307 l 643 272 q 656 341 650 307 q 669 410 663 375 l 792 892 q 876 958 806 958 l 1078 958 m 664 -58 q 722 -115 722 -58 l 722 -187 q 664 -244 722 -244 l 601 -244 q 542 -187 542 -244 l 542 -115 q 601 -58 542 -58 l 664 -58 z "},"N":{"ha":1003,"x_min":97,"x_max":907,"o":"m 907 958 l 907 76 q 831 0 907 0 l 714 0 q 662 16 679 0 q 628 64 644 32 l 363 568 q 330 638 346 600 q 303 713 314 676 l 288 713 q 294 638 292 676 q 297 563 297 599 l 297 0 l 97 0 l 97 882 q 174 958 97 958 l 289 958 q 340 942 322 958 q 374 896 357 926 l 631 407 q 667 336 649 375 q 700 256 685 297 l 717 256 q 711 337 714 297 q 708 415 708 376 l 708 958 l 907 958 z "},"Ǌ":{"ha":1519,"x_min":97,"x_max":1426,"o":"m 907 958 l 907 76 q 831 0 907 0 l 714 0 q 662 16 679 0 q 628 64 644 32 l 363 568 q 330 638 346 600 q 303 713 314 676 l 288 713 q 294 638 292 676 q 297 563 297 599 l 297 0 l 97 0 l 97 882 q 174 958 97 958 l 289 958 q 340 942 322 958 q 374 896 357 926 l 631 407 q 667 336 649 375 q 700 256 685 297 l 717 256 q 711 337 714 297 q 708 415 708 376 l 708 958 l 907 958 m 1426 958 l 1426 189 q 1369 38 1426 90 q 1207 -15 1311 -15 q 1148 -12 1182 -15 q 1082 -3 1114 -10 q 1031 11 1050 3 l 1054 149 l 1121 149 q 1217 226 1217 149 l 1217 958 l 1426 958 z "},"Ń":{"ha":1003,"x_min":97,"x_max":907,"o":"m 907 958 l 907 76 q 831 0 907 0 l 714 0 q 662 16 679 0 q 628 64 644 32 l 363 568 q 330 638 346 600 q 303 713 314 676 l 288 713 q 294 638 292 676 q 297 563 297 599 l 297 0 l 97 0 l 97 882 q 174 958 97 958 l 289 958 q 340 942 322 958 q 374 896 357 926 l 631 407 q 667 336 649 375 q 700 256 685 297 l 717 256 q 711 337 714 297 q 708 415 708 376 l 708 958 l 907 958 m 679 1304 l 768 1167 l 458 1011 l 399 1099 l 679 1304 z "},"Ň":{"ha":1003,"x_min":97,"x_max":907,"o":"m 907 958 l 907 76 q 831 0 907 0 l 714 0 q 662 16 679 0 q 628 64 644 32 l 363 568 q 330 638 346 600 q 303 713 314 676 l 288 713 q 294 638 292 676 q 297 563 297 599 l 297 0 l 97 0 l 97 882 q 174 958 97 958 l 289 958 q 340 942 322 958 q 374 896 357 926 l 631 407 q 667 336 649 375 q 700 256 685 297 l 717 256 q 711 337 714 297 q 708 415 708 376 l 708 958 l 907 958 m 719 1289 l 774 1211 l 561 1031 l 476 1031 l 264 1211 l 318 1289 l 514 1176 l 525 1176 l 719 1289 z "},"Ņ":{"ha":1003,"x_min":97,"x_max":907,"o":"m 907 958 l 907 76 q 831 0 907 0 l 714 0 q 662 16 679 0 q 628 64 644 32 l 363 568 q 330 638 346 600 q 303 713 314 676 l 288 713 q 294 638 292 676 q 297 563 297 599 l 297 0 l 97 0 l 97 882 q 174 958 97 958 l 289 958 q 340 942 322 958 q 374 896 357 926 l 631 407 q 667 336 649 375 q 700 256 685 297 l 717 256 q 711 337 714 297 q 708 415 708 376 l 708 958 l 907 958 m 521 -74 q 571 -86 557 -74 q 586 -131 585 -99 l 586 -201 q 568 -314 585 -267 q 521 -404 551 -361 l 446 -383 q 461 -315 457 -349 q 465 -240 465 -281 q 411 -190 413 -240 l 414 -131 q 428 -86 414 -99 q 479 -74 443 -74 l 521 -74 z "},"Ṅ":{"ha":1003,"x_min":97,"x_max":907,"o":"m 907 958 l 907 76 q 831 0 907 0 l 714 0 q 662 16 679 0 q 628 64 644 32 l 363 568 q 330 638 346 600 q 303 713 314 676 l 288 713 q 294 638 292 676 q 297 563 297 599 l 297 0 l 97 0 l 97 882 q 174 958 97 958 l 289 958 q 340 942 322 958 q 374 896 357 926 l 631 407 q 667 336 649 375 q 700 256 685 297 l 717 256 q 711 337 714 297 q 708 415 708 376 l 708 958 l 907 958 m 549 1238 q 607 1181 607 1238 l 607 1108 q 549 1050 607 1050 l 486 1050 q 426 1108 426 1050 l 426 1181 q 486 1238 426 1238 l 549 1238 z "},"Ṇ":{"ha":1003,"x_min":97,"x_max":907,"o":"m 907 958 l 907 76 q 831 0 907 0 l 714 0 q 662 16 679 0 q 628 64 644 32 l 363 568 q 330 638 346 600 q 303 713 314 676 l 288 713 q 294 638 292 676 q 297 563 297 599 l 297 0 l 97 0 l 97 882 q 174 958 97 958 l 289 958 q 340 942 322 958 q 374 896 357 926 l 631 407 q 667 336 649 375 q 700 256 685 297 l 717 256 q 711 337 714 297 q 708 415 708 376 l 708 958 l 907 958 m 546 -58 q 604 -115 604 -58 l 604 -187 q 546 -244 604 -244 l 483 -244 q 424 -187 424 -244 l 424 -115 q 483 -58 424 -58 l 546 -58 z "},"ǋ":{"ha":1388,"x_min":97,"x_max":1299,"o":"m 907 958 l 907 76 q 831 0 907 0 l 714 0 q 662 16 679 0 q 628 64 644 32 l 363 568 q 330 638 346 600 q 303 713 314 676 l 288 713 q 294 638 292 676 q 297 563 297 599 l 297 0 l 97 0 l 97 882 q 174 958 97 958 l 289 958 q 340 942 322 958 q 374 896 357 926 l 631 407 q 667 336 649 375 q 700 256 685 297 l 717 256 q 711 337 714 297 q 708 415 708 376 l 708 958 l 907 958 m 1299 686 l 1299 32 q 1277 -90 1299 -31 q 1216 -196 1256 -149 q 1121 -272 1176 -243 l 1007 -183 q 1075 -81 1056 -131 q 1094 32 1094 -31 l 1094 686 l 1299 686 m 1239 996 q 1299 935 1299 996 l 1299 860 q 1239 799 1299 799 l 1150 799 q 1089 860 1089 799 l 1089 935 q 1150 996 1089 996 l 1239 996 z "},"Ṉ":{"ha":1003,"x_min":97,"x_max":907,"o":"m 907 958 l 907 76 q 831 0 907 0 l 714 0 q 662 16 679 0 q 628 64 644 32 l 363 568 q 330 638 346 600 q 303 713 314 676 l 288 713 q 294 638 292 676 q 297 563 297 599 l 297 0 l 97 0 l 97 882 q 174 958 97 958 l 289 958 q 340 942 322 958 q 374 896 357 926 l 631 407 q 667 336 649 375 q 700 256 685 297 l 717 256 q 711 337 714 297 q 708 415 708 376 l 708 958 l 907 958 m 719 -87 l 719 -217 l 304 -217 l 304 -87 l 719 -87 z "},"Ñ":{"ha":1003,"x_min":97,"x_max":907,"o":"m 907 958 l 907 76 q 831 0 907 0 l 714 0 q 662 16 679 0 q 628 64 644 32 l 363 568 q 330 638 346 600 q 303 713 314 676 l 288 713 q 294 638 292 676 q 297 563 297 599 l 297 0 l 97 0 l 97 882 q 174 958 97 958 l 289 958 q 340 942 322 958 q 374 896 357 926 l 631 407 q 667 336 649 375 q 700 256 685 297 l 717 256 q 711 337 714 297 q 708 415 708 376 l 708 958 l 907 958 m 389 1250 q 451 1238 424 1247 q 505 1218 479 1229 q 556 1197 531 1207 q 610 1182 582 1186 q 655 1192 646 1176 q 664 1243 664 1207 l 753 1243 q 733 1094 768 1146 q 639 1047 699 1043 q 553 1067 592 1051 q 483 1097 515 1082 q 417 1117 450 1113 q 373 1106 382 1122 q 364 1053 364 1090 l 276 1053 q 280 1167 265 1122 q 324 1232 294 1211 q 389 1250 354 1253 z "},"Ŋ":{"ha":1004,"x_min":97,"x_max":907,"o":"m 907 958 l 907 -78 q 853 -236 907 -181 q 713 -292 800 -292 q 632 -285 679 -292 q 551 -265 585 -278 l 574 -132 l 632 -132 q 719 -60 719 -132 l 719 7 l 692 7 q 667 24 681 7 q 642 61 654 40 l 363 557 q 329 628 344 589 q 301 703 314 667 l 288 703 q 294 631 292 667 q 296 558 296 594 l 296 0 l 97 0 l 97 882 q 174 958 97 958 l 276 958 q 329 942 311 958 q 364 896 347 926 l 631 418 q 665 350 647 390 q 700 267 683 310 l 717 267 q 710 344 713 306 q 707 422 707 383 l 707 958 l 907 958 z "},"O":{"ha":956,"x_min":65,"x_max":890,"o":"m 478 978 q 671 953 592 978 q 798 873 750 929 q 868 720 846 817 q 890 479 890 624 q 868 240 890 336 q 798 86 846 143 q 671 6 750 29 q 478 -18 592 -18 q 285 6 364 -18 q 157 86 206 29 q 87 240 108 143 q 65 479 65 336 q 87 720 65 624 q 157 873 108 817 q 285 953 206 929 q 478 978 364 978 m 478 811 q 363 782 404 811 q 305 681 322 753 q 288 479 288 608 q 305 279 288 351 q 363 178 322 207 q 478 149 404 149 q 592 178 550 149 q 650 279 633 207 q 667 479 667 351 q 650 681 667 608 q 592 782 633 753 q 478 811 550 811 z "},"Ó":{"ha":956,"x_min":65,"x_max":890,"o":"m 478 978 q 671 953 592 978 q 798 873 750 929 q 868 720 846 817 q 890 479 890 624 q 868 240 890 336 q 798 86 846 143 q 671 6 750 29 q 478 -18 592 -18 q 285 6 364 -18 q 157 86 206 29 q 87 240 108 143 q 65 479 65 336 q 87 720 65 624 q 157 873 108 817 q 285 953 206 929 q 478 978 364 978 m 478 811 q 363 782 404 811 q 305 681 322 753 q 288 479 288 608 q 305 279 288 351 q 363 178 322 207 q 478 149 404 149 q 592 178 550 149 q 650 279 633 207 q 667 479 667 351 q 650 681 667 608 q 592 782 633 753 q 478 811 550 811 m 639 1318 l 728 1181 l 418 1025 l 358 1113 l 639 1318 z "},"Ŏ":{"ha":956,"x_min":65,"x_max":890,"o":"m 478 978 q 671 953 592 978 q 798 873 750 929 q 868 720 846 817 q 890 479 890 624 q 868 240 890 336 q 798 86 846 143 q 671 6 750 29 q 478 -18 592 -18 q 285 6 364 -18 q 157 86 206 29 q 87 240 108 143 q 65 479 65 336 q 87 720 65 624 q 157 873 108 817 q 285 953 206 929 q 478 978 364 978 m 478 811 q 363 782 404 811 q 305 681 322 753 q 288 479 288 608 q 305 279 288 351 q 363 178 322 207 q 478 149 404 149 q 592 178 550 149 q 650 279 633 207 q 667 479 667 351 q 650 681 667 608 q 592 782 633 753 q 478 811 550 811 m 608 1254 l 706 1240 q 688 1135 714 1183 q 608 1058 661 1088 q 478 1029 556 1029 q 349 1058 403 1029 q 269 1135 294 1088 q 250 1240 243 1183 l 347 1254 q 379 1185 347 1208 q 479 1161 411 1161 q 576 1185 544 1161 q 608 1254 608 1208 z "},"Ô":{"ha":956,"x_min":65,"x_max":890,"o":"m 478 978 q 671 953 592 978 q 798 873 750 929 q 868 720 846 817 q 890 479 890 624 q 868 240 890 336 q 798 86 846 143 q 671 6 750 29 q 478 -18 592 -18 q 285 6 364 -18 q 157 86 206 29 q 87 240 108 143 q 65 479 65 336 q 87 720 65 624 q 157 873 108 817 q 285 953 206 929 q 478 978 364 978 m 478 811 q 363 782 404 811 q 305 681 322 753 q 288 479 288 608 q 305 279 288 351 q 363 178 322 207 q 478 149 404 149 q 592 178 550 149 q 650 279 633 207 q 667 479 667 351 q 650 681 667 608 q 592 782 633 753 q 478 811 550 811 m 553 1268 l 739 1082 l 685 1008 l 485 1140 l 474 1140 l 271 1008 l 215 1088 l 404 1268 l 553 1268 z "},"Ố":{"ha":956,"x_min":65,"x_max":917,"o":"m 478 978 q 671 953 592 978 q 798 873 750 929 q 868 720 846 817 q 890 479 890 624 q 868 240 890 336 q 798 86 846 143 q 671 6 750 29 q 478 -18 592 -18 q 285 6 364 -18 q 157 86 206 29 q 87 240 108 143 q 65 479 65 336 q 87 720 65 624 q 157 873 108 817 q 285 953 206 929 q 478 978 364 978 m 478 811 q 363 782 404 811 q 305 681 322 753 q 288 479 288 608 q 305 279 288 351 q 363 178 322 207 q 478 149 404 149 q 592 178 550 149 q 650 279 633 207 q 667 479 667 351 q 650 681 667 608 q 592 782 633 753 q 478 811 550 811 m 404 1256 l 551 1256 l 733 1093 l 679 1014 l 483 1132 l 472 1132 l 279 1014 l 225 1088 l 404 1256 m 811 1440 l 917 1332 l 703 1175 l 633 1243 l 811 1440 z "},"Ộ":{"ha":956,"x_min":65,"x_max":890,"o":"m 553 1261 l 739 1075 l 685 1001 l 485 1133 l 474 1133 l 271 1001 l 217 1081 l 404 1261 l 553 1261 m 478 978 q 671 953 592 978 q 798 873 750 929 q 868 720 846 817 q 890 479 890 624 q 868 240 890 336 q 798 86 846 143 q 671 6 750 29 q 478 -18 592 -18 q 285 6 364 -18 q 157 86 206 29 q 87 240 108 143 q 65 479 65 336 q 87 720 65 624 q 157 873 108 817 q 285 953 206 929 q 478 978 364 978 m 478 811 q 363 782 404 811 q 305 681 322 753 q 288 479 288 608 q 305 279 288 351 q 363 178 322 207 q 478 149 404 149 q 592 178 550 149 q 650 279 633 207 q 667 479 667 351 q 650 681 667 608 q 592 782 633 753 q 478 811 550 811 m 508 -67 q 567 -124 567 -67 l 567 -196 q 508 -253 567 -253 l 446 -253 q 386 -196 386 -253 l 386 -124 q 446 -67 386 -67 l 508 -67 z "},"Ồ":{"ha":956,"x_min":40,"x_max":890,"o":"m 478 978 q 671 953 592 978 q 798 873 750 929 q 868 720 846 817 q 890 479 890 624 q 868 240 890 336 q 798 86 846 143 q 671 6 750 29 q 478 -18 592 -18 q 285 6 364 -18 q 157 86 206 29 q 87 240 108 143 q 65 479 65 336 q 87 720 65 624 q 157 873 108 817 q 285 953 206 929 q 478 978 364 978 m 478 811 q 363 782 404 811 q 305 681 322 753 q 288 479 288 608 q 305 279 288 351 q 363 178 322 207 q 478 149 404 149 q 592 178 550 149 q 650 279 633 207 q 667 479 667 351 q 650 681 667 608 q 592 782 633 753 q 478 811 550 811 m 553 1256 l 731 1088 l 676 1014 l 485 1132 l 474 1132 l 278 1014 l 224 1093 l 404 1256 l 553 1256 m 144 1440 l 324 1243 l 254 1175 l 40 1332 l 144 1440 z "},"Ổ":{"ha":956,"x_min":65,"x_max":890,"o":"m 478 978 q 671 953 592 978 q 798 873 750 929 q 868 720 846 817 q 890 479 890 624 q 868 240 890 336 q 798 86 846 143 q 671 6 750 29 q 478 -18 592 -18 q 285 6 364 -18 q 157 86 206 29 q 87 240 108 143 q 65 479 65 336 q 87 720 65 624 q 157 873 108 817 q 285 953 206 929 q 478 978 364 978 m 478 811 q 363 782 404 811 q 305 681 322 753 q 288 479 288 608 q 305 279 288 351 q 363 178 322 207 q 478 149 404 149 q 592 178 550 149 q 650 279 633 207 q 667 479 667 351 q 650 681 667 608 q 592 782 633 753 q 478 811 550 811 m 404 1256 l 551 1256 l 733 1093 l 679 1014 l 483 1132 l 472 1132 l 279 1014 l 225 1088 l 404 1256 m 649 1279 q 695 1304 681 1289 q 711 1344 710 1319 q 685 1374 711 1371 q 625 1363 660 1378 l 606 1450 q 713 1465 665 1471 q 789 1429 761 1460 q 817 1346 817 1399 q 774 1248 817 1285 q 667 1200 732 1211 l 649 1279 z "},"Ỗ":{"ha":956,"x_min":65,"x_max":890,"o":"m 478 978 q 671 953 592 978 q 798 873 750 929 q 868 720 846 817 q 890 479 890 624 q 868 240 890 336 q 798 86 846 143 q 671 6 750 29 q 478 -18 592 -18 q 285 6 364 -18 q 157 86 206 29 q 87 240 108 143 q 65 479 65 336 q 87 720 65 624 q 157 873 108 817 q 285 953 206 929 q 478 978 364 978 m 478 811 q 363 782 404 811 q 305 681 322 753 q 288 479 288 608 q 305 279 288 351 q 363 178 322 207 q 478 149 404 149 q 592 178 550 149 q 650 279 633 207 q 667 479 667 351 q 650 681 667 608 q 592 782 633 753 q 478 811 550 811 m 553 1256 l 731 1088 l 678 1014 l 485 1132 l 474 1132 l 278 1014 l 222 1093 l 404 1256 l 553 1256 m 365 1479 q 422 1468 397 1476 q 470 1449 447 1460 q 515 1428 493 1438 q 564 1415 538 1419 q 606 1424 597 1410 q 615 1472 615 1438 l 696 1472 q 678 1335 710 1382 q 590 1292 646 1288 q 531 1304 558 1294 q 481 1324 504 1314 q 435 1344 457 1335 q 390 1357 414 1354 q 350 1347 358 1361 q 342 1297 342 1332 l 261 1297 q 265 1402 251 1361 q 306 1463 278 1443 q 365 1479 333 1482 z "},"Ȍ":{"ha":956,"x_min":65,"x_max":890,"o":"m 478 978 q 671 953 592 978 q 798 873 750 929 q 868 720 846 817 q 890 479 890 624 q 868 240 890 336 q 798 86 846 143 q 671 6 750 29 q 478 -18 592 -18 q 285 6 364 -18 q 157 86 206 29 q 87 240 108 143 q 65 479 65 336 q 87 720 65 624 q 157 873 108 817 q 285 953 206 929 q 478 978 364 978 m 478 811 q 363 782 404 811 q 305 681 322 753 q 288 479 288 608 q 305 279 288 351 q 363 178 322 207 q 478 149 404 149 q 592 178 550 149 q 650 279 633 207 q 667 479 667 351 q 650 681 667 608 q 592 782 633 753 q 478 811 550 811 m 538 1333 l 699 1078 l 615 1013 l 404 1246 l 538 1333 m 274 1333 l 435 1078 l 353 1013 l 142 1246 l 274 1333 z "},"Ö":{"ha":956,"x_min":65,"x_max":890,"o":"m 478 978 q 671 953 592 978 q 798 873 750 929 q 868 720 846 817 q 890 479 890 624 q 868 240 890 336 q 798 86 846 143 q 671 6 750 29 q 478 -18 592 -18 q 285 6 364 -18 q 157 86 206 29 q 87 240 108 143 q 65 479 65 336 q 87 720 65 624 q 157 873 108 817 q 285 953 206 929 q 478 978 364 978 m 478 811 q 363 782 404 811 q 305 681 322 753 q 288 479 288 608 q 305 279 288 351 q 363 178 322 207 q 478 149 404 149 q 592 178 550 149 q 650 279 633 207 q 667 479 667 351 q 650 681 667 608 q 592 782 633 753 q 478 811 550 811 m 638 1233 q 682 1189 682 1233 l 682 1107 q 638 1064 682 1064 l 571 1064 q 526 1107 526 1064 l 526 1189 q 571 1233 526 1233 l 638 1233 m 383 1233 q 426 1189 426 1233 l 426 1107 q 383 1064 426 1064 l 315 1064 q 272 1107 272 1064 l 272 1189 q 315 1233 272 1233 l 383 1233 z "},"Ȫ":{"ha":956,"x_min":65,"x_max":890,"o":"m 478 978 q 671 953 592 978 q 798 873 750 929 q 868 720 846 817 q 890 479 890 624 q 868 240 890 336 q 798 86 846 143 q 671 6 750 29 q 478 -18 592 -18 q 285 6 364 -18 q 157 86 206 29 q 87 240 108 143 q 65 479 65 336 q 87 720 65 624 q 157 873 108 817 q 285 953 206 929 q 478 978 364 978 m 478 811 q 363 782 404 811 q 305 681 322 753 q 288 479 288 608 q 305 279 288 351 q 363 178 322 207 q 478 149 404 149 q 592 178 550 149 q 650 279 633 207 q 667 479 667 351 q 650 681 667 608 q 592 782 633 753 q 478 811 550 811 m 624 1196 q 664 1156 664 1196 l 664 1082 q 624 1042 664 1042 l 563 1042 q 522 1082 522 1042 l 522 1156 q 563 1196 522 1196 l 624 1196 m 393 1196 q 432 1156 432 1196 l 432 1082 q 393 1042 432 1042 l 332 1042 q 292 1082 292 1042 l 292 1156 q 332 1196 292 1196 l 393 1196 m 278 1378 l 678 1378 l 678 1261 l 278 1261 l 278 1378 z "},"Ȱ":{"ha":956,"x_min":65,"x_max":890,"o":"m 478 978 q 671 953 592 978 q 798 873 750 929 q 868 720 846 817 q 890 479 890 624 q 868 240 890 336 q 798 86 846 143 q 671 6 750 29 q 478 -18 592 -18 q 285 6 364 -18 q 157 86 206 29 q 87 240 108 143 q 65 479 65 336 q 87 720 65 624 q 157 873 108 817 q 285 953 206 929 q 478 978 364 978 m 478 811 q 363 782 404 811 q 305 681 322 753 q 288 479 288 608 q 305 279 288 351 q 363 178 322 207 q 478 149 404 149 q 592 178 550 149 q 650 279 633 207 q 667 479 667 351 q 650 681 667 608 q 592 782 633 753 q 478 811 550 811 m 289 1378 l 667 1378 l 667 1261 l 289 1261 l 289 1378 m 504 1204 q 560 1153 560 1204 l 560 1086 q 547 1047 560 1061 q 506 1033 533 1033 l 449 1033 q 394 1086 394 1033 l 394 1153 q 449 1204 394 1204 l 504 1204 z "},"Ọ":{"ha":956,"x_min":65,"x_max":890,"o":"m 478 978 q 671 953 592 978 q 798 873 750 929 q 868 720 846 817 q 890 479 890 624 q 868 240 890 336 q 798 86 846 143 q 671 6 750 29 q 478 -18 592 -18 q 285 6 364 -18 q 157 86 206 29 q 87 240 108 143 q 65 479 65 336 q 87 720 65 624 q 157 873 108 817 q 285 953 206 929 q 478 978 364 978 m 478 811 q 363 782 404 811 q 305 681 322 753 q 288 479 288 608 q 305 279 288 351 q 363 178 322 207 q 478 149 404 149 q 592 178 550 149 q 650 279 633 207 q 667 479 667 351 q 650 681 667 608 q 592 782 633 753 q 478 811 550 811 m 508 -62 q 568 -119 568 -62 l 568 -192 q 508 -250 568 -250 l 444 -250 q 386 -192 386 -250 l 386 -119 q 444 -62 386 -62 l 508 -62 z "},"Ò":{"ha":956,"x_min":65,"x_max":890,"o":"m 478 978 q 671 953 592 978 q 798 873 750 929 q 868 720 846 817 q 890 479 890 624 q 868 240 890 336 q 798 86 846 143 q 671 6 750 29 q 478 -18 592 -18 q 285 6 364 -18 q 157 86 206 29 q 87 240 108 143 q 65 479 65 336 q 87 720 65 624 q 157 873 108 817 q 285 953 206 929 q 478 978 364 978 m 478 811 q 363 782 404 811 q 305 681 322 753 q 288 479 288 608 q 305 279 288 351 q 363 178 322 207 q 478 149 404 149 q 592 178 550 149 q 650 279 633 207 q 667 479 667 351 q 650 681 667 608 q 592 782 633 753 q 478 811 550 811 m 306 1313 l 588 1107 l 528 1021 l 217 1175 l 306 1313 z "},"Ỏ":{"ha":956,"x_min":65,"x_max":890,"o":"m 478 978 q 671 953 592 978 q 798 873 750 929 q 868 720 846 817 q 890 479 890 624 q 868 240 890 336 q 798 86 846 143 q 671 6 750 29 q 478 -18 592 -18 q 285 6 364 -18 q 157 86 206 29 q 87 240 108 143 q 65 479 65 336 q 87 720 65 624 q 157 873 108 817 q 285 953 206 929 q 478 978 364 978 m 478 811 q 363 782 404 811 q 305 681 322 753 q 288 479 288 608 q 305 279 288 351 q 363 178 322 207 q 478 149 404 149 q 592 178 550 149 q 650 279 633 207 q 667 479 667 351 q 650 681 667 608 q 592 782 633 753 q 478 811 550 811 m 439 1111 q 493 1140 476 1122 q 510 1190 510 1158 q 481 1234 510 1225 q 413 1228 451 1243 l 392 1326 q 513 1340 460 1350 q 598 1294 567 1331 q 629 1196 629 1257 q 607 1110 629 1146 q 547 1051 585 1074 q 460 1021 508 1029 l 439 1111 z "},"Ơ":{"ha":975,"x_min":65,"x_max":1001,"o":"m 478 978 q 671 953 592 978 q 798 873 750 929 q 868 720 846 817 q 890 479 890 624 q 868 240 890 336 q 798 86 846 143 q 671 6 750 29 q 478 -18 592 -18 q 285 6 364 -18 q 157 86 206 29 q 87 240 108 143 q 65 479 65 336 q 87 719 65 624 q 157 872 108 815 q 285 953 206 929 q 478 978 364 978 m 478 811 q 363 782 404 811 q 305 681 322 753 q 288 479 288 608 q 305 279 288 351 q 363 178 322 207 q 478 149 404 149 q 592 178 550 149 q 650 279 633 207 q 667 479 667 351 q 650 681 667 608 q 592 782 633 753 q 478 811 550 811 m 769 797 l 764 885 q 842 925 814 892 q 874 1010 869 958 l 1001 1003 q 969 890 1000 936 q 885 819 938 843 q 769 797 833 796 z "},"Ớ":{"ha":975,"x_min":65,"x_max":1001,"o":"m 478 978 q 671 953 592 978 q 798 873 750 929 q 868 720 846 817 q 890 479 890 624 q 868 240 890 336 q 798 86 846 143 q 671 6 750 29 q 478 -18 592 -18 q 285 6 364 -18 q 157 86 206 29 q 87 240 108 143 q 65 479 65 336 q 87 719 65 624 q 157 872 108 815 q 285 953 206 929 q 478 978 364 978 m 478 811 q 363 782 404 811 q 305 681 322 753 q 288 479 288 608 q 305 279 288 351 q 363 178 322 207 q 478 149 404 149 q 592 178 550 149 q 650 279 633 207 q 667 479 667 351 q 650 681 667 608 q 592 782 633 753 q 478 811 550 811 m 769 797 l 764 885 q 842 925 814 892 q 874 1010 869 958 l 1001 1003 q 969 890 1000 936 q 885 819 938 843 q 769 797 833 796 m 640 1301 l 729 1164 l 419 1008 l 360 1096 l 640 1301 z "},"Ợ":{"ha":975,"x_min":65,"x_max":1001,"o":"m 478 978 q 671 953 592 978 q 798 873 750 929 q 868 720 846 817 q 890 479 890 624 q 868 240 890 336 q 798 86 846 143 q 671 6 750 29 q 478 -18 592 -18 q 285 6 364 -18 q 157 86 206 29 q 87 240 108 143 q 65 479 65 336 q 87 719 65 624 q 157 872 108 815 q 285 953 206 929 q 478 978 364 978 m 478 811 q 363 782 404 811 q 305 681 322 753 q 288 479 288 608 q 305 279 288 351 q 363 178 322 207 q 478 149 404 149 q 592 178 550 149 q 650 279 633 207 q 667 479 667 351 q 650 681 667 608 q 592 782 633 753 q 478 811 550 811 m 769 797 l 764 885 q 842 925 814 892 q 874 1010 869 958 l 1001 1003 q 969 890 1000 936 q 885 819 938 843 q 769 797 833 796 m 507 -58 q 565 -115 565 -58 l 565 -187 q 507 -244 565 -244 l 444 -244 q 385 -187 385 -244 l 385 -115 q 444 -58 385 -58 l 507 -58 z "},"Ờ":{"ha":975,"x_min":65,"x_max":1001,"o":"m 478 978 q 671 953 592 978 q 798 873 750 929 q 868 720 846 817 q 890 479 890 624 q 868 240 890 336 q 798 86 846 143 q 671 6 750 29 q 478 -18 592 -18 q 285 6 364 -18 q 157 86 206 29 q 87 240 108 143 q 65 479 65 336 q 87 719 65 624 q 157 872 108 815 q 285 953 206 929 q 478 978 364 978 m 478 811 q 363 782 404 811 q 305 681 322 753 q 288 479 288 608 q 305 279 288 351 q 363 178 322 207 q 478 149 404 149 q 592 178 550 149 q 650 279 633 207 q 667 479 667 351 q 650 681 667 608 q 592 782 633 753 q 478 811 550 811 m 769 797 l 764 885 q 842 925 814 892 q 874 1010 869 958 l 1001 1003 q 969 890 1000 936 q 885 819 938 843 q 769 797 833 796 m 307 1310 l 589 1104 l 529 1018 l 218 1172 l 307 1310 z "},"Ở":{"ha":975,"x_min":65,"x_max":1001,"o":"m 478 978 q 671 953 592 978 q 798 873 750 929 q 868 720 846 817 q 890 479 890 624 q 868 240 890 336 q 798 86 846 143 q 671 6 750 29 q 478 -18 592 -18 q 285 6 364 -18 q 157 86 206 29 q 87 240 108 143 q 65 479 65 336 q 87 719 65 624 q 157 872 108 815 q 285 953 206 929 q 478 978 364 978 m 478 811 q 363 782 404 811 q 305 681 322 753 q 288 479 288 608 q 305 279 288 351 q 363 178 322 207 q 478 149 404 149 q 592 178 550 149 q 650 279 633 207 q 667 479 667 351 q 650 681 667 608 q 592 782 633 753 q 478 811 550 811 m 769 797 l 764 885 q 842 925 814 892 q 874 1010 869 958 l 1001 1003 q 969 890 1000 936 q 885 819 938 843 q 769 797 833 796 m 440 1108 q 494 1138 478 1119 q 511 1188 511 1156 q 482 1231 511 1222 q 414 1225 453 1240 l 393 1324 q 515 1338 461 1347 q 599 1291 568 1328 q 631 1193 631 1254 q 608 1107 631 1143 q 548 1049 586 1071 q 461 1018 510 1026 l 440 1108 z "},"Ỡ":{"ha":975,"x_min":65,"x_max":1001,"o":"m 478 978 q 671 953 592 978 q 798 873 750 929 q 868 720 846 817 q 890 479 890 624 q 868 240 890 336 q 798 86 846 143 q 671 6 750 29 q 478 -18 592 -18 q 285 6 364 -18 q 157 86 206 29 q 87 240 108 143 q 65 479 65 336 q 87 719 65 624 q 157 872 108 815 q 285 953 206 929 q 478 978 364 978 m 478 811 q 363 782 404 811 q 305 681 322 753 q 288 479 288 608 q 305 279 288 351 q 363 178 322 207 q 478 149 404 149 q 592 178 550 149 q 650 279 633 207 q 667 479 667 351 q 650 681 667 608 q 592 782 633 753 q 478 811 550 811 m 769 797 l 764 885 q 842 925 814 892 q 874 1010 869 958 l 1001 1003 q 969 890 1000 936 q 885 819 938 843 q 769 797 833 796 m 351 1249 q 413 1237 385 1246 q 467 1217 442 1228 q 519 1195 493 1206 q 572 1181 544 1185 q 617 1190 608 1175 q 626 1242 626 1206 l 714 1242 q 695 1093 729 1144 q 601 1046 661 1042 q 516 1065 554 1050 q 444 1096 478 1081 q 378 1115 411 1111 q 335 1105 343 1121 q 326 1051 326 1089 l 238 1051 q 242 1165 228 1121 q 286 1231 256 1210 q 351 1249 317 1251 z "},"Ő":{"ha":956,"x_min":65,"x_max":890,"o":"m 478 978 q 671 953 592 978 q 798 873 750 929 q 868 720 846 817 q 890 479 890 624 q 868 240 890 336 q 798 86 846 143 q 671 6 750 29 q 478 -18 592 -18 q 285 6 364 -18 q 157 86 206 29 q 87 240 108 143 q 65 479 65 336 q 87 720 65 624 q 157 873 108 817 q 285 953 206 929 q 478 978 364 978 m 478 811 q 363 782 404 811 q 305 681 322 753 q 288 479 288 608 q 305 279 288 351 q 363 178 322 207 q 478 149 404 149 q 592 178 550 149 q 650 279 633 207 q 667 479 667 351 q 650 681 667 608 q 592 782 633 753 q 478 811 550 811 m 403 1319 l 536 1232 l 325 999 l 242 1064 l 403 1319 m 667 1319 l 799 1232 l 588 999 l 504 1064 l 667 1319 z "},"Ȏ":{"ha":956,"x_min":65,"x_max":890,"o":"m 478 978 q 671 953 592 978 q 798 873 750 929 q 868 720 846 817 q 890 479 890 624 q 868 240 890 336 q 798 86 846 143 q 671 6 750 29 q 478 -18 592 -18 q 285 6 364 -18 q 157 86 206 29 q 87 240 108 143 q 65 479 65 336 q 87 720 65 624 q 157 873 108 817 q 285 953 206 929 q 478 978 364 978 m 478 811 q 363 782 404 811 q 305 681 322 753 q 288 479 288 608 q 305 279 288 351 q 363 178 322 207 q 478 149 404 149 q 592 178 550 149 q 650 279 633 207 q 667 479 667 351 q 650 681 667 608 q 592 782 633 753 q 478 811 550 811 m 347 1035 l 250 1049 q 268 1155 243 1107 q 347 1231 293 1203 q 476 1260 401 1260 q 608 1231 554 1260 q 688 1155 661 1203 q 706 1049 714 1107 l 608 1035 q 576 1105 608 1082 q 476 1128 544 1128 q 379 1105 411 1128 q 347 1035 347 1082 z "},"Ō":{"ha":956,"x_min":65,"x_max":890,"o":"m 478 978 q 671 953 592 978 q 798 873 750 929 q 868 720 846 817 q 890 479 890 624 q 868 240 890 336 q 798 86 846 143 q 671 6 750 29 q 478 -18 592 -18 q 285 6 364 -18 q 157 86 206 29 q 87 240 108 143 q 65 479 65 336 q 87 720 65 624 q 157 873 108 817 q 285 953 206 929 q 478 978 364 978 m 478 811 q 363 782 404 811 q 305 681 322 753 q 288 479 288 608 q 305 279 288 351 q 363 178 322 207 q 478 149 404 149 q 592 178 550 149 q 650 279 633 207 q 667 479 667 351 q 650 681 667 608 q 592 782 633 753 q 478 811 550 811 m 688 1213 l 688 1083 l 272 1083 l 272 1213 l 688 1213 z "},"Ṓ":{"ha":956,"x_min":65,"x_max":890,"o":"m 478 978 q 671 953 592 978 q 798 873 750 929 q 868 720 846 817 q 890 479 890 624 q 868 240 890 336 q 798 86 846 143 q 671 6 750 29 q 478 -18 592 -18 q 285 6 364 -18 q 157 86 206 29 q 87 240 108 143 q 65 479 65 336 q 87 720 65 624 q 157 873 108 817 q 285 953 206 929 q 478 978 364 978 m 478 811 q 363 782 404 811 q 305 681 322 753 q 288 479 288 608 q 305 279 288 351 q 363 178 322 207 q 478 149 404 149 q 592 178 550 149 q 650 279 633 207 q 667 479 667 351 q 650 681 667 608 q 592 782 633 753 q 478 811 550 811 m 688 1181 l 688 1051 l 272 1051 l 272 1181 l 688 1181 m 557 1476 l 650 1357 l 422 1225 l 361 1299 l 557 1476 z "},"Ṑ":{"ha":956,"x_min":65,"x_max":890,"o":"m 478 978 q 671 953 592 978 q 798 873 750 929 q 868 720 846 817 q 890 479 890 624 q 868 240 890 336 q 798 86 846 143 q 671 6 750 29 q 478 -18 592 -18 q 285 6 364 -18 q 157 86 206 29 q 87 240 108 143 q 65 479 65 336 q 87 720 65 624 q 157 873 108 817 q 285 953 206 929 q 478 978 364 978 m 478 811 q 363 782 404 811 q 305 681 322 753 q 288 479 288 608 q 305 279 288 351 q 363 178 322 207 q 478 149 404 149 q 592 178 550 149 q 650 279 633 207 q 667 479 667 351 q 650 681 667 608 q 592 782 633 753 q 478 811 550 811 m 271 1181 l 686 1181 l 686 1051 l 271 1051 l 271 1181 m 400 1476 l 597 1299 l 535 1225 l 307 1357 l 400 1476 z "},"Ǫ":{"ha":956,"x_min":65,"x_max":890,"o":"m 478 978 q 671 953 592 978 q 798 873 750 929 q 868 720 846 817 q 890 479 890 624 q 868 240 890 336 q 798 86 846 143 q 671 6 750 29 q 478 -18 592 -18 q 285 6 364 -18 q 157 86 206 29 q 87 240 108 143 q 65 479 65 336 q 87 720 65 624 q 157 873 108 817 q 285 953 206 929 q 478 978 364 978 m 478 811 q 363 782 404 811 q 305 681 322 753 q 288 479 288 608 q 305 279 288 351 q 363 178 322 207 q 478 149 404 149 q 592 178 550 149 q 650 279 633 207 q 667 479 667 351 q 650 681 667 608 q 592 782 633 753 q 478 811 550 811 m 461 3 l 543 0 q 498 -65 519 -32 q 458 -139 476 -99 q 467 -194 439 -183 q 546 -193 494 -206 l 561 -267 q 435 -297 486 -297 q 353 -277 383 -297 q 316 -224 324 -257 q 321 -154 308 -190 q 365 -79 332 -119 q 461 3 399 -39 z "},"Ø":{"ha":956,"x_min":65,"x_max":890,"o":"m 694 1047 l 767 1015 l 250 -89 l 179 -57 l 694 1047 m 478 978 q 671 953 592 978 q 798 873 750 929 q 868 720 846 817 q 890 479 890 624 q 868 240 890 336 q 798 86 846 143 q 671 6 750 29 q 478 -18 592 -18 q 285 6 364 -18 q 157 86 206 29 q 87 240 108 143 q 65 479 65 336 q 87 720 65 624 q 157 873 108 817 q 285 953 206 929 q 478 978 364 978 m 478 811 q 363 782 404 811 q 305 681 322 753 q 288 479 288 608 q 305 279 288 351 q 363 178 322 207 q 478 149 404 149 q 592 178 550 149 q 650 279 633 207 q 667 479 667 351 q 650 681 667 608 q 592 782 633 753 q 478 811 550 811 z "},"Ǿ":{"ha":956,"x_min":65,"x_max":890,"o":"m 694 1047 l 767 1015 l 250 -89 l 179 -57 l 694 1047 m 478 978 q 671 953 592 978 q 798 873 750 929 q 868 720 846 817 q 890 479 890 624 q 868 240 890 336 q 798 86 846 143 q 671 6 750 29 q 478 -18 592 -18 q 285 6 364 -18 q 157 86 206 29 q 87 240 108 143 q 65 479 65 336 q 87 720 65 624 q 157 873 108 817 q 285 953 206 929 q 478 978 364 978 m 478 811 q 363 782 404 811 q 305 681 322 753 q 288 479 288 608 q 305 279 288 351 q 363 178 322 207 q 478 149 404 149 q 592 178 550 149 q 650 279 633 207 q 667 479 667 351 q 650 681 667 608 q 592 782 633 753 q 478 811 550 811 m 639 1313 l 728 1175 l 418 1021 l 357 1107 l 639 1313 z "},"Õ":{"ha":956,"x_min":65,"x_max":890,"o":"m 478 978 q 671 953 592 978 q 798 873 750 929 q 868 720 846 817 q 890 479 890 624 q 868 240 890 336 q 798 86 846 143 q 671 6 750 29 q 478 -18 592 -18 q 285 6 364 -18 q 157 86 206 29 q 87 240 108 143 q 65 479 65 336 q 87 720 65 624 q 157 873 108 817 q 285 953 206 929 q 478 978 364 978 m 478 811 q 363 782 404 811 q 305 681 322 753 q 288 479 288 608 q 305 279 288 351 q 363 178 322 207 q 478 149 404 149 q 592 178 550 149 q 650 279 633 207 q 667 479 667 351 q 650 681 667 608 q 592 782 633 753 q 478 811 550 811 m 349 1250 q 411 1238 383 1247 q 465 1218 439 1229 q 516 1197 490 1207 q 569 1182 542 1186 q 615 1192 606 1176 q 624 1243 624 1207 l 713 1243 q 693 1094 728 1146 q 599 1047 658 1043 q 513 1067 551 1051 q 442 1097 475 1082 q 376 1117 410 1113 q 333 1106 342 1122 q 324 1053 324 1090 l 236 1053 q 240 1167 225 1122 q 284 1232 254 1211 q 349 1250 314 1253 z "},"Ṍ":{"ha":956,"x_min":65,"x_max":890,"o":"m 478 978 q 671 953 592 978 q 798 873 750 929 q 868 720 846 817 q 890 479 890 624 q 868 240 890 336 q 798 86 846 143 q 671 6 750 29 q 478 -18 592 -18 q 285 6 364 -18 q 157 86 206 29 q 87 240 108 143 q 65 479 65 336 q 87 720 65 624 q 157 873 108 817 q 285 953 206 929 q 478 978 364 978 m 478 811 q 363 782 404 811 q 305 681 322 753 q 288 479 288 608 q 305 279 288 351 q 363 178 322 207 q 478 149 404 149 q 592 178 550 149 q 650 279 633 207 q 667 479 667 351 q 650 681 667 608 q 592 782 633 753 q 478 811 550 811 m 349 1244 q 411 1233 383 1242 q 465 1213 439 1225 q 516 1191 490 1201 q 569 1176 542 1181 q 615 1186 606 1171 q 624 1238 624 1201 l 713 1238 q 693 1090 728 1140 q 599 1043 658 1039 q 513 1062 551 1047 q 442 1092 475 1076 q 376 1113 410 1108 q 333 1101 342 1117 q 324 1047 324 1085 l 236 1047 q 240 1162 225 1117 q 284 1227 254 1207 q 349 1244 314 1247 m 560 1529 l 653 1411 l 425 1278 l 364 1353 l 560 1529 z "},"Ṏ":{"ha":956,"x_min":65,"x_max":890,"o":"m 478 978 q 671 953 592 978 q 798 873 750 929 q 868 720 846 817 q 890 479 890 624 q 868 240 890 336 q 798 86 846 143 q 671 6 750 29 q 478 -18 592 -18 q 285 6 364 -18 q 157 86 206 29 q 87 240 108 143 q 65 479 65 336 q 87 720 65 624 q 157 873 108 817 q 285 953 206 929 q 478 978 364 978 m 478 811 q 363 782 404 811 q 305 681 322 753 q 288 479 288 608 q 305 279 288 351 q 363 178 322 207 q 478 149 404 149 q 592 178 550 149 q 650 279 633 207 q 667 479 667 351 q 650 681 667 608 q 592 782 633 753 q 478 811 550 811 m 349 1244 q 411 1233 383 1242 q 465 1213 439 1225 q 516 1191 490 1201 q 569 1176 542 1181 q 615 1186 606 1171 q 624 1238 624 1201 l 713 1238 q 693 1090 728 1140 q 599 1043 658 1039 q 513 1062 551 1047 q 442 1092 475 1076 q 376 1113 410 1108 q 333 1101 342 1117 q 324 1047 324 1085 l 236 1047 q 240 1162 225 1117 q 284 1227 254 1207 q 349 1244 314 1247 m 332 1457 l 392 1457 q 432 1417 432 1457 l 432 1343 q 392 1303 432 1303 l 332 1303 q 292 1343 292 1303 l 292 1417 q 332 1457 292 1457 m 563 1457 l 624 1457 q 664 1417 664 1457 l 664 1343 q 624 1303 664 1303 l 563 1303 q 524 1343 524 1303 l 524 1417 q 563 1457 524 1457 z "},"Ȭ":{"ha":956,"x_min":65,"x_max":890,"o":"m 478 978 q 671 953 592 978 q 798 873 750 929 q 868 720 846 817 q 890 479 890 624 q 868 240 890 336 q 798 86 846 143 q 671 6 750 29 q 478 -18 592 -18 q 285 6 364 -18 q 157 86 206 29 q 87 240 108 143 q 65 479 65 336 q 87 720 65 624 q 157 873 108 817 q 285 953 206 929 q 478 978 364 978 m 478 811 q 363 782 404 811 q 305 681 322 753 q 288 479 288 608 q 305 279 288 351 q 363 178 322 207 q 478 149 404 149 q 592 178 550 149 q 650 279 633 207 q 667 479 667 351 q 650 681 667 608 q 592 782 633 753 q 478 811 550 811 m 349 1244 q 411 1233 383 1242 q 465 1213 439 1225 q 516 1191 490 1201 q 569 1176 542 1181 q 615 1186 606 1171 q 624 1238 624 1201 l 713 1238 q 693 1090 728 1140 q 599 1043 658 1039 q 513 1062 551 1047 q 442 1092 475 1076 q 376 1113 410 1108 q 333 1101 342 1117 q 324 1047 324 1085 l 236 1047 q 240 1162 225 1117 q 284 1227 254 1207 q 349 1244 314 1247 m 660 1310 l 282 1310 l 282 1426 l 660 1426 l 660 1310 z "},"Œ":{"ha":1317,"x_min":65,"x_max":1261,"o":"m 475 978 q 570 973 528 978 q 651 958 613 968 q 729 932 690 947 l 649 788 q 601 801 625 796 q 546 808 576 806 q 475 811 515 811 q 363 782 403 811 q 306 681 322 753 q 289 479 289 610 q 306 279 289 351 q 363 178 322 207 q 475 149 403 149 q 549 151 518 149 q 603 160 579 154 q 653 176 628 167 l 726 39 q 649 6 688 18 q 569 -12 611 -7 q 475 -18 528 -18 q 284 6 363 -18 q 158 86 206 29 q 88 240 110 143 q 65 479 65 336 q 88 720 65 624 q 158 873 110 817 q 284 953 206 929 q 475 978 363 978 m 817 963 q 969 962 892 963 q 1122 958 1047 961 q 1261 949 1197 956 l 1253 794 l 907 794 q 852 777 871 794 q 833 724 833 760 l 833 235 q 852 182 833 200 q 907 164 871 164 l 1253 164 l 1261 10 q 1120 1 1196 4 q 966 -2 1044 -1 q 811 -3 888 -3 q 674 52 728 -3 q 621 196 621 107 l 621 763 q 676 907 621 851 q 817 963 732 963 m 644 571 l 1201 569 l 1201 428 l 644 426 l 644 571 z "},"P":{"ha":858,"x_min":97,"x_max":817,"o":"m 464 972 q 675 944 599 972 q 784 849 751 917 q 817 658 817 782 q 785 469 817 536 q 683 374 754 401 q 492 347 613 347 q 367 352 428 347 q 253 365 306 357 q 163 383 200 374 q 111 400 126 393 l 115 506 q 285 506 197 506 q 460 506 374 506 q 547 519 515 507 q 592 565 579 532 q 604 658 604 599 q 592 754 604 721 q 547 800 579 788 q 460 813 515 813 q 241 811 332 813 q 117 807 150 810 l 97 958 q 206 968 156 965 q 317 972 257 971 q 464 972 378 972 m 308 958 l 308 0 l 97 0 l 97 958 l 308 958 z "},"Þ":{"ha":851,"x_min":97,"x_max":807,"o":"m 460 796 q 667 768 592 796 q 775 672 743 740 q 807 481 807 604 q 776 290 807 358 q 676 195 746 222 q 488 168 606 168 q 363 173 424 168 q 251 186 303 178 q 163 204 200 194 q 113 221 126 214 l 117 326 q 283 326 197 326 q 456 326 369 326 q 539 340 508 328 q 582 386 569 353 q 594 481 594 419 q 582 578 594 544 q 539 624 569 611 q 456 638 508 638 q 240 636 329 638 q 118 631 150 635 l 97 783 q 206 792 156 789 q 315 795 256 794 q 460 796 375 796 m 310 958 l 310 0 l 97 0 l 97 958 l 310 958 z "},"Q":{"ha":956,"x_min":65,"x_max":890,"o":"m 478 978 q 671 953 592 978 q 799 873 750 929 q 869 720 847 817 q 890 479 890 624 q 869 240 890 336 q 799 86 847 143 q 671 6 750 29 q 478 -18 592 -18 q 285 6 364 -18 q 158 86 207 29 q 88 240 110 143 q 65 479 65 336 q 88 720 65 624 q 158 873 110 817 q 285 953 207 929 q 478 978 364 978 m 408 -47 q 603 -108 501 -85 q 821 -147 704 -131 l 765 -331 q 539 -253 640 -299 q 360 -156 438 -207 l 408 -47 m 478 811 q 364 782 406 811 q 306 681 322 753 q 289 479 289 608 q 306 279 289 351 q 364 178 322 207 q 478 149 406 149 q 592 178 551 149 q 651 279 633 207 q 668 479 668 351 q 651 681 668 608 q 592 782 633 753 q 478 811 551 811 z "},"R":{"ha":899,"x_min":97,"x_max":858,"o":"m 465 972 q 670 947 592 972 q 785 860 749 921 q 822 688 822 799 q 805 570 822 621 q 747 489 788 519 q 638 450 707 458 l 638 443 q 690 424 663 439 q 740 378 717 408 q 775 299 764 349 l 858 0 l 636 0 l 563 293 q 525 358 549 340 q 457 375 501 375 q 299 376 363 376 q 191 378 235 376 q 111 381 147 379 l 115 535 l 461 535 q 550 547 518 535 q 596 589 582 558 q 610 675 610 619 q 596 760 610 731 q 550 801 582 789 q 461 813 518 813 q 241 811 332 813 q 118 808 150 810 l 97 958 q 206 968 156 965 q 318 972 257 971 q 465 972 379 972 m 306 958 l 306 0 l 97 0 l 97 958 l 306 958 z "},"Ŕ":{"ha":899,"x_min":97,"x_max":858,"o":"m 465 972 q 670 947 592 972 q 785 860 749 921 q 822 688 822 799 q 805 570 822 621 q 747 489 788 519 q 638 450 707 458 l 638 443 q 690 424 663 439 q 740 378 717 408 q 775 299 764 349 l 858 0 l 636 0 l 563 293 q 525 358 549 340 q 457 375 501 375 q 299 376 363 376 q 191 378 235 376 q 111 381 147 379 l 115 535 l 461 535 q 550 547 518 535 q 596 589 582 558 q 610 675 610 619 q 596 760 610 731 q 550 801 582 789 q 461 813 518 813 q 241 811 332 813 q 118 808 150 810 l 97 958 q 206 968 156 965 q 318 972 257 971 q 465 972 379 972 m 306 958 l 306 0 l 97 0 l 97 958 l 306 958 m 601 1304 l 690 1167 l 381 1011 l 321 1099 l 601 1304 z "},"Ř":{"ha":899,"x_min":97,"x_max":858,"o":"m 465 972 q 670 947 592 972 q 785 860 749 921 q 822 688 822 799 q 805 570 822 621 q 747 489 788 519 q 638 450 707 458 l 638 443 q 690 424 663 439 q 740 378 717 408 q 775 299 764 349 l 858 0 l 636 0 l 563 293 q 525 358 549 340 q 457 375 501 375 q 299 376 363 376 q 191 378 235 376 q 111 381 147 379 l 115 535 l 461 535 q 550 547 518 535 q 596 589 582 558 q 610 675 610 619 q 596 760 610 731 q 550 801 582 789 q 461 813 518 813 q 241 811 332 813 q 118 808 150 810 l 97 958 q 206 968 156 965 q 318 972 257 971 q 465 972 379 972 m 306 958 l 306 0 l 97 0 l 97 958 l 306 958 m 642 1289 l 696 1211 l 483 1031 l 399 1031 l 186 1211 l 240 1289 l 436 1176 l 447 1176 l 642 1289 z "},"Ŗ":{"ha":899,"x_min":97,"x_max":858,"o":"m 465 972 q 670 947 592 972 q 785 860 749 921 q 822 688 822 799 q 805 570 822 621 q 747 489 788 519 q 638 450 707 458 l 638 443 q 690 424 663 439 q 740 378 717 408 q 775 299 764 349 l 858 0 l 636 0 l 563 293 q 525 358 549 340 q 457 375 501 375 q 299 376 363 376 q 191 378 235 376 q 111 381 147 379 l 115 535 l 461 535 q 550 547 518 535 q 596 589 582 558 q 610 675 610 619 q 596 760 610 731 q 550 801 582 789 q 461 813 518 813 q 241 811 332 813 q 118 808 150 810 l 97 958 q 206 968 156 965 q 318 972 257 971 q 465 972 379 972 m 306 958 l 306 0 l 97 0 l 97 958 l 306 958 m 490 -74 q 540 -86 526 -74 q 556 -131 554 -99 l 556 -201 q 538 -314 554 -267 q 490 -404 521 -361 l 415 -383 q 431 -315 426 -349 q 435 -240 435 -281 q 381 -190 382 -240 l 383 -131 q 398 -86 383 -99 q 449 -74 413 -74 l 490 -74 z "},"Ȑ":{"ha":899,"x_min":97,"x_max":858,"o":"m 465 972 q 670 947 592 972 q 785 860 749 921 q 822 688 822 799 q 805 570 822 621 q 747 489 788 519 q 638 450 707 458 l 638 443 q 690 424 663 439 q 740 378 717 408 q 775 299 764 349 l 858 0 l 636 0 l 563 293 q 525 358 549 340 q 457 375 501 375 q 299 376 363 376 q 191 378 235 376 q 111 381 147 379 l 115 535 l 461 535 q 550 547 518 535 q 596 589 582 558 q 610 675 610 619 q 596 760 610 731 q 550 801 582 789 q 461 813 518 813 q 241 811 332 813 q 118 808 150 810 l 97 958 q 206 968 156 965 q 318 972 257 971 q 465 972 379 972 m 306 958 l 306 0 l 97 0 l 97 958 l 306 958 m 499 1333 l 660 1078 l 576 1013 l 365 1246 l 499 1333 m 235 1333 l 396 1078 l 314 1013 l 103 1246 l 235 1333 z "},"Ṛ":{"ha":899,"x_min":97,"x_max":858,"o":"m 465 972 q 670 947 592 972 q 785 860 749 921 q 822 688 822 799 q 805 570 822 621 q 747 489 788 519 q 638 450 707 458 l 638 443 q 690 424 663 439 q 740 378 717 408 q 775 299 764 349 l 858 0 l 636 0 l 563 293 q 525 358 549 340 q 457 375 501 375 q 299 376 363 376 q 191 378 235 376 q 111 381 147 379 l 115 535 l 461 535 q 550 547 518 535 q 596 589 582 558 q 610 675 610 619 q 596 760 610 731 q 550 801 582 789 q 461 813 518 813 q 241 811 332 813 q 118 808 150 810 l 97 958 q 206 968 156 965 q 318 972 257 971 q 465 972 379 972 m 306 958 l 306 0 l 97 0 l 97 958 l 306 958 m 482 -67 q 540 -124 540 -67 l 540 -196 q 482 -253 540 -253 l 419 -253 q 360 -196 360 -253 l 360 -124 q 419 -67 360 -67 l 482 -67 z "},"Ȓ":{"ha":899,"x_min":97,"x_max":858,"o":"m 465 972 q 670 947 592 972 q 785 860 749 921 q 822 688 822 799 q 805 570 822 621 q 747 489 788 519 q 638 450 707 458 l 638 443 q 690 424 663 439 q 740 378 717 408 q 775 299 764 349 l 858 0 l 636 0 l 563 293 q 525 358 549 340 q 457 375 501 375 q 299 376 363 376 q 191 378 235 376 q 111 381 147 379 l 115 535 l 461 535 q 550 547 518 535 q 596 589 582 558 q 610 675 610 619 q 596 760 610 731 q 550 801 582 789 q 461 813 518 813 q 241 811 332 813 q 118 808 150 810 l 97 958 q 206 968 156 965 q 318 972 257 971 q 465 972 379 972 m 306 958 l 306 0 l 97 0 l 97 958 l 306 958 m 308 1035 l 211 1049 q 229 1155 204 1107 q 308 1231 254 1203 q 438 1260 363 1260 q 569 1231 515 1260 q 649 1155 622 1203 q 667 1049 675 1107 l 569 1035 q 538 1105 569 1082 q 438 1128 506 1128 q 340 1105 372 1128 q 308 1035 308 1082 z "},"Ṟ":{"ha":899,"x_min":97,"x_max":858,"o":"m 465 972 q 670 947 592 972 q 785 860 749 921 q 822 688 822 799 q 805 570 822 621 q 747 489 788 519 q 638 450 707 458 l 638 443 q 690 424 663 439 q 740 378 717 408 q 775 299 764 349 l 858 0 l 636 0 l 563 293 q 525 358 549 340 q 457 375 501 375 q 299 376 363 376 q 191 378 235 376 q 111 381 147 379 l 115 535 l 461 535 q 550 547 518 535 q 596 589 582 558 q 610 675 610 619 q 596 760 610 731 q 550 801 582 789 q 461 813 518 813 q 241 811 332 813 q 118 808 150 810 l 97 958 q 206 968 156 965 q 318 972 257 971 q 465 972 379 972 m 306 958 l 306 0 l 97 0 l 97 958 l 306 958 m 656 -96 l 656 -225 l 240 -225 l 240 -96 l 656 -96 z "},"S":{"ha":814,"x_min":60,"x_max":761,"o":"m 413 976 q 567 969 483 976 q 729 939 650 961 l 715 797 q 572 801 654 800 q 411 803 490 803 q 345 800 372 803 q 301 789 318 797 q 278 762 285 781 q 271 711 271 743 q 294 640 271 663 q 372 600 317 618 l 557 540 q 717 435 672 501 q 761 260 761 368 q 742 124 761 178 q 681 39 722 69 q 571 -5 639 8 q 404 -18 503 -18 q 269 -12 357 -18 q 71 19 182 -6 l 83 169 q 226 166 167 168 q 329 163 286 164 q 404 163 372 163 q 492 169 461 163 q 536 197 524 176 q 549 257 549 218 q 540 311 549 292 q 510 343 531 331 q 456 365 489 356 l 261 432 q 105 536 150 471 q 60 710 60 601 q 80 844 60 792 q 142 926 100 897 q 251 965 183 954 q 413 976 318 976 z "},"Ś":{"ha":814,"x_min":60,"x_max":761,"o":"m 413 976 q 567 969 483 976 q 729 939 650 961 l 715 797 q 572 801 654 800 q 411 803 490 803 q 345 800 372 803 q 301 789 318 797 q 278 762 285 781 q 271 711 271 743 q 294 640 271 663 q 372 600 317 618 l 557 540 q 717 435 672 501 q 761 260 761 368 q 742 124 761 178 q 681 39 722 69 q 571 -5 639 8 q 404 -18 503 -18 q 269 -12 357 -18 q 71 19 182 -6 l 83 169 q 226 166 167 168 q 329 163 286 164 q 404 163 372 163 q 492 169 461 163 q 536 197 524 176 q 549 257 549 218 q 540 311 549 292 q 510 343 531 331 q 456 365 489 356 l 261 432 q 105 536 150 471 q 60 710 60 601 q 80 844 60 792 q 142 926 100 897 q 251 965 183 954 q 413 976 318 976 m 574 1304 l 663 1167 l 353 1011 l 293 1099 l 574 1304 z "},"Ṥ":{"ha":814,"x_min":60,"x_max":761,"o":"m 413 976 q 567 969 483 976 q 729 939 650 961 l 715 797 q 572 801 654 800 q 411 803 490 803 q 345 800 372 803 q 301 789 318 797 q 278 762 285 781 q 271 711 271 743 q 294 640 271 663 q 372 600 317 618 l 557 540 q 717 435 672 501 q 761 260 761 368 q 742 124 761 178 q 681 39 722 69 q 571 -5 639 8 q 404 -18 503 -18 q 269 -12 357 -18 q 71 19 182 -6 l 83 169 q 226 166 167 168 q 329 163 286 164 q 404 163 372 163 q 492 169 461 163 q 536 197 524 176 q 549 257 549 218 q 540 311 549 292 q 510 343 531 331 q 456 365 489 356 l 261 432 q 105 536 150 471 q 60 710 60 601 q 80 844 60 792 q 142 926 100 897 q 251 965 183 954 q 413 976 318 976 m 454 1478 q 508 1426 508 1478 l 508 1360 q 495 1321 508 1335 q 454 1307 482 1307 l 397 1307 q 343 1360 343 1307 l 343 1426 q 397 1478 343 1478 l 454 1478 m 519 1283 l 604 1153 l 318 1015 l 261 1099 l 519 1283 z "},"Š":{"ha":814,"x_min":60,"x_max":761,"o":"m 413 976 q 567 969 483 976 q 729 939 650 961 l 715 797 q 572 801 654 800 q 411 803 490 803 q 345 800 372 803 q 301 789 318 797 q 278 762 285 781 q 271 711 271 743 q 294 640 271 663 q 372 600 317 618 l 557 540 q 717 435 672 501 q 761 260 761 368 q 742 124 761 178 q 681 39 722 69 q 571 -5 639 8 q 404 -18 503 -18 q 269 -12 357 -18 q 71 19 182 -6 l 83 169 q 226 166 167 168 q 329 163 286 164 q 404 163 372 163 q 492 169 461 163 q 536 197 524 176 q 549 257 549 218 q 540 311 549 292 q 510 343 531 331 q 456 365 489 356 l 261 432 q 105 536 150 471 q 60 710 60 601 q 80 844 60 792 q 142 926 100 897 q 251 965 183 954 q 413 976 318 976 m 614 1289 l 668 1211 l 456 1031 l 371 1031 l 158 1211 l 213 1289 l 408 1176 l 419 1176 l 614 1289 z "},"Ṧ":{"ha":814,"x_min":60,"x_max":761,"o":"m 413 976 q 567 969 483 976 q 729 939 650 961 l 715 797 q 572 801 654 800 q 411 803 490 803 q 345 800 372 803 q 301 789 318 797 q 278 762 285 781 q 271 711 271 743 q 294 640 271 663 q 372 600 317 618 l 557 540 q 717 435 672 501 q 761 260 761 368 q 742 124 761 178 q 681 39 722 69 q 571 -5 639 8 q 404 -18 503 -18 q 269 -12 357 -18 q 71 19 182 -6 l 83 169 q 226 166 167 168 q 329 163 286 164 q 404 163 372 163 q 492 169 461 163 q 536 197 524 176 q 549 257 549 218 q 540 311 549 292 q 510 343 531 331 q 456 365 489 356 l 261 432 q 105 536 150 471 q 60 710 60 601 q 80 844 60 792 q 142 926 100 897 q 251 965 183 954 q 413 976 318 976 m 600 1276 l 654 1199 l 456 1032 l 371 1032 l 172 1199 l 228 1276 l 408 1178 l 419 1178 l 600 1276 m 440 1486 q 494 1433 494 1486 l 494 1368 q 481 1329 494 1343 q 440 1315 468 1315 l 383 1315 q 331 1368 331 1315 l 331 1433 q 383 1486 331 1486 l 440 1486 z "},"Ş":{"ha":814,"x_min":60,"x_max":761,"o":"m 413 976 q 567 969 483 976 q 729 939 650 961 l 715 797 q 572 801 654 800 q 411 803 490 803 q 345 800 372 803 q 301 789 318 797 q 278 762 285 781 q 271 711 271 743 q 294 640 271 663 q 372 600 317 618 l 557 540 q 717 435 672 501 q 761 260 761 368 q 742 124 761 178 q 681 39 722 69 q 571 -5 639 8 q 404 -18 503 -18 q 269 -12 357 -18 q 71 19 182 -6 l 83 169 q 226 166 167 168 q 329 163 286 164 q 404 163 372 163 q 492 169 461 163 q 536 197 524 176 q 549 257 549 218 q 540 311 549 292 q 510 343 531 331 q 456 365 489 356 l 261 432 q 105 536 150 471 q 60 710 60 601 q 80 844 60 792 q 142 926 100 897 q 251 965 183 954 q 413 976 318 976 m 333 -69 q 449 -65 404 -61 q 514 -90 493 -68 q 533 -160 535 -111 q 493 -273 531 -228 q 394 -337 456 -318 q 254 -346 332 -356 l 279 -260 q 366 -242 331 -261 q 404 -176 401 -222 q 389 -152 406 -157 q 314 -147 372 -147 l 333 -69 z "},"Ŝ":{"ha":814,"x_min":60,"x_max":761,"o":"m 413 976 q 567 969 483 976 q 729 939 650 961 l 715 797 q 572 801 654 800 q 411 803 490 803 q 345 800 372 803 q 301 789 318 797 q 278 762 285 781 q 271 711 271 743 q 294 640 271 663 q 372 600 317 618 l 557 540 q 717 435 672 501 q 761 260 761 368 q 742 124 761 178 q 681 39 722 69 q 571 -5 639 8 q 404 -18 503 -18 q 269 -12 357 -18 q 71 19 182 -6 l 83 169 q 226 166 167 168 q 329 163 286 164 q 404 163 372 163 q 492 169 461 163 q 536 197 524 176 q 549 257 549 218 q 540 311 549 292 q 510 343 531 331 q 456 365 489 356 l 261 432 q 105 536 150 471 q 60 710 60 601 q 80 844 60 792 q 142 926 100 897 q 251 965 183 954 q 413 976 318 976 m 488 1268 l 674 1082 l 619 1008 l 419 1140 l 408 1140 l 206 1008 l 150 1088 l 339 1268 l 488 1268 z "},"Ș":{"ha":814,"x_min":60,"x_max":761,"o":"m 413 976 q 567 969 483 976 q 729 939 650 961 l 715 797 q 572 801 654 800 q 411 803 490 803 q 345 800 372 803 q 301 789 318 797 q 278 762 285 781 q 271 711 271 743 q 294 640 271 663 q 372 600 317 618 l 557 540 q 717 435 672 501 q 761 260 761 368 q 742 124 761 178 q 681 39 722 69 q 571 -5 639 8 q 404 -18 503 -18 q 269 -12 357 -18 q 71 19 182 -6 l 83 169 q 226 166 167 168 q 329 163 286 164 q 404 163 372 163 q 492 169 461 163 q 536 197 524 176 q 549 257 549 218 q 540 311 549 292 q 510 343 531 331 q 456 365 489 356 l 261 432 q 105 536 150 471 q 60 710 60 601 q 80 844 60 792 q 142 926 100 897 q 251 965 183 954 q 413 976 318 976 m 410 -74 q 461 -86 447 -74 q 475 -131 475 -99 l 475 -201 q 458 -314 475 -267 q 411 -404 442 -361 l 336 -383 q 350 -315 346 -349 q 356 -240 354 -281 q 301 -190 303 -240 l 303 -131 q 318 -86 303 -99 q 368 -74 333 -74 l 410 -74 z "},"Ṡ":{"ha":814,"x_min":60,"x_max":761,"o":"m 413 976 q 567 969 483 976 q 729 939 650 961 l 715 797 q 572 801 654 800 q 411 803 490 803 q 345 800 372 803 q 301 789 318 797 q 278 762 285 781 q 271 711 271 743 q 294 640 271 663 q 372 600 317 618 l 557 540 q 717 435 672 501 q 761 260 761 368 q 742 124 761 178 q 681 39 722 69 q 571 -5 639 8 q 404 -18 503 -18 q 269 -12 357 -18 q 71 19 182 -6 l 83 169 q 226 166 167 168 q 329 163 286 164 q 404 163 372 163 q 492 169 461 163 q 536 197 524 176 q 549 257 549 218 q 540 311 549 292 q 510 343 531 331 q 456 365 489 356 l 261 432 q 105 536 150 471 q 60 710 60 601 q 80 844 60 792 q 142 926 100 897 q 251 965 183 954 q 413 976 318 976 m 443 1238 q 501 1181 501 1238 l 501 1108 q 443 1050 501 1050 l 381 1050 q 321 1108 321 1050 l 321 1181 q 381 1238 321 1238 l 443 1238 z "},"Ṣ":{"ha":814,"x_min":60,"x_max":761,"o":"m 413 976 q 567 969 483 976 q 729 939 650 961 l 715 797 q 572 801 654 800 q 411 803 490 803 q 345 800 372 803 q 301 789 318 797 q 278 762 285 781 q 271 711 271 743 q 294 640 271 663 q 372 600 317 618 l 557 540 q 717 435 672 501 q 761 260 761 368 q 742 124 761 178 q 681 39 722 69 q 571 -5 639 8 q 404 -18 503 -18 q 269 -12 357 -18 q 71 19 182 -6 l 83 169 q 226 166 167 168 q 329 163 286 164 q 404 163 372 163 q 492 169 461 163 q 536 197 524 176 q 549 257 549 218 q 540 311 549 292 q 510 343 531 331 q 456 365 489 356 l 261 432 q 105 536 150 471 q 60 710 60 601 q 80 844 60 792 q 142 926 100 897 q 251 965 183 954 q 413 976 318 976 m 444 -75 q 503 -132 503 -75 l 503 -204 q 444 -261 503 -261 l 382 -261 q 322 -204 322 -261 l 322 -132 q 382 -75 322 -75 l 444 -75 z "},"Ṩ":{"ha":814,"x_min":60,"x_max":761,"o":"m 413 976 q 567 969 483 976 q 729 939 650 961 l 715 797 q 572 801 654 800 q 411 803 490 803 q 345 800 372 803 q 301 789 318 797 q 278 762 285 781 q 271 711 271 743 q 294 640 271 663 q 372 600 317 618 l 557 540 q 717 435 672 501 q 761 260 761 368 q 742 124 761 178 q 681 39 722 69 q 571 -5 639 8 q 404 -18 503 -18 q 269 -12 357 -18 q 71 19 182 -6 l 83 169 q 226 166 167 168 q 329 163 286 164 q 404 163 372 163 q 492 169 461 163 q 536 197 524 176 q 549 257 549 218 q 540 311 549 292 q 510 343 531 331 q 456 365 489 356 l 261 432 q 105 536 150 471 q 60 710 60 601 q 80 844 60 792 q 142 926 100 897 q 251 965 183 954 q 413 976 318 976 m 443 1238 q 501 1181 501 1238 l 501 1108 q 443 1050 501 1050 l 381 1050 q 321 1108 321 1050 l 321 1181 q 381 1238 321 1238 l 443 1238 m 444 -75 q 503 -132 503 -75 l 503 -204 q 444 -261 503 -261 l 382 -261 q 322 -204 322 -261 l 322 -132 q 382 -75 322 -75 l 444 -75 z "},"ẞ":{"ha":957,"x_min":94,"x_max":936,"o":"m 300 963 q 428 962 356 963 q 578 960 501 961 q 725 956 656 960 q 842 947 794 953 l 832 794 l 382 794 q 325 777 344 794 q 306 724 306 760 l 306 0 l 94 0 l 94 767 q 151 910 94 857 q 300 963 208 963 m 453 539 l 628 794 l 832 794 l 697 606 q 670 574 685 589 q 638 549 656 558 l 638 544 l 701 547 q 831 516 779 549 q 908 424 882 483 q 935 283 933 364 q 905 112 936 179 q 803 13 874 44 q 614 -18 733 -18 q 483 -10 547 -18 q 361 7 419 -3 l 369 147 q 440 140 410 143 q 499 135 469 136 q 565 133 529 133 q 691 163 654 133 q 728 275 728 193 q 716 347 728 318 q 673 389 704 375 q 585 403 642 403 l 453 404 l 453 539 z "},"T":{"ha":836,"x_min":24,"x_max":813,"o":"m 524 958 l 524 0 l 313 0 l 313 958 l 524 958 m 813 958 l 813 792 l 24 792 l 24 958 l 813 958 z "},"Ŧ":{"ha":839,"x_min":25,"x_max":814,"o":"m 703 557 l 703 457 l 135 457 l 135 557 l 703 557 m 525 958 l 525 0 l 314 0 l 314 958 l 525 958 m 814 958 l 814 792 l 25 792 l 25 958 l 814 958 z "},"Ť":{"ha":836,"x_min":24,"x_max":813,"o":"m 524 958 l 524 0 l 313 0 l 313 958 l 524 958 m 813 958 l 813 792 l 24 792 l 24 958 l 813 958 m 619 1289 l 674 1211 l 461 1031 l 376 1031 l 164 1211 l 218 1289 l 414 1176 l 425 1176 l 619 1289 z "},"Ţ":{"ha":836,"x_min":24,"x_max":813,"o":"m 524 958 l 524 0 l 313 0 l 313 958 l 524 958 m 813 958 l 813 792 l 24 792 l 24 958 l 813 958 m 335 -67 q 450 -62 406 -58 q 515 -87 494 -65 q 535 -157 536 -108 q 494 -270 532 -225 q 395 -334 457 -315 q 256 -343 333 -353 l 281 -257 q 367 -239 332 -258 q 406 -174 403 -219 q 390 -149 407 -154 q 315 -144 374 -144 l 335 -67 z "},"Ț":{"ha":836,"x_min":24,"x_max":813,"o":"m 524 958 l 524 0 l 313 0 l 313 958 l 524 958 m 813 958 l 813 792 l 24 792 l 24 958 l 813 958 m 426 -74 q 478 -86 464 -74 q 492 -131 492 -99 l 492 -201 q 475 -314 492 -267 q 428 -404 458 -361 l 353 -383 q 367 -315 363 -349 q 372 -240 371 -281 q 318 -190 319 -240 l 319 -131 q 335 -86 319 -99 q 385 -74 350 -74 l 426 -74 z "},"Ṭ":{"ha":836,"x_min":24,"x_max":813,"o":"m 524 958 l 524 0 l 313 0 l 313 958 l 524 958 m 813 958 l 813 792 l 24 792 l 24 958 l 813 958 m 444 -72 q 503 -129 503 -72 l 503 -201 q 444 -258 503 -258 l 382 -258 q 322 -201 322 -258 l 322 -129 q 382 -72 322 -72 l 444 -72 z "},"Ṯ":{"ha":836,"x_min":24,"x_max":813,"o":"m 524 958 l 524 0 l 313 0 l 313 958 l 524 958 m 813 958 l 813 792 l 24 792 l 24 958 l 813 958 m 618 -101 l 618 -231 l 203 -231 l 203 -101 l 618 -101 z "},"U":{"ha":953,"x_min":90,"x_max":863,"o":"m 863 958 l 863 382 q 826 148 863 236 q 708 21 790 60 q 488 -18 625 -18 q 254 21 342 -18 q 128 148 167 60 q 90 382 90 236 l 90 958 l 301 958 l 301 382 q 317 241 301 292 q 372 169 333 190 q 476 149 411 149 q 581 169 543 149 q 635 241 618 190 q 651 382 651 292 l 651 958 l 863 958 z "},"Ú":{"ha":953,"x_min":90,"x_max":863,"o":"m 863 958 l 863 382 q 826 148 863 236 q 708 21 790 60 q 488 -18 625 -18 q 254 21 342 -18 q 128 148 167 60 q 90 382 90 236 l 90 958 l 301 958 l 301 382 q 317 241 301 292 q 372 169 333 190 q 476 149 411 149 q 581 169 543 149 q 635 241 618 190 q 651 382 651 292 l 651 958 l 863 958 m 639 1304 l 728 1167 l 418 1011 l 358 1099 l 639 1304 z "},"Ŭ":{"ha":953,"x_min":90,"x_max":863,"o":"m 863 958 l 863 382 q 826 148 863 236 q 708 21 790 60 q 488 -18 625 -18 q 254 21 342 -18 q 128 148 167 60 q 90 382 90 236 l 90 958 l 301 958 l 301 382 q 317 241 301 292 q 372 169 333 190 q 476 149 411 149 q 581 169 543 149 q 635 241 618 190 q 651 382 651 292 l 651 958 l 863 958 m 608 1254 l 706 1240 q 688 1135 714 1183 q 608 1058 661 1088 q 478 1029 556 1029 q 349 1058 403 1029 q 269 1135 294 1088 q 250 1240 243 1183 l 347 1254 q 379 1185 347 1208 q 479 1161 411 1161 q 576 1185 544 1161 q 608 1254 608 1208 z "},"Û":{"ha":953,"x_min":90,"x_max":863,"o":"m 863 958 l 863 382 q 826 148 863 236 q 708 21 790 60 q 488 -18 625 -18 q 254 21 342 -18 q 128 148 167 60 q 90 382 90 236 l 90 958 l 301 958 l 301 382 q 317 241 301 292 q 372 169 333 190 q 476 149 411 149 q 581 169 543 149 q 635 241 618 190 q 651 382 651 292 l 651 958 l 863 958 m 553 1268 l 739 1082 l 685 1008 l 485 1140 l 474 1140 l 271 1008 l 215 1088 l 404 1268 l 553 1268 z "},"Ȕ":{"ha":953,"x_min":90,"x_max":863,"o":"m 863 958 l 863 382 q 826 148 863 236 q 708 21 790 60 q 488 -18 625 -18 q 254 21 342 -18 q 128 148 167 60 q 90 382 90 236 l 90 958 l 301 958 l 301 382 q 317 241 301 292 q 372 169 333 190 q 476 149 411 149 q 581 169 543 149 q 635 241 618 190 q 651 382 651 292 l 651 958 l 863 958 m 546 1329 l 708 1075 l 624 1008 l 413 1242 l 546 1329 m 282 1329 l 444 1074 l 361 1008 l 150 1242 l 282 1329 z "},"Ü":{"ha":953,"x_min":90,"x_max":863,"o":"m 863 958 l 863 382 q 826 148 863 236 q 708 21 790 60 q 488 -18 625 -18 q 254 21 342 -18 q 128 148 167 60 q 90 382 90 236 l 90 958 l 301 958 l 301 382 q 317 241 301 292 q 372 169 333 190 q 476 149 411 149 q 581 169 543 149 q 635 241 618 190 q 651 382 651 292 l 651 958 l 863 958 m 638 1233 q 682 1189 682 1233 l 682 1107 q 638 1064 682 1064 l 571 1064 q 526 1107 526 1064 l 526 1189 q 571 1233 526 1233 l 638 1233 m 383 1233 q 426 1189 426 1233 l 426 1107 q 383 1064 426 1064 l 315 1064 q 272 1107 272 1064 l 272 1189 q 315 1233 272 1233 l 383 1233 z "},"Ụ":{"ha":953,"x_min":90,"x_max":863,"o":"m 863 958 l 863 382 q 826 148 863 236 q 708 21 790 60 q 488 -18 625 -18 q 254 21 342 -18 q 128 148 167 60 q 90 382 90 236 l 90 958 l 301 958 l 301 382 q 317 241 301 292 q 372 169 333 190 q 476 149 411 149 q 581 169 543 149 q 635 241 618 190 q 651 382 651 292 l 651 958 l 863 958 m 510 -62 q 569 -119 569 -62 l 569 -192 q 510 -250 569 -250 l 446 -250 q 388 -192 388 -250 l 388 -119 q 446 -62 388 -62 l 510 -62 z "},"Ù":{"ha":953,"x_min":90,"x_max":863,"o":"m 863 958 l 863 382 q 826 148 863 236 q 708 21 790 60 q 488 -18 625 -18 q 254 21 342 -18 q 128 148 167 60 q 90 382 90 236 l 90 958 l 301 958 l 301 382 q 317 241 301 292 q 372 169 333 190 q 476 149 411 149 q 581 169 543 149 q 635 241 618 190 q 651 382 651 292 l 651 958 l 863 958 m 306 1313 l 588 1107 l 528 1021 l 217 1175 l 306 1313 z "},"Ủ":{"ha":953,"x_min":90,"x_max":863,"o":"m 863 958 l 863 382 q 826 148 863 236 q 708 21 790 60 q 488 -18 625 -18 q 254 21 342 -18 q 128 148 167 60 q 90 382 90 236 l 90 958 l 301 958 l 301 382 q 317 241 301 292 q 372 169 333 190 q 476 149 411 149 q 581 169 543 149 q 635 241 618 190 q 651 382 651 292 l 651 958 l 863 958 m 439 1111 q 493 1140 476 1122 q 510 1190 510 1158 q 481 1234 510 1225 q 413 1228 451 1243 l 392 1326 q 513 1340 460 1350 q 598 1294 567 1331 q 629 1196 629 1257 q 607 1110 629 1146 q 547 1051 585 1074 q 460 1021 508 1029 l 439 1111 z "},"Ư":{"ha":1028,"x_min":90,"x_max":1074,"o":"m 863 958 l 863 382 q 826 148 863 236 q 708 21 790 60 q 488 -18 625 -18 q 254 21 342 -18 q 128 148 167 60 q 90 382 90 236 l 90 958 l 301 958 l 301 382 q 317 241 301 292 q 372 169 333 190 q 476 149 411 149 q 581 169 543 149 q 635 241 618 190 q 651 382 651 292 l 651 958 l 863 958 m 842 797 l 836 885 q 914 925 886 892 q 946 1010 942 958 l 1074 1003 q 1041 890 1072 936 q 958 819 1010 843 q 842 797 906 796 z "},"Ứ":{"ha":1028,"x_min":90,"x_max":1074,"o":"m 863 958 l 863 382 q 826 148 863 236 q 708 21 790 60 q 488 -18 625 -18 q 254 21 342 -18 q 128 148 167 60 q 90 382 90 236 l 90 958 l 301 958 l 301 382 q 317 241 301 292 q 372 169 333 190 q 476 149 411 149 q 581 169 543 149 q 635 241 618 190 q 651 382 651 292 l 651 958 l 863 958 m 842 797 l 836 885 q 914 925 886 892 q 946 1010 942 958 l 1074 1003 q 1041 890 1072 936 q 958 819 1010 843 q 842 797 906 796 m 643 1313 l 732 1175 l 422 1021 l 361 1107 l 643 1313 z "},"Ự":{"ha":1028,"x_min":90,"x_max":1074,"o":"m 863 958 l 863 382 q 826 148 863 236 q 708 21 790 60 q 488 -18 625 -18 q 254 21 342 -18 q 128 148 167 60 q 90 382 90 236 l 90 958 l 301 958 l 301 382 q 317 241 301 292 q 372 169 333 190 q 476 149 411 149 q 581 169 543 149 q 635 241 618 190 q 651 382 651 292 l 651 958 l 863 958 m 842 797 l 836 885 q 914 925 886 892 q 946 1010 942 958 l 1074 1003 q 1041 890 1072 936 q 958 819 1010 843 q 842 797 906 796 m 508 -67 q 567 -124 567 -67 l 567 -196 q 508 -253 567 -253 l 446 -253 q 386 -196 386 -253 l 386 -124 q 446 -67 386 -67 l 508 -67 z "},"Ừ":{"ha":1028,"x_min":90,"x_max":1074,"o":"m 863 958 l 863 382 q 826 148 863 236 q 708 21 790 60 q 488 -18 625 -18 q 254 21 342 -18 q 128 148 167 60 q 90 382 90 236 l 90 958 l 301 958 l 301 382 q 317 241 301 292 q 372 169 333 190 q 476 149 411 149 q 581 169 543 149 q 635 241 618 190 q 651 382 651 292 l 651 958 l 863 958 m 842 797 l 836 885 q 914 925 886 892 q 946 1010 942 958 l 1074 1003 q 1041 890 1072 936 q 958 819 1010 843 q 842 797 906 796 m 306 1313 l 588 1107 l 528 1021 l 217 1175 l 306 1313 z "},"Ử":{"ha":1028,"x_min":90,"x_max":1074,"o":"m 863 958 l 863 382 q 826 148 863 236 q 708 21 790 60 q 488 -18 625 -18 q 254 21 342 -18 q 128 148 167 60 q 90 382 90 236 l 90 958 l 301 958 l 301 382 q 317 241 301 292 q 372 169 333 190 q 476 149 411 149 q 581 169 543 149 q 635 241 618 190 q 651 382 651 292 l 651 958 l 863 958 m 842 797 l 836 885 q 914 925 886 892 q 946 1010 942 958 l 1074 1003 q 1041 890 1072 936 q 958 819 1010 843 q 842 797 906 796 m 439 1111 q 493 1140 476 1122 q 510 1190 510 1158 q 481 1234 510 1225 q 413 1228 451 1243 l 392 1326 q 513 1340 460 1350 q 598 1294 567 1331 q 629 1196 629 1257 q 607 1110 629 1146 q 547 1051 585 1074 q 460 1021 508 1029 l 439 1111 z "},"Ữ":{"ha":1028,"x_min":90,"x_max":1074,"o":"m 863 958 l 863 382 q 826 148 863 236 q 708 21 790 60 q 488 -18 625 -18 q 254 21 342 -18 q 128 148 167 60 q 90 382 90 236 l 90 958 l 301 958 l 301 382 q 317 241 301 292 q 372 169 333 190 q 476 149 411 149 q 581 169 543 149 q 635 241 618 190 q 651 382 651 292 l 651 958 l 863 958 m 842 797 l 836 885 q 914 925 886 892 q 946 1010 942 958 l 1074 1003 q 1041 890 1072 936 q 958 819 1010 843 q 842 797 906 796 m 349 1250 q 410 1238 382 1247 q 465 1218 439 1229 q 516 1197 490 1207 q 569 1182 542 1186 q 615 1192 606 1176 q 624 1243 624 1207 l 711 1243 q 692 1094 726 1146 q 599 1047 658 1043 q 513 1067 551 1051 q 442 1097 475 1082 q 375 1117 408 1113 q 332 1106 340 1122 q 324 1053 324 1090 l 235 1053 q 239 1167 225 1122 q 283 1232 253 1211 q 349 1250 314 1253 z "},"Ű":{"ha":953,"x_min":90,"x_max":863,"o":"m 863 958 l 863 382 q 826 148 863 236 q 708 21 790 60 q 488 -18 625 -18 q 254 21 342 -18 q 128 148 167 60 q 90 382 90 236 l 90 958 l 301 958 l 301 382 q 317 241 301 292 q 372 169 333 190 q 476 149 411 149 q 581 169 543 149 q 635 241 618 190 q 651 382 651 292 l 651 958 l 863 958 m 403 1319 l 536 1232 l 325 999 l 242 1064 l 403 1319 m 667 1319 l 799 1232 l 588 999 l 504 1064 l 667 1319 z "},"Ȗ":{"ha":953,"x_min":90,"x_max":863,"o":"m 863 958 l 863 382 q 826 148 863 236 q 708 21 790 60 q 488 -18 625 -18 q 254 21 342 -18 q 128 148 167 60 q 90 382 90 236 l 90 958 l 301 958 l 301 382 q 317 241 301 292 q 372 169 333 190 q 476 149 411 149 q 581 169 543 149 q 635 241 618 190 q 651 382 651 292 l 651 958 l 863 958 m 347 1035 l 250 1049 q 268 1155 243 1107 q 347 1231 293 1203 q 476 1260 401 1260 q 608 1231 554 1260 q 688 1155 661 1203 q 706 1049 714 1107 l 608 1035 q 576 1105 608 1082 q 476 1128 544 1128 q 379 1105 411 1128 q 347 1035 347 1082 z "},"Ū":{"ha":953,"x_min":90,"x_max":863,"o":"m 863 958 l 863 382 q 826 148 863 236 q 708 21 790 60 q 488 -18 625 -18 q 254 21 342 -18 q 128 148 167 60 q 90 382 90 236 l 90 958 l 301 958 l 301 382 q 317 241 301 292 q 372 169 333 190 q 476 149 411 149 q 581 169 543 149 q 635 241 618 190 q 651 382 651 292 l 651 958 l 863 958 m 688 1213 l 688 1083 l 272 1083 l 272 1213 l 688 1213 z "},"Ṻ":{"ha":953,"x_min":90,"x_max":863,"o":"m 863 958 l 863 382 q 826 148 863 236 q 708 21 790 60 q 488 -18 625 -18 q 254 21 342 -18 q 128 148 167 60 q 90 382 90 236 l 90 958 l 301 958 l 301 382 q 317 241 301 292 q 372 169 333 190 q 476 149 411 149 q 581 169 543 149 q 635 241 618 190 q 651 382 651 292 l 651 958 l 863 958 m 563 1401 l 624 1401 q 663 1361 663 1401 l 663 1288 q 624 1247 663 1247 l 563 1247 q 522 1288 522 1247 l 522 1361 q 563 1401 522 1401 m 331 1401 l 392 1401 q 432 1361 432 1401 l 432 1288 q 392 1247 432 1247 l 331 1247 q 290 1288 290 1247 l 290 1361 q 331 1401 290 1401 m 667 1058 l 289 1058 l 289 1175 l 667 1175 l 667 1058 z "},"Ų":{"ha":953,"x_min":90,"x_max":863,"o":"m 863 958 l 863 382 q 826 148 863 236 q 708 21 790 60 q 488 -18 625 -18 q 254 21 342 -18 q 128 148 167 60 q 90 382 90 236 l 90 958 l 301 958 l 301 382 q 317 241 301 292 q 372 169 333 190 q 476 149 411 149 q 581 169 543 149 q 635 241 618 190 q 651 382 651 292 l 651 958 l 863 958 m 464 -3 l 546 -6 q 501 -71 522 -37 q 461 -144 479 -104 q 469 -200 442 -189 q 549 -199 497 -211 l 564 -272 q 438 -303 489 -303 q 356 -283 386 -303 q 319 -229 326 -262 q 324 -160 311 -196 q 368 -85 335 -125 q 464 -3 401 -44 z "},"Ů":{"ha":953,"x_min":90,"x_max":863,"o":"m 863 958 l 863 382 q 826 148 863 236 q 708 21 790 60 q 488 -18 625 -18 q 254 21 342 -18 q 128 148 167 60 q 90 382 90 236 l 90 958 l 301 958 l 301 382 q 317 241 301 292 q 372 169 333 190 q 476 149 411 149 q 581 169 543 149 q 635 241 618 190 q 651 382 651 292 l 651 958 l 863 958 m 479 1317 q 561 1295 524 1317 q 621 1238 599 1274 q 643 1157 643 1201 q 621 1076 643 1113 q 561 1018 599 1039 q 479 997 524 997 q 397 1018 435 997 q 338 1075 360 1039 q 315 1157 315 1111 q 337 1238 315 1201 q 397 1295 358 1274 q 479 1317 435 1317 m 478 1231 q 428 1210 449 1231 q 407 1156 407 1189 q 428 1103 407 1124 q 478 1083 449 1083 q 531 1103 510 1083 q 551 1156 551 1124 q 531 1210 551 1189 q 478 1231 510 1231 z "},"Ũ":{"ha":953,"x_min":90,"x_max":863,"o":"m 863 958 l 863 382 q 826 148 863 236 q 708 21 790 60 q 488 -18 625 -18 q 254 21 342 -18 q 128 148 167 60 q 90 382 90 236 l 90 958 l 301 958 l 301 382 q 317 241 301 292 q 372 169 333 190 q 476 149 411 149 q 581 169 543 149 q 635 241 618 190 q 651 382 651 292 l 651 958 l 863 958 m 349 1250 q 411 1238 383 1247 q 465 1218 439 1229 q 516 1197 490 1207 q 569 1182 542 1186 q 615 1192 606 1176 q 624 1243 624 1207 l 713 1243 q 693 1094 728 1146 q 599 1047 658 1043 q 513 1067 551 1051 q 442 1097 475 1082 q 376 1117 410 1113 q 333 1106 342 1122 q 324 1053 324 1090 l 236 1053 q 240 1167 225 1122 q 284 1232 254 1211 q 349 1250 314 1253 z "},"Ṹ":{"ha":953,"x_min":90,"x_max":863,"o":"m 863 958 l 863 382 q 826 148 863 236 q 708 21 790 60 q 488 -18 625 -18 q 254 21 342 -18 q 128 148 167 60 q 90 382 90 236 l 90 958 l 301 958 l 301 382 q 317 241 301 292 q 372 169 333 190 q 476 149 411 149 q 581 169 543 149 q 635 241 618 190 q 651 382 651 292 l 651 958 l 863 958 m 349 1244 q 411 1233 383 1242 q 465 1213 439 1225 q 516 1191 490 1201 q 569 1176 542 1181 q 615 1186 606 1171 q 624 1238 624 1201 l 713 1238 q 693 1090 728 1140 q 599 1043 658 1039 q 513 1062 551 1047 q 442 1092 475 1076 q 376 1113 410 1108 q 333 1101 342 1117 q 324 1047 324 1085 l 236 1047 q 240 1162 225 1117 q 284 1227 254 1207 q 349 1244 314 1247 m 560 1529 l 653 1411 l 425 1278 l 364 1353 l 560 1529 z "},"V":{"ha":889,"x_min":11,"x_max":878,"o":"m 878 958 l 617 58 q 590 17 610 33 q 542 0 569 0 l 347 0 q 299 17 319 0 q 272 58 279 33 l 11 958 l 229 958 l 404 267 q 416 213 410 240 q 426 160 422 186 l 463 160 q 473 214 467 186 q 486 268 479 242 l 660 958 l 878 958 z "},"W":{"ha":1356,"x_min":36,"x_max":1319,"o":"m 1319 958 l 1163 58 q 1138 17 1158 33 q 1088 0 1117 0 l 890 0 q 840 17 861 0 q 815 60 818 33 l 707 685 q 699 747 703 715 q 690 808 694 778 l 664 808 q 657 746 661 778 q 649 683 653 714 l 542 60 q 516 17 538 33 q 467 0 494 0 l 268 0 q 218 17 239 0 q 193 58 197 33 l 36 958 l 249 958 l 349 292 q 356 226 353 261 q 361 153 358 192 l 388 153 q 399 223 393 186 q 410 292 406 260 l 517 894 q 540 941 519 924 q 590 958 561 958 l 765 958 q 815 941 794 958 q 839 894 835 924 l 946 290 q 957 222 951 257 q 967 153 963 186 l 994 153 q 1001 222 997 186 q 1007 289 1004 258 l 1107 958 l 1319 958 z "},"Ẃ":{"ha":1356,"x_min":36,"x_max":1319,"o":"m 1319 958 l 1163 58 q 1138 17 1158 33 q 1088 0 1117 0 l 890 0 q 840 17 861 0 q 815 60 818 33 l 707 685 q 699 747 703 715 q 690 808 694 778 l 664 808 q 657 746 661 778 q 649 683 653 714 l 542 60 q 516 17 538 33 q 467 0 494 0 l 268 0 q 218 17 239 0 q 193 58 197 33 l 36 958 l 249 958 l 349 292 q 356 226 353 261 q 361 153 358 192 l 388 153 q 399 223 393 186 q 410 292 406 260 l 517 894 q 540 941 519 924 q 590 958 561 958 l 765 958 q 815 941 794 958 q 839 894 835 924 l 946 290 q 957 222 951 257 q 967 153 963 186 l 994 153 q 1001 222 997 186 q 1007 289 1004 258 l 1107 958 l 1319 958 m 840 1303 l 929 1165 l 619 1010 l 560 1097 l 840 1303 z "},"Ŵ":{"ha":1356,"x_min":36,"x_max":1319,"o":"m 1319 958 l 1163 58 q 1138 17 1158 33 q 1088 0 1117 0 l 890 0 q 840 17 861 0 q 815 60 818 33 l 707 685 q 699 747 703 715 q 690 808 694 778 l 664 808 q 657 746 661 778 q 649 683 653 714 l 542 60 q 516 17 538 33 q 467 0 494 0 l 268 0 q 218 17 239 0 q 193 58 197 33 l 36 958 l 249 958 l 349 292 q 356 226 353 261 q 361 153 358 192 l 388 153 q 399 223 393 186 q 410 292 406 260 l 517 894 q 540 941 519 924 q 590 958 561 958 l 765 958 q 815 941 794 958 q 839 894 835 924 l 946 290 q 957 222 951 257 q 967 153 963 186 l 994 153 q 1001 222 997 186 q 1007 289 1004 258 l 1107 958 l 1319 958 m 754 1268 l 940 1082 l 886 1008 l 686 1140 l 675 1140 l 472 1008 l 417 1088 l 606 1268 l 754 1268 z "},"Ẅ":{"ha":1356,"x_min":36,"x_max":1319,"o":"m 1319 958 l 1163 58 q 1138 17 1158 33 q 1088 0 1117 0 l 890 0 q 840 17 861 0 q 815 60 818 33 l 707 685 q 699 747 703 715 q 690 808 694 778 l 664 808 q 657 746 661 778 q 649 683 653 714 l 542 60 q 516 17 538 33 q 467 0 494 0 l 268 0 q 218 17 239 0 q 193 58 197 33 l 36 958 l 249 958 l 349 292 q 356 226 353 261 q 361 153 358 192 l 388 153 q 399 223 393 186 q 410 292 406 260 l 517 894 q 540 941 519 924 q 590 958 561 958 l 765 958 q 815 941 794 958 q 839 894 835 924 l 946 290 q 957 222 951 257 q 967 153 963 186 l 994 153 q 1001 222 997 186 q 1007 289 1004 258 l 1107 958 l 1319 958 m 838 1232 q 882 1188 882 1232 l 882 1106 q 838 1063 882 1063 l 771 1063 q 726 1106 726 1063 l 726 1188 q 771 1232 726 1232 l 838 1232 m 583 1232 q 626 1188 626 1232 l 626 1106 q 583 1063 626 1063 l 515 1063 q 472 1106 472 1063 l 472 1188 q 515 1232 472 1232 l 583 1232 z "},"Ẁ":{"ha":1356,"x_min":36,"x_max":1319,"o":"m 1319 958 l 1163 58 q 1138 17 1158 33 q 1088 0 1117 0 l 890 0 q 840 17 861 0 q 815 60 818 33 l 707 685 q 699 747 703 715 q 690 808 694 778 l 664 808 q 657 746 661 778 q 649 683 653 714 l 542 60 q 516 17 538 33 q 467 0 494 0 l 268 0 q 218 17 239 0 q 193 58 197 33 l 36 958 l 249 958 l 349 292 q 356 226 353 261 q 361 153 358 192 l 388 153 q 399 223 393 186 q 410 292 406 260 l 517 894 q 540 941 519 924 q 590 958 561 958 l 765 958 q 815 941 794 958 q 839 894 835 924 l 946 290 q 957 222 951 257 q 967 153 963 186 l 994 153 q 1001 222 997 186 q 1007 289 1004 258 l 1107 958 l 1319 958 m 507 1311 l 789 1106 l 729 1019 l 418 1174 l 507 1311 z "},"X":{"ha":894,"x_min":14,"x_max":881,"o":"m 863 958 l 626 493 l 881 0 l 665 0 l 425 493 l 647 958 l 863 958 m 247 958 l 469 493 l 231 0 l 14 0 l 268 493 l 33 958 l 247 958 m 550 560 l 550 429 l 332 429 l 332 560 l 550 560 z "},"Y":{"ha":850,"x_min":1,"x_max":849,"o":"m 849 958 l 525 306 l 325 306 l 1 958 l 221 958 l 382 606 q 403 546 394 578 q 418 485 411 514 l 432 485 q 449 546 440 514 q 468 606 457 578 l 629 958 l 849 958 m 531 433 l 531 0 l 319 0 l 319 433 l 531 433 z "},"Ý":{"ha":850,"x_min":1,"x_max":849,"o":"m 849 958 l 525 306 l 325 306 l 1 958 l 221 958 l 382 606 q 403 546 394 578 q 418 485 411 514 l 432 485 q 449 546 440 514 q 468 606 457 578 l 629 958 l 849 958 m 531 433 l 531 0 l 319 0 l 319 433 l 531 433 m 588 1297 l 676 1160 l 367 1004 l 307 1092 l 588 1297 z "},"Ŷ":{"ha":850,"x_min":1,"x_max":849,"o":"m 849 958 l 525 306 l 325 306 l 1 958 l 221 958 l 382 606 q 403 546 394 578 q 418 485 411 514 l 432 485 q 449 546 440 514 q 468 606 457 578 l 629 958 l 849 958 m 531 433 l 531 0 l 319 0 l 319 433 l 531 433 m 501 1261 l 688 1075 l 633 1001 l 433 1133 l 422 1133 l 219 1001 l 164 1081 l 353 1261 l 501 1261 z "},"Ÿ":{"ha":850,"x_min":1,"x_max":849,"o":"m 849 958 l 525 306 l 325 306 l 1 958 l 221 958 l 382 606 q 403 546 394 578 q 418 485 411 514 l 432 485 q 449 546 440 514 q 468 606 457 578 l 629 958 l 849 958 m 531 433 l 531 0 l 319 0 l 319 433 l 531 433 m 586 1226 q 631 1182 631 1226 l 631 1100 q 586 1057 631 1057 l 519 1057 q 475 1100 475 1057 l 475 1182 q 519 1226 475 1226 l 586 1226 m 332 1226 q 375 1182 375 1226 l 375 1100 q 332 1057 375 1057 l 264 1057 q 221 1100 221 1057 l 221 1182 q 264 1226 221 1226 l 332 1226 z "},"Ẏ":{"ha":850,"x_min":1,"x_max":849,"o":"m 849 958 l 525 306 l 325 306 l 1 958 l 221 958 l 382 606 q 403 546 394 578 q 418 485 411 514 l 432 485 q 449 546 440 514 q 468 606 457 578 l 629 958 l 849 958 m 531 433 l 531 0 l 319 0 l 319 433 l 531 433 m 458 1231 q 517 1174 517 1231 l 517 1101 q 458 1043 517 1043 l 396 1043 q 336 1101 336 1043 l 336 1174 q 396 1231 336 1231 l 458 1231 z "},"Ỵ":{"ha":850,"x_min":1,"x_max":849,"o":"m 849 958 l 525 306 l 325 306 l 1 958 l 221 958 l 382 606 q 403 546 394 578 q 418 485 411 514 l 432 485 q 449 546 440 514 q 468 606 457 578 l 629 958 l 849 958 m 531 433 l 531 0 l 319 0 l 319 433 l 531 433 m 458 -67 q 517 -124 517 -67 l 517 -196 q 458 -253 517 -253 l 396 -253 q 336 -196 336 -253 l 336 -124 q 396 -67 336 -67 l 458 -67 z "},"Ỳ":{"ha":850,"x_min":1,"x_max":849,"o":"m 849 958 l 525 306 l 325 306 l 1 958 l 221 958 l 382 606 q 403 546 394 578 q 418 485 411 514 l 432 485 q 449 546 440 514 q 468 606 457 578 l 629 958 l 849 958 m 531 433 l 531 0 l 319 0 l 319 433 l 531 433 m 254 1306 l 536 1100 l 476 1014 l 165 1168 l 254 1306 z "},"Ỷ":{"ha":850,"x_min":1,"x_max":849,"o":"m 849 958 l 525 306 l 325 306 l 1 958 l 221 958 l 382 606 q 403 546 394 578 q 418 485 411 514 l 432 485 q 449 546 440 514 q 468 606 457 578 l 629 958 l 849 958 m 531 433 l 531 0 l 319 0 l 319 433 l 531 433 m 388 1104 q 442 1133 425 1115 q 458 1183 458 1151 q 429 1227 458 1218 q 361 1221 400 1236 l 340 1319 q 462 1333 408 1343 q 547 1287 515 1324 q 578 1189 578 1250 q 556 1103 578 1139 q 495 1044 533 1067 q 408 1014 457 1022 l 388 1104 z "},"Ȳ":{"ha":850,"x_min":1,"x_max":849,"o":"m 849 958 l 525 306 l 325 306 l 1 958 l 221 958 l 382 606 q 403 546 394 578 q 418 485 411 514 l 432 485 q 449 546 440 514 q 468 606 457 578 l 629 958 l 849 958 m 531 433 l 531 0 l 319 0 l 319 433 l 531 433 m 636 1206 l 636 1076 l 221 1076 l 221 1206 l 636 1206 z "},"Ỹ":{"ha":850,"x_min":1,"x_max":849,"o":"m 849 958 l 525 306 l 325 306 l 1 958 l 221 958 l 382 606 q 403 546 394 578 q 418 485 411 514 l 432 485 q 449 546 440 514 q 468 606 457 578 l 629 958 l 849 958 m 531 433 l 531 0 l 319 0 l 319 433 l 531 433 m 297 1243 q 360 1231 332 1240 q 413 1211 388 1222 q 465 1190 439 1200 q 518 1175 490 1179 q 563 1185 554 1169 q 572 1236 572 1200 l 661 1236 q 642 1088 676 1139 q 547 1040 607 1036 q 462 1060 500 1044 q 391 1090 424 1075 q 325 1110 358 1106 q 281 1099 290 1115 q 272 1046 272 1083 l 185 1046 q 188 1160 174 1115 q 233 1225 203 1204 q 297 1243 263 1246 z "},"Z":{"ha":814,"x_min":54,"x_max":761,"o":"m 517 803 l 750 801 l 288 157 l 54 158 l 517 803 m 761 158 l 761 0 l 54 0 l 54 158 l 761 158 m 750 958 l 750 801 l 65 801 l 65 958 l 750 958 z "},"Ź":{"ha":814,"x_min":54,"x_max":761,"o":"m 517 803 l 750 801 l 288 157 l 54 158 l 517 803 m 761 158 l 761 0 l 54 0 l 54 158 l 761 158 m 750 958 l 750 801 l 65 801 l 65 958 l 750 958 m 568 1304 l 657 1167 l 347 1011 l 288 1099 l 568 1304 z "},"Ž":{"ha":814,"x_min":54,"x_max":761,"o":"m 517 803 l 750 801 l 288 157 l 54 158 l 517 803 m 761 158 l 761 0 l 54 0 l 54 158 l 761 158 m 750 958 l 750 801 l 65 801 l 65 958 l 750 958 m 608 1289 l 663 1211 l 450 1031 l 365 1031 l 153 1211 l 207 1289 l 403 1176 l 414 1176 l 608 1289 z "},"Ż":{"ha":814,"x_min":54,"x_max":761,"o":"m 517 803 l 750 801 l 288 157 l 54 158 l 517 803 m 761 158 l 761 0 l 54 0 l 54 158 l 761 158 m 750 958 l 750 801 l 65 801 l 65 958 l 750 958 m 439 1238 q 497 1181 497 1238 l 497 1108 q 439 1050 497 1050 l 376 1050 q 317 1108 317 1050 l 317 1181 q 376 1238 317 1238 l 439 1238 z "},"Ẓ":{"ha":814,"x_min":54,"x_max":761,"o":"m 517 803 l 750 801 l 288 157 l 54 158 l 517 803 m 761 158 l 761 0 l 54 0 l 54 158 l 761 158 m 750 958 l 750 801 l 65 801 l 65 958 l 750 958 m 446 -67 q 504 -124 504 -67 l 504 -196 q 446 -253 504 -253 l 383 -253 q 324 -196 324 -253 l 324 -124 q 383 -67 324 -67 l 446 -67 z "},"a":{"ha":792,"x_min":50,"x_max":714,"o":"m 446 704 q 592 681 532 704 q 683 603 651 658 q 714 454 714 549 l 714 0 l 551 0 l 522 149 l 508 169 l 508 454 q 484 526 507 504 q 399 547 461 547 q 265 544 344 547 q 103 535 186 540 l 85 671 q 199 688 135 681 q 329 699 264 694 q 446 704 394 704 m 629 422 l 628 307 l 322 307 q 269 288 285 306 q 253 239 253 269 l 253 206 q 272 152 253 171 q 335 133 292 133 q 413 149 371 133 q 497 192 456 164 q 572 257 539 219 l 572 168 q 535 116 560 147 q 472 55 510 85 q 385 5 435 25 q 271 -15 335 -15 q 159 6 210 -15 q 79 71 108 28 q 50 178 50 114 l 50 249 q 106 376 50 331 q 258 422 161 422 l 629 422 z "},"á":{"ha":792,"x_min":50,"x_max":714,"o":"m 446 704 q 592 681 532 704 q 683 603 651 658 q 714 454 714 549 l 714 0 l 551 0 l 522 149 l 508 169 l 508 454 q 484 526 507 504 q 399 547 461 547 q 265 544 344 547 q 103 535 186 540 l 85 671 q 199 688 135 681 q 329 699 264 694 q 446 704 394 704 m 629 422 l 628 307 l 322 307 q 269 288 285 306 q 253 239 253 269 l 253 206 q 272 152 253 171 q 335 133 292 133 q 413 149 371 133 q 497 192 456 164 q 572 257 539 219 l 572 168 q 535 116 560 147 q 472 55 510 85 q 385 5 435 25 q 271 -15 335 -15 q 159 6 210 -15 q 79 71 108 28 q 50 178 50 114 l 50 249 q 106 376 50 331 q 258 422 161 422 l 629 422 m 563 1061 l 651 924 l 342 768 l 282 856 l 563 1061 z "},"ă":{"ha":792,"x_min":50,"x_max":714,"o":"m 446 704 q 592 681 532 704 q 683 603 651 658 q 714 454 714 549 l 714 0 l 551 0 l 522 149 l 508 169 l 508 454 q 484 526 507 504 q 399 547 461 547 q 265 544 344 547 q 103 535 186 540 l 85 671 q 199 688 135 681 q 329 699 264 694 q 446 704 394 704 m 629 422 l 628 307 l 322 307 q 269 288 285 306 q 253 239 253 269 l 253 206 q 272 152 253 171 q 335 133 292 133 q 413 149 371 133 q 497 192 456 164 q 572 257 539 219 l 572 168 q 535 116 560 147 q 472 55 510 85 q 385 5 435 25 q 271 -15 335 -15 q 159 6 210 -15 q 79 71 108 28 q 50 178 50 114 l 50 249 q 106 376 50 331 q 258 422 161 422 l 629 422 m 532 1011 l 629 997 q 611 892 638 940 q 532 815 585 844 q 401 786 479 786 q 272 815 326 786 q 192 892 218 844 q 174 997 167 940 l 271 1011 q 303 942 271 965 q 403 918 335 918 q 500 942 468 918 q 532 1011 532 965 z "},"ắ":{"ha":792,"x_min":50,"x_max":714,"o":"m 446 704 q 592 681 532 704 q 683 603 651 658 q 714 454 714 549 l 714 0 l 551 0 l 522 149 l 508 169 l 508 454 q 484 526 507 504 q 399 547 461 547 q 265 544 344 547 q 103 535 186 540 l 85 671 q 199 688 135 681 q 329 699 264 694 q 446 704 394 704 m 629 422 l 628 307 l 322 307 q 269 288 285 306 q 253 239 253 269 l 253 206 q 272 152 253 171 q 335 133 292 133 q 413 149 371 133 q 497 192 456 164 q 572 257 539 219 l 572 168 q 535 116 560 147 q 472 55 510 85 q 385 5 435 25 q 271 -15 335 -15 q 159 6 210 -15 q 79 71 108 28 q 50 178 50 114 l 50 249 q 106 376 50 331 q 258 422 161 422 l 629 422 m 531 1013 l 628 999 q 610 894 636 942 q 531 817 583 846 q 400 788 478 788 q 271 817 325 788 q 191 894 217 846 q 172 999 165 942 l 269 1013 q 301 943 269 967 q 401 919 333 919 q 499 943 467 919 q 531 1013 531 967 m 525 1251 l 607 1125 l 371 1010 l 315 1089 l 525 1251 z "},"ặ":{"ha":792,"x_min":50,"x_max":714,"o":"m 531 1011 l 628 997 q 610 892 635 940 q 531 815 585 844 q 401 786 478 786 q 271 815 325 786 q 191 892 217 844 q 172 997 165 940 l 269 1011 q 301 942 269 965 q 401 918 333 918 q 499 942 467 918 q 531 1011 531 965 m 446 704 q 592 681 532 704 q 683 603 651 658 q 714 454 714 549 l 714 0 l 551 0 l 522 149 l 508 169 l 508 454 q 484 526 507 504 q 399 547 461 547 q 265 544 344 547 q 103 535 186 540 l 85 671 q 199 688 135 681 q 329 699 264 694 q 446 704 394 704 m 629 422 l 628 307 l 322 307 q 269 288 285 306 q 253 239 253 269 l 253 206 q 272 152 253 171 q 335 133 292 133 q 413 149 371 133 q 497 192 456 164 q 572 257 539 219 l 572 168 q 535 116 560 147 q 472 55 510 85 q 385 5 435 25 q 271 -15 335 -15 q 159 6 210 -15 q 79 71 108 28 q 50 178 50 114 l 50 249 q 106 376 50 331 q 258 422 161 422 l 629 422 m 418 -75 q 476 -132 476 -75 l 476 -204 q 418 -261 476 -261 l 356 -261 q 296 -204 296 -261 l 296 -132 q 356 -75 296 -75 l 418 -75 z "},"ằ":{"ha":792,"x_min":50,"x_max":714,"o":"m 446 704 q 592 681 532 704 q 683 603 651 658 q 714 454 714 549 l 714 0 l 551 0 l 522 149 l 508 169 l 508 454 q 484 526 507 504 q 399 547 461 547 q 265 544 344 547 q 103 535 186 540 l 85 671 q 199 688 135 681 q 329 699 264 694 q 446 704 394 704 m 629 422 l 628 307 l 322 307 q 269 288 285 306 q 253 239 253 269 l 253 206 q 272 152 253 171 q 335 133 292 133 q 413 149 371 133 q 497 192 456 164 q 572 257 539 219 l 572 168 q 535 116 560 147 q 472 55 510 85 q 385 5 435 25 q 271 -15 335 -15 q 159 6 210 -15 q 79 71 108 28 q 50 178 50 114 l 50 249 q 106 376 50 331 q 258 422 161 422 l 629 422 m 272 1013 q 304 943 272 967 q 401 919 336 919 q 500 943 468 919 q 532 1013 532 967 l 631 999 q 611 894 638 942 q 531 817 585 846 q 401 788 478 788 q 272 817 325 788 q 192 894 218 846 q 174 999 167 942 l 272 1013 m 276 1251 l 488 1089 l 432 1010 l 194 1125 l 276 1251 z "},"ẳ":{"ha":792,"x_min":50,"x_max":714,"o":"m 446 704 q 592 681 532 704 q 683 603 651 658 q 714 454 714 549 l 714 0 l 551 0 l 522 149 l 508 169 l 508 454 q 484 526 507 504 q 399 547 461 547 q 265 544 344 547 q 103 535 186 540 l 85 671 q 199 688 135 681 q 329 699 264 694 q 446 704 394 704 m 629 422 l 628 307 l 322 307 q 269 288 285 306 q 253 239 253 269 l 253 206 q 272 152 253 171 q 335 133 292 133 q 413 149 371 133 q 497 192 456 164 q 572 257 539 219 l 572 168 q 535 116 560 147 q 472 55 510 85 q 385 5 435 25 q 271 -15 335 -15 q 159 6 210 -15 q 79 71 108 28 q 50 178 50 114 l 50 249 q 106 376 50 331 q 258 422 161 422 l 629 422 m 531 1013 l 628 999 q 610 894 636 942 q 531 817 583 846 q 400 788 478 788 q 271 817 325 788 q 191 894 217 846 q 172 999 165 942 l 269 1013 q 301 943 269 967 q 401 919 333 919 q 499 943 467 919 q 531 1013 531 967 m 361 1082 q 407 1107 392 1092 q 424 1147 422 1122 q 398 1177 424 1174 q 338 1167 372 1181 l 318 1253 q 426 1268 378 1274 q 501 1233 474 1263 q 529 1149 529 1203 q 487 1051 529 1088 q 379 1003 444 1014 l 361 1082 z "},"ẵ":{"ha":792,"x_min":50,"x_max":714,"o":"m 446 704 q 592 681 532 704 q 683 603 651 658 q 714 454 714 549 l 714 0 l 551 0 l 522 149 l 508 169 l 508 454 q 484 526 507 504 q 399 547 461 547 q 265 544 344 547 q 103 535 186 540 l 85 671 q 199 688 135 681 q 329 699 264 694 q 446 704 394 704 m 629 422 l 628 307 l 322 307 q 269 288 285 306 q 253 239 253 269 l 253 206 q 272 152 253 171 q 335 133 292 133 q 413 149 371 133 q 497 192 456 164 q 572 257 539 219 l 572 168 q 535 116 560 147 q 472 55 510 85 q 385 5 435 25 q 271 -15 335 -15 q 159 6 210 -15 q 79 71 108 28 q 50 178 50 114 l 50 249 q 106 376 50 331 q 258 422 161 422 l 629 422 m 531 1013 l 628 999 q 610 894 636 942 q 531 817 583 846 q 400 788 478 788 q 271 817 325 788 q 191 894 217 846 q 172 999 165 942 l 269 1013 q 301 943 269 967 q 400 919 333 919 q 498 943 465 919 q 531 1013 531 967 m 286 1236 q 343 1225 318 1233 q 391 1206 368 1217 q 436 1185 414 1194 q 486 1171 458 1175 q 527 1181 518 1167 q 536 1229 536 1194 l 617 1229 q 599 1091 631 1139 q 511 1049 567 1043 q 452 1060 479 1051 q 401 1081 425 1069 q 356 1101 378 1092 q 313 1114 335 1111 q 271 1103 279 1118 q 263 1054 263 1089 l 182 1054 q 185 1159 172 1118 q 226 1219 199 1200 q 286 1236 254 1239 z "},"â":{"ha":792,"x_min":50,"x_max":714,"o":"m 446 704 q 592 681 532 704 q 683 603 651 658 q 714 454 714 549 l 714 0 l 551 0 l 522 149 l 508 169 l 508 454 q 484 526 507 504 q 399 547 461 547 q 265 544 344 547 q 103 535 186 540 l 85 671 q 199 688 135 681 q 329 699 264 694 q 446 704 394 704 m 629 422 l 628 307 l 322 307 q 269 288 285 306 q 253 239 253 269 l 253 206 q 272 152 253 171 q 335 133 292 133 q 413 149 371 133 q 497 192 456 164 q 572 257 539 219 l 572 168 q 535 116 560 147 q 472 55 510 85 q 385 5 435 25 q 271 -15 335 -15 q 159 6 210 -15 q 79 71 108 28 q 50 178 50 114 l 50 249 q 106 376 50 331 q 258 422 161 422 l 629 422 m 476 1025 l 663 839 l 608 765 l 408 897 l 397 897 l 194 765 l 139 844 l 328 1025 l 476 1025 z "},"ấ":{"ha":792,"x_min":50,"x_max":839,"o":"m 446 704 q 592 681 532 704 q 683 603 651 658 q 714 454 714 549 l 714 0 l 551 0 l 522 149 l 508 169 l 508 454 q 484 526 507 504 q 399 547 461 547 q 265 544 344 547 q 103 535 186 540 l 85 671 q 199 688 135 681 q 329 699 264 694 q 446 704 394 704 m 629 422 l 628 307 l 322 307 q 269 288 285 306 q 253 239 253 269 l 253 206 q 272 152 253 171 q 335 133 292 133 q 413 149 371 133 q 497 192 456 164 q 572 257 539 219 l 572 168 q 535 116 560 147 q 472 55 510 85 q 385 5 435 25 q 271 -15 335 -15 q 159 6 210 -15 q 79 71 108 28 q 50 178 50 114 l 50 249 q 106 376 50 331 q 258 422 161 422 l 629 422 m 326 1013 l 474 1013 l 656 850 l 601 771 l 406 889 l 394 889 l 201 771 l 147 844 l 326 1013 m 733 1197 l 839 1089 l 625 932 l 556 1000 l 733 1197 z "},"ậ":{"ha":792,"x_min":50,"x_max":714,"o":"m 475 1018 l 661 832 l 607 758 l 407 890 l 396 890 l 193 758 l 139 838 l 326 1018 l 475 1018 m 446 704 q 592 681 532 704 q 683 603 651 658 q 714 454 714 549 l 714 0 l 551 0 l 522 149 l 508 169 l 508 454 q 484 526 507 504 q 399 547 461 547 q 265 544 344 547 q 103 535 186 540 l 85 671 q 199 688 135 681 q 329 699 264 694 q 446 704 394 704 m 629 422 l 628 307 l 322 307 q 269 288 285 306 q 253 239 253 269 l 253 206 q 272 152 253 171 q 335 133 292 133 q 413 149 371 133 q 497 192 456 164 q 572 257 539 219 l 572 168 q 535 116 560 147 q 472 55 510 85 q 385 5 435 25 q 271 -15 335 -15 q 159 6 210 -15 q 79 71 108 28 q 50 178 50 114 l 50 249 q 106 376 50 331 q 258 422 161 422 l 629 422 m 418 -75 q 476 -132 476 -75 l 476 -204 q 418 -261 476 -261 l 356 -261 q 296 -204 296 -261 l 296 -132 q 356 -75 296 -75 l 418 -75 z "},"ầ":{"ha":792,"x_min":-37,"x_max":714,"o":"m 446 704 q 592 681 532 704 q 683 603 651 658 q 714 454 714 549 l 714 0 l 551 0 l 522 149 l 508 169 l 508 454 q 484 526 507 504 q 399 547 461 547 q 265 544 344 547 q 103 535 186 540 l 85 671 q 199 688 135 681 q 329 699 264 694 q 446 704 394 704 m 629 422 l 628 307 l 322 307 q 269 288 285 306 q 253 239 253 269 l 253 206 q 272 152 253 171 q 335 133 292 133 q 413 149 371 133 q 497 192 456 164 q 572 257 539 219 l 572 168 q 535 116 560 147 q 472 55 510 85 q 385 5 435 25 q 271 -15 335 -15 q 159 6 210 -15 q 79 71 108 28 q 50 178 50 114 l 50 249 q 106 376 50 331 q 258 422 161 422 l 629 422 m 476 1013 l 654 844 l 600 771 l 408 889 l 397 889 l 201 771 l 147 850 l 328 1013 l 476 1013 m 68 1197 l 247 1000 l 178 932 l -36 1089 l 68 1197 z "},"ẩ":{"ha":792,"x_min":50,"x_max":739,"o":"m 446 704 q 592 681 532 704 q 683 603 651 658 q 714 454 714 549 l 714 0 l 551 0 l 522 149 l 508 169 l 508 454 q 484 526 507 504 q 399 547 461 547 q 265 544 344 547 q 103 535 186 540 l 85 671 q 199 688 135 681 q 329 699 264 694 q 446 704 394 704 m 629 422 l 628 307 l 322 307 q 269 288 285 306 q 253 239 253 269 l 253 206 q 272 152 253 171 q 335 133 292 133 q 413 149 371 133 q 497 192 456 164 q 572 257 539 219 l 572 168 q 535 116 560 147 q 472 55 510 85 q 385 5 435 25 q 271 -15 335 -15 q 159 6 210 -15 q 79 71 108 28 q 50 178 50 114 l 50 249 q 106 376 50 331 q 258 422 161 422 l 629 422 m 326 1013 l 474 1013 l 656 850 l 601 771 l 406 889 l 394 889 l 201 771 l 147 844 l 326 1013 m 571 1036 q 617 1061 603 1046 q 633 1101 632 1076 q 608 1131 633 1128 q 547 1119 582 1135 l 528 1207 q 635 1222 588 1228 q 711 1186 683 1217 q 739 1103 739 1156 q 697 1005 739 1042 q 589 957 654 968 l 571 1036 z "},"ẫ":{"ha":792,"x_min":50,"x_max":714,"o":"m 446 704 q 592 681 532 704 q 683 603 651 658 q 714 454 714 549 l 714 0 l 551 0 l 522 149 l 508 169 l 508 454 q 484 526 507 504 q 399 547 461 547 q 265 544 344 547 q 103 535 186 540 l 85 671 q 199 688 135 681 q 329 699 264 694 q 446 704 394 704 m 629 422 l 628 307 l 322 307 q 269 288 285 306 q 253 239 253 269 l 253 206 q 272 152 253 171 q 335 133 292 133 q 413 149 371 133 q 497 192 456 164 q 572 257 539 219 l 572 168 q 535 116 560 147 q 472 55 510 85 q 385 5 435 25 q 271 -15 335 -15 q 159 6 210 -15 q 79 71 108 28 q 50 178 50 114 l 50 249 q 106 376 50 331 q 258 422 161 422 l 629 422 m 476 1013 l 654 844 l 601 771 l 408 889 l 397 889 l 201 771 l 146 850 l 328 1013 l 476 1013 m 289 1236 q 346 1225 321 1233 q 394 1206 371 1217 q 439 1185 417 1194 q 488 1172 461 1176 q 530 1181 521 1167 q 539 1229 539 1194 l 619 1229 q 601 1092 633 1139 q 514 1049 569 1044 q 455 1061 482 1051 q 404 1081 428 1071 q 359 1101 381 1092 q 314 1114 338 1111 q 274 1103 282 1118 q 265 1054 265 1089 l 185 1054 q 188 1159 175 1118 q 229 1219 201 1200 q 289 1236 257 1239 z "},"ȁ":{"ha":792,"x_min":50,"x_max":714,"o":"m 446 704 q 592 681 532 704 q 683 603 651 658 q 714 454 714 549 l 714 0 l 551 0 l 522 149 l 508 169 l 508 454 q 484 526 507 504 q 399 547 461 547 q 265 544 344 547 q 103 535 186 540 l 85 671 q 199 688 135 681 q 329 699 264 694 q 446 704 394 704 m 629 422 l 628 307 l 322 307 q 269 288 285 306 q 253 239 253 269 l 253 206 q 272 152 253 171 q 335 133 292 133 q 413 149 371 133 q 497 192 456 164 q 572 257 539 219 l 572 168 q 535 116 560 147 q 472 55 510 85 q 385 5 435 25 q 271 -15 335 -15 q 159 6 210 -15 q 79 71 108 28 q 50 178 50 114 l 50 249 q 106 376 50 331 q 258 422 161 422 l 629 422 m 460 1090 l 621 835 l 538 769 l 326 1003 l 460 1090 m 196 1090 l 357 835 l 275 769 l 64 1003 l 196 1090 z "},"ä":{"ha":792,"x_min":50,"x_max":714,"o":"m 446 704 q 592 681 532 704 q 683 603 651 658 q 714 454 714 549 l 714 0 l 551 0 l 522 149 l 508 169 l 508 454 q 484 526 507 504 q 399 547 461 547 q 265 544 344 547 q 103 535 186 540 l 85 671 q 199 688 135 681 q 329 699 264 694 q 446 704 394 704 m 629 422 l 628 307 l 322 307 q 269 288 285 306 q 253 239 253 269 l 253 206 q 272 152 253 171 q 335 133 292 133 q 413 149 371 133 q 497 192 456 164 q 572 257 539 219 l 572 168 q 535 116 560 147 q 472 55 510 85 q 385 5 435 25 q 271 -15 335 -15 q 159 6 210 -15 q 79 71 108 28 q 50 178 50 114 l 50 249 q 106 376 50 331 q 258 422 161 422 l 629 422 m 560 990 q 604 946 604 990 l 604 864 q 560 821 604 821 l 493 821 q 449 864 449 821 l 449 946 q 493 990 449 990 l 560 990 m 306 990 q 349 946 349 990 l 349 864 q 306 821 349 821 l 238 821 q 194 864 194 821 l 194 946 q 238 990 194 990 l 306 990 z "},"ạ":{"ha":792,"x_min":50,"x_max":714,"o":"m 446 704 q 592 681 532 704 q 683 603 651 658 q 714 454 714 549 l 714 0 l 551 0 l 522 149 l 508 169 l 508 454 q 484 526 507 504 q 399 547 461 547 q 265 544 344 547 q 103 535 186 540 l 85 671 q 199 688 135 681 q 329 699 264 694 q 446 704 394 704 m 629 422 l 628 307 l 322 307 q 269 288 285 306 q 253 239 253 269 l 253 206 q 272 152 253 171 q 335 133 292 133 q 413 149 371 133 q 497 192 456 164 q 572 257 539 219 l 572 168 q 535 116 560 147 q 472 55 510 85 q 385 5 435 25 q 271 -15 335 -15 q 159 6 210 -15 q 79 71 108 28 q 50 178 50 114 l 50 249 q 106 376 50 331 q 258 422 161 422 l 629 422 m 418 -71 q 478 -128 478 -71 l 478 -200 q 418 -258 478 -258 l 354 -258 q 296 -200 296 -258 l 296 -128 q 354 -71 296 -71 l 418 -71 z "},"à":{"ha":792,"x_min":50,"x_max":714,"o":"m 446 704 q 592 681 532 704 q 683 603 651 658 q 714 454 714 549 l 714 0 l 551 0 l 522 149 l 508 169 l 508 454 q 484 526 507 504 q 399 547 461 547 q 265 544 344 547 q 103 535 186 540 l 85 671 q 199 688 135 681 q 329 699 264 694 q 446 704 394 704 m 629 422 l 628 307 l 322 307 q 269 288 285 306 q 253 239 253 269 l 253 206 q 272 152 253 171 q 335 133 292 133 q 413 149 371 133 q 497 192 456 164 q 572 257 539 219 l 572 168 q 535 116 560 147 q 472 55 510 85 q 385 5 435 25 q 271 -15 335 -15 q 159 6 210 -15 q 79 71 108 28 q 50 178 50 114 l 50 249 q 106 376 50 331 q 258 422 161 422 l 629 422 m 229 1069 l 511 864 l 451 778 l 140 932 l 229 1069 z "},"ả":{"ha":792,"x_min":50,"x_max":714,"o":"m 446 704 q 592 681 532 704 q 683 603 651 658 q 714 454 714 549 l 714 0 l 551 0 l 522 149 l 508 169 l 508 454 q 484 526 507 504 q 399 547 461 547 q 265 544 344 547 q 103 535 186 540 l 85 671 q 199 688 135 681 q 329 699 264 694 q 446 704 394 704 m 629 422 l 628 307 l 322 307 q 269 288 285 306 q 253 239 253 269 l 253 206 q 272 152 253 171 q 335 133 292 133 q 413 149 371 133 q 497 192 456 164 q 572 257 539 219 l 572 168 q 535 116 560 147 q 472 55 510 85 q 385 5 435 25 q 271 -15 335 -15 q 159 6 210 -15 q 79 71 108 28 q 50 178 50 114 l 50 249 q 106 376 50 331 q 258 422 161 422 l 629 422 m 363 868 q 417 897 400 879 q 433 947 433 915 q 404 991 433 982 q 336 985 375 1000 l 315 1083 q 437 1097 383 1107 q 522 1051 490 1088 q 553 953 553 1014 q 531 867 553 903 q 470 808 508 831 q 383 778 432 786 l 363 868 z "},"ȃ":{"ha":792,"x_min":50,"x_max":714,"o":"m 446 704 q 592 681 532 704 q 683 603 651 658 q 714 454 714 549 l 714 0 l 551 0 l 522 149 l 508 169 l 508 454 q 484 526 507 504 q 399 547 461 547 q 265 544 344 547 q 103 535 186 540 l 85 671 q 199 688 135 681 q 329 699 264 694 q 446 704 394 704 m 629 422 l 628 307 l 322 307 q 269 288 285 306 q 253 239 253 269 l 253 206 q 272 152 253 171 q 335 133 292 133 q 413 149 371 133 q 497 192 456 164 q 572 257 539 219 l 572 168 q 535 116 560 147 q 472 55 510 85 q 385 5 435 25 q 271 -15 335 -15 q 159 6 210 -15 q 79 71 108 28 q 50 178 50 114 l 50 249 q 106 376 50 331 q 258 422 161 422 l 629 422 m 269 792 l 172 806 q 190 912 165 864 q 269 988 215 960 q 399 1017 324 1017 q 530 988 476 1017 q 610 912 583 960 q 628 806 636 864 l 531 792 q 499 862 531 839 q 399 885 467 885 q 301 862 333 885 q 269 792 269 839 z "},"ā":{"ha":792,"x_min":50,"x_max":714,"o":"m 446 704 q 592 681 532 704 q 683 603 651 658 q 714 454 714 549 l 714 0 l 551 0 l 522 149 l 508 169 l 508 454 q 484 526 507 504 q 399 547 461 547 q 265 544 344 547 q 103 535 186 540 l 85 671 q 199 688 135 681 q 329 699 264 694 q 446 704 394 704 m 629 422 l 628 307 l 322 307 q 269 288 285 306 q 253 239 253 269 l 253 206 q 272 152 253 171 q 335 133 292 133 q 413 149 371 133 q 497 192 456 164 q 572 257 539 219 l 572 168 q 535 116 560 147 q 472 55 510 85 q 385 5 435 25 q 271 -15 335 -15 q 159 6 210 -15 q 79 71 108 28 q 50 178 50 114 l 50 249 q 106 376 50 331 q 258 422 161 422 l 629 422 m 610 969 l 610 840 l 194 840 l 194 969 l 610 969 z "},"ą":{"ha":792,"x_min":50,"x_max":731,"o":"m 446 704 q 592 681 532 704 q 683 603 651 658 q 714 454 714 549 l 714 0 l 551 0 l 522 149 l 508 169 l 508 454 q 484 526 507 504 q 399 547 461 547 q 265 544 344 547 q 103 535 186 540 l 85 671 q 199 688 135 681 q 329 699 264 694 q 446 704 394 704 m 629 422 l 628 307 l 322 307 q 269 288 285 306 q 253 239 253 269 l 253 206 q 272 152 253 171 q 335 133 292 133 q 413 149 371 133 q 497 192 456 164 q 572 257 539 219 l 572 168 q 535 116 560 147 q 472 55 510 85 q 385 5 435 25 q 271 -15 335 -15 q 159 6 210 -15 q 79 71 108 28 q 50 178 50 114 l 50 249 q 106 376 50 331 q 258 422 161 422 l 629 422 m 631 3 l 713 0 q 667 -65 689 -32 q 628 -139 646 -99 q 636 -194 608 -183 q 715 -193 664 -206 l 731 -267 q 604 -297 656 -297 q 523 -277 553 -297 q 485 -224 493 -257 q 490 -154 478 -190 q 535 -79 501 -119 q 631 3 568 -39 z "},"å":{"ha":792,"x_min":50,"x_max":714,"o":"m 446 704 q 592 681 532 704 q 683 603 651 658 q 714 454 714 549 l 714 0 l 551 0 l 522 149 l 508 169 l 508 454 q 484 526 507 504 q 399 547 461 547 q 265 544 344 547 q 103 535 186 540 l 85 671 q 199 688 135 681 q 329 699 264 694 q 446 704 394 704 m 629 422 l 628 307 l 322 307 q 269 288 285 306 q 253 239 253 269 l 253 206 q 272 152 253 171 q 335 133 292 133 q 413 149 371 133 q 497 192 456 164 q 572 257 539 219 l 572 168 q 535 116 560 147 q 472 55 510 85 q 385 5 435 25 q 271 -15 335 -15 q 159 6 210 -15 q 79 71 108 28 q 50 178 50 114 l 50 249 q 106 376 50 331 q 258 422 161 422 l 629 422 m 401 1074 q 483 1052 446 1074 q 543 994 521 1031 q 565 914 565 958 q 543 833 565 869 q 483 775 521 796 q 401 754 446 754 q 319 775 357 754 q 260 832 282 796 q 238 914 238 868 q 259 994 238 958 q 319 1052 281 1031 q 401 1074 357 1074 m 400 988 q 350 967 371 988 q 329 913 329 946 q 350 860 329 881 q 400 840 371 840 q 453 860 432 840 q 474 913 474 881 q 453 967 474 946 q 400 988 432 988 z "},"ǻ":{"ha":792,"x_min":50,"x_max":714,"o":"m 481 1340 l 567 1204 l 275 1069 l 217 1154 l 481 1340 m 446 704 q 592 681 532 704 q 683 603 651 658 q 714 454 714 549 l 714 0 l 551 0 l 522 149 l 508 169 l 508 454 q 484 526 507 504 q 399 547 461 547 q 265 544 344 547 q 103 535 186 540 l 85 671 q 199 688 135 681 q 329 699 264 694 q 446 704 394 704 m 629 422 l 628 307 l 322 307 q 269 288 285 306 q 253 239 253 269 l 253 206 q 272 152 253 171 q 335 133 292 133 q 413 149 371 133 q 497 192 456 164 q 572 257 539 219 l 572 168 q 535 116 560 147 q 472 55 510 85 q 385 5 435 25 q 271 -15 335 -15 q 159 6 210 -15 q 79 71 108 28 q 50 178 50 114 l 50 249 q 106 376 50 331 q 258 422 161 422 l 629 422 m 400 1064 q 482 1042 444 1064 q 542 985 519 1021 q 564 904 564 949 q 542 823 564 860 q 483 765 519 786 q 400 744 446 744 q 318 765 356 744 q 258 822 281 786 q 236 904 236 858 q 258 985 236 949 q 318 1042 281 1021 q 400 1064 356 1064 m 400 978 q 350 957 371 978 q 329 904 329 936 q 350 851 329 871 q 400 831 371 831 q 451 851 431 831 q 472 904 472 871 q 451 957 472 936 q 400 978 431 978 z "},"ã":{"ha":792,"x_min":50,"x_max":714,"o":"m 446 704 q 592 681 532 704 q 683 603 651 658 q 714 454 714 549 l 714 0 l 551 0 l 522 149 l 508 169 l 508 454 q 484 526 507 504 q 399 547 461 547 q 265 544 344 547 q 103 535 186 540 l 85 671 q 199 688 135 681 q 329 699 264 694 q 446 704 394 704 m 629 422 l 628 307 l 322 307 q 269 288 285 306 q 253 239 253 269 l 253 206 q 272 152 253 171 q 335 133 292 133 q 413 149 371 133 q 497 192 456 164 q 572 257 539 219 l 572 168 q 535 116 560 147 q 472 55 510 85 q 385 5 435 25 q 271 -15 335 -15 q 159 6 210 -15 q 79 71 108 28 q 50 178 50 114 l 50 249 q 106 376 50 331 q 258 422 161 422 l 629 422 m 272 1007 q 335 995 307 1004 q 388 975 363 986 q 440 953 414 964 q 493 939 465 943 q 538 949 529 933 q 547 1000 547 964 l 636 1000 q 617 851 651 903 q 522 804 582 800 q 437 824 475 808 q 366 854 399 839 q 300 874 333 869 q 256 863 265 879 q 247 810 247 847 l 160 810 q 163 924 149 879 q 208 989 178 968 q 272 1007 238 1010 z "},"æ":{"ha":1221,"x_min":50,"x_max":1172,"o":"m 849 704 q 1097 645 1022 704 q 1172 469 1171 586 q 1151 365 1172 407 q 1081 303 1129 324 q 950 282 1032 282 l 579 282 l 579 397 l 893 397 q 958 417 943 397 q 972 474 974 436 q 946 541 972 522 q 856 560 919 560 q 765 545 797 561 q 721 486 733 529 q 708 361 708 443 q 724 228 708 275 q 776 164 739 182 q 879 146 813 146 q 995 149 926 146 q 1135 161 1064 153 l 1154 35 q 1064 4 1114 15 q 960 -12 1014 -7 q 856 -17 907 -17 q 649 22 726 -17 q 535 139 571 60 q 500 342 500 218 q 535 556 500 476 q 647 669 571 635 q 849 704 724 704 m 624 419 l 622 306 l 321 307 q 269 288 285 306 q 253 239 253 269 l 253 206 q 272 152 253 171 q 332 133 292 133 q 410 149 368 133 q 494 192 453 164 q 568 258 536 221 l 575 164 q 538 112 563 142 q 475 53 513 82 q 386 4 438 24 q 268 -15 335 -15 q 158 6 207 -15 q 79 71 108 28 q 50 178 50 114 l 50 249 q 105 374 50 329 q 256 419 160 419 l 624 419 m 442 704 q 587 681 528 704 q 676 603 646 658 q 707 454 707 549 l 707 324 l 500 324 l 500 454 q 478 526 500 504 q 394 547 456 547 q 263 544 342 547 q 103 535 185 540 l 83 671 q 197 688 133 681 q 326 699 261 694 q 442 704 390 704 z "},"ǽ":{"ha":1221,"x_min":50,"x_max":1172,"o":"m 849 704 q 1097 645 1022 704 q 1172 469 1171 586 q 1151 365 1172 407 q 1081 303 1129 324 q 950 282 1032 282 l 579 282 l 579 397 l 893 397 q 958 417 943 397 q 972 474 974 436 q 946 541 972 522 q 856 560 919 560 q 765 545 797 561 q 721 486 733 529 q 708 361 708 443 q 724 228 708 275 q 776 164 739 182 q 879 146 813 146 q 995 149 926 146 q 1135 161 1064 153 l 1154 35 q 1064 4 1114 15 q 960 -12 1014 -7 q 856 -17 907 -17 q 649 22 726 -17 q 535 139 571 60 q 500 342 500 218 q 535 556 500 476 q 647 669 571 635 q 849 704 724 704 m 624 419 l 622 306 l 321 307 q 269 288 285 306 q 253 239 253 269 l 253 206 q 272 152 253 171 q 332 133 292 133 q 410 149 368 133 q 494 192 453 164 q 568 258 536 221 l 575 164 q 538 112 563 142 q 475 53 513 82 q 386 4 438 24 q 268 -15 335 -15 q 158 6 207 -15 q 79 71 108 28 q 50 178 50 114 l 50 249 q 105 374 50 329 q 256 419 160 419 l 624 419 m 442 704 q 587 681 528 704 q 676 603 646 658 q 707 454 707 549 l 707 324 l 500 324 l 500 454 q 478 526 500 504 q 394 547 456 547 q 263 544 342 547 q 103 535 185 540 l 83 671 q 197 688 133 681 q 326 699 261 694 q 442 704 390 704 m 801 1069 l 890 932 l 581 778 l 519 864 l 801 1069 z "},"b":{"ha":825,"x_min":82,"x_max":769,"o":"m 515 704 q 710 622 651 704 q 769 349 769 539 q 755 203 769 269 q 703 87 740 136 q 601 10 667 38 q 432 -17 536 -17 q 349 -13 396 -17 q 252 -3 301 -10 q 158 13 203 3 q 82 38 114 24 l 246 156 q 304 141 272 147 q 369 133 336 135 q 428 132 403 131 q 504 152 476 133 q 545 217 532 171 q 558 347 558 264 q 548 466 558 424 q 510 526 538 508 q 433 543 483 543 q 350 524 388 543 q 267 474 313 504 l 251 569 q 329 639 288 608 q 418 687 371 669 q 515 704 465 704 m 288 972 l 289 750 q 284 659 289 703 q 267 574 279 615 l 286 556 l 288 28 l 82 38 l 82 972 l 288 972 z "},"c":{"ha":707,"x_min":56,"x_max":668,"o":"m 403 704 q 485 701 440 704 q 574 688 529 697 q 657 663 619 679 l 635 533 q 528 537 579 536 q 438 538 478 538 q 339 521 375 538 q 287 463 303 504 q 271 344 271 421 q 287 225 271 268 q 339 165 303 182 q 438 149 375 149 q 494 150 460 149 q 569 153 529 151 q 649 161 610 156 l 668 31 q 542 -6 613 6 q 401 -17 471 -17 q 199 19 275 -17 q 89 133 122 54 q 56 344 56 213 q 90 556 56 476 q 200 669 124 635 q 403 704 276 704 z "},"ć":{"ha":707,"x_min":56,"x_max":668,"o":"m 403 704 q 485 701 440 704 q 574 688 529 697 q 657 663 619 679 l 635 533 q 528 537 579 536 q 438 538 478 538 q 339 521 375 538 q 287 463 303 504 q 271 344 271 421 q 287 225 271 268 q 339 165 303 182 q 438 149 375 149 q 494 150 460 149 q 569 153 529 151 q 649 161 610 156 l 668 31 q 542 -6 613 6 q 401 -17 471 -17 q 199 19 275 -17 q 89 133 122 54 q 56 344 56 213 q 90 556 56 476 q 200 669 124 635 q 403 704 276 704 m 550 1056 l 639 918 l 329 763 l 269 850 l 550 1056 z "},"č":{"ha":707,"x_min":56,"x_max":668,"o":"m 403 704 q 485 701 440 704 q 574 688 529 697 q 657 663 619 679 l 635 533 q 528 537 579 536 q 438 538 478 538 q 339 521 375 538 q 287 463 303 504 q 271 344 271 421 q 287 225 271 268 q 339 165 303 182 q 438 149 375 149 q 494 150 460 149 q 569 153 529 151 q 649 161 610 156 l 668 31 q 542 -6 613 6 q 401 -17 471 -17 q 199 19 275 -17 q 89 133 122 54 q 56 344 56 213 q 90 556 56 476 q 200 669 124 635 q 403 704 276 704 m 590 1040 l 644 963 l 432 782 l 347 782 l 135 963 l 189 1040 l 385 928 l 396 928 l 590 1040 z "},"ç":{"ha":707,"x_min":56,"x_max":668,"o":"m 403 704 q 485 701 440 704 q 574 688 529 697 q 657 663 619 679 l 635 533 q 528 537 579 536 q 438 538 478 538 q 339 521 375 538 q 287 463 303 504 q 271 344 271 421 q 287 225 271 268 q 339 165 303 182 q 438 149 375 149 q 494 150 460 149 q 569 153 529 151 q 649 161 610 156 l 668 31 q 542 -6 613 6 q 401 -17 471 -17 q 199 19 275 -17 q 89 133 122 54 q 56 344 56 213 q 90 556 56 476 q 200 669 124 635 q 403 704 276 704 m 308 -72 q 424 -67 379 -64 q 489 -92 468 -71 q 508 -162 510 -114 q 468 -276 506 -231 q 369 -340 431 -321 q 229 -349 307 -358 l 254 -262 q 341 -244 306 -264 q 379 -179 376 -225 q 364 -155 381 -160 q 289 -150 347 -150 l 308 -72 z "},"ḉ":{"ha":707,"x_min":56,"x_max":668,"o":"m 403 704 q 485 701 440 704 q 574 688 529 697 q 657 663 619 679 l 635 533 q 528 537 579 536 q 438 538 478 538 q 339 521 375 538 q 287 463 303 504 q 271 344 271 421 q 287 225 271 268 q 339 165 303 182 q 438 149 375 149 q 494 150 460 149 q 569 153 529 151 q 649 161 610 156 l 668 31 q 542 -6 613 6 q 401 -17 471 -17 q 199 19 275 -17 q 89 133 122 54 q 56 344 56 213 q 90 556 56 476 q 200 669 124 635 q 403 704 276 704 m 308 -72 q 424 -67 379 -64 q 490 -92 469 -71 q 508 -162 511 -114 q 469 -276 507 -231 q 369 -340 431 -321 q 229 -349 307 -358 l 254 -262 q 341 -244 306 -264 q 379 -179 376 -225 q 364 -155 381 -160 q 289 -150 347 -150 l 308 -72 m 554 1064 l 643 926 l 333 772 l 272 858 l 554 1064 z "},"ĉ":{"ha":707,"x_min":56,"x_max":668,"o":"m 403 704 q 485 701 440 704 q 574 688 529 697 q 657 663 619 679 l 635 533 q 528 537 579 536 q 438 538 478 538 q 339 521 375 538 q 287 463 303 504 q 271 344 271 421 q 287 225 271 268 q 339 165 303 182 q 438 149 375 149 q 494 150 460 149 q 569 153 529 151 q 649 161 610 156 l 668 31 q 542 -6 613 6 q 401 -17 471 -17 q 199 19 275 -17 q 89 133 122 54 q 56 344 56 213 q 90 556 56 476 q 200 669 124 635 q 403 704 276 704 m 464 1019 l 650 833 l 596 760 l 396 892 l 385 892 l 182 760 l 126 839 l 315 1019 l 464 1019 z "},"ċ":{"ha":707,"x_min":56,"x_max":668,"o":"m 403 704 q 485 701 440 704 q 574 688 529 697 q 657 663 619 679 l 635 533 q 528 537 579 536 q 438 538 478 538 q 339 521 375 538 q 287 463 303 504 q 271 344 271 421 q 287 225 271 268 q 339 165 303 182 q 438 149 375 149 q 494 150 460 149 q 569 153 529 151 q 649 161 610 156 l 668 31 q 542 -6 613 6 q 401 -17 471 -17 q 199 19 275 -17 q 89 133 122 54 q 56 344 56 213 q 90 556 56 476 q 200 669 124 635 q 403 704 276 704 m 422 989 q 481 932 481 989 l 481 860 q 422 801 481 801 l 360 801 q 300 860 300 801 l 300 932 q 360 989 300 989 l 422 989 z "},"d":{"ha":829,"x_min":58,"x_max":744,"o":"m 318 704 q 458 683 392 704 q 576 615 525 663 l 563 522 q 478 547 517 536 q 390 557 440 557 q 321 542 347 557 q 282 482 294 526 q 269 350 269 438 q 281 226 269 268 q 319 167 293 183 q 385 151 344 151 q 447 159 421 151 q 500 183 474 167 q 561 222 526 199 l 575 121 q 467 23 533 63 q 303 -17 400 -17 q 115 78 171 -17 q 58 349 58 172 q 88 563 58 486 q 174 672 117 640 q 318 704 232 704 m 744 972 l 744 0 l 582 0 l 561 126 l 539 142 l 539 592 l 547 611 q 541 697 543 653 q 539 786 539 740 l 539 972 l 744 972 z "},"ď":{"ha":829,"x_min":58,"x_max":967,"o":"m 318 704 q 458 683 392 704 q 576 615 525 663 l 563 522 q 478 547 517 536 q 390 557 440 557 q 321 542 347 557 q 282 482 294 526 q 269 350 269 438 q 281 226 269 268 q 319 167 293 183 q 385 151 344 151 q 447 159 421 151 q 500 183 474 167 q 561 222 526 199 l 575 121 q 467 23 533 63 q 303 -17 400 -17 q 115 78 171 -17 q 58 349 58 172 q 88 563 58 486 q 174 672 117 640 q 318 704 232 704 m 744 972 l 744 0 l 582 0 l 561 126 l 539 142 l 539 592 l 547 611 q 541 697 543 653 q 539 786 539 740 l 539 972 l 744 972 m 908 979 q 953 967 940 979 q 967 919 965 954 l 967 846 q 951 729 967 778 q 908 636 936 681 l 840 657 q 853 729 850 694 q 857 806 856 764 q 808 857 807 806 l 810 919 q 824 967 811 954 q 869 979 838 979 l 908 979 z "},"đ":{"ha":824,"x_min":58,"x_max":829,"o":"m 829 871 l 829 778 l 358 778 l 358 871 l 829 871 m 318 704 q 458 683 392 704 q 576 615 525 663 l 563 522 q 478 547 517 536 q 390 557 440 557 q 321 542 347 557 q 282 482 294 526 q 269 350 269 438 q 281 226 269 268 q 319 167 293 183 q 385 151 344 151 q 447 159 421 151 q 500 183 474 167 q 561 222 526 199 l 575 121 q 467 23 533 63 q 303 -17 400 -17 q 115 78 171 -17 q 58 349 58 172 q 88 563 58 486 q 174 672 117 640 q 318 704 232 704 m 744 972 l 744 0 l 582 0 l 561 126 l 539 142 l 539 592 l 547 611 q 541 697 543 653 q 539 786 539 740 l 539 972 l 744 972 z "},"ḍ":{"ha":829,"x_min":58,"x_max":744,"o":"m 318 704 q 458 683 392 704 q 576 615 525 663 l 563 522 q 478 547 517 536 q 390 557 440 557 q 321 542 347 557 q 282 482 294 526 q 269 350 269 438 q 281 226 269 268 q 319 167 293 183 q 385 151 344 151 q 447 159 421 151 q 500 183 474 167 q 561 222 526 199 l 575 121 q 467 23 533 63 q 303 -17 400 -17 q 115 78 171 -17 q 58 349 58 172 q 88 563 58 486 q 174 672 117 640 q 318 704 232 704 m 744 972 l 744 0 l 582 0 l 561 126 l 539 142 l 539 592 l 547 611 q 541 697 543 653 q 539 786 539 740 l 539 972 l 744 972 m 461 -78 q 519 -135 519 -78 l 519 -207 q 461 -264 519 -264 l 399 -264 q 339 -207 339 -264 l 339 -135 q 399 -78 339 -78 l 461 -78 z "},"ḏ":{"ha":829,"x_min":58,"x_max":744,"o":"m 318 704 q 458 683 392 704 q 576 615 525 663 l 563 522 q 478 547 517 536 q 390 557 440 557 q 321 542 347 557 q 282 482 294 526 q 269 350 269 438 q 281 226 269 268 q 319 167 293 183 q 385 151 344 151 q 447 159 421 151 q 500 183 474 167 q 561 222 526 199 l 575 121 q 467 23 533 63 q 303 -17 400 -17 q 115 78 171 -17 q 58 349 58 172 q 88 563 58 486 q 174 672 117 640 q 318 704 232 704 m 744 972 l 744 0 l 582 0 l 561 126 l 539 142 l 539 592 l 547 611 q 541 697 543 653 q 539 786 539 740 l 539 972 l 744 972 m 635 -107 l 635 -236 l 219 -236 l 219 -107 l 635 -107 z "},"ǆ":{"ha":1558,"x_min":58,"x_max":1504,"o":"m 318 704 q 458 683 392 704 q 576 615 525 663 l 563 522 q 478 547 517 536 q 390 557 440 557 q 321 542 347 557 q 282 482 294 526 q 269 350 269 438 q 281 226 269 268 q 319 167 293 183 q 385 151 344 151 q 447 159 421 151 q 500 183 474 167 q 561 222 526 199 l 575 121 q 467 23 533 63 q 303 -17 400 -17 q 115 78 171 -17 q 58 349 58 172 q 88 563 58 486 q 174 672 117 640 q 318 704 232 704 m 744 972 l 744 0 l 582 0 l 561 126 l 539 142 l 539 592 l 547 611 q 541 697 543 653 q 539 786 539 740 l 539 972 l 744 972 m 1264 544 l 1499 543 l 1119 140 l 883 142 l 1264 544 m 1506 142 l 1506 0 l 883 0 l 883 142 l 1506 142 m 1499 686 l 1499 543 l 890 543 l 890 686 l 1499 686 m 1403 1040 l 1457 963 l 1244 782 l 1160 782 l 947 963 l 1001 1040 l 1197 928 l 1208 928 l 1403 1040 z "},"ð":{"ha":808,"x_min":57,"x_max":744,"o":"m 192 969 q 377 957 292 976 q 531 892 463 938 q 646 778 599 847 q 719 614 693 708 q 744 399 744 519 q 726 215 744 293 q 668 85 708 136 q 561 8 628 33 q 397 -18 494 -18 q 140 59 224 -18 q 57 301 57 136 q 86 481 57 408 q 181 590 115 553 q 356 626 247 626 q 439 619 393 626 q 529 590 485 613 q 606 524 574 568 l 596 439 q 506 468 554 458 q 400 478 457 478 q 325 462 353 478 q 285 408 297 446 q 272 304 272 369 q 301 169 272 206 q 400 132 331 132 q 485 158 457 132 q 522 244 513 185 q 531 401 531 304 q 515 587 531 510 q 472 715 500 664 q 400 793 443 765 q 300 831 357 821 q 172 836 243 842 l 192 969 m 588 1004 l 644 935 l 336 681 l 276 749 l 588 1004 z "},"e":{"ha":783,"x_min":56,"x_max":735,"o":"m 408 704 q 658 645 582 704 q 733 469 733 586 q 686 329 735 376 q 518 282 638 282 l 135 282 l 135 397 l 463 397 q 522 417 508 397 q 535 474 535 438 q 508 541 535 522 q 415 560 481 560 q 326 545 358 561 q 282 486 294 529 q 269 361 269 443 q 285 228 269 275 q 337 164 300 182 q 439 146 374 146 q 556 149 486 146 q 697 161 626 153 l 717 35 q 625 4 676 15 q 519 -12 574 -7 q 415 -17 465 -17 q 206 22 285 -17 q 91 139 126 60 q 56 342 56 218 q 91 556 56 476 q 204 669 126 635 q 408 704 282 704 z "},"é":{"ha":783,"x_min":56,"x_max":735,"o":"m 408 704 q 658 645 582 704 q 733 469 733 586 q 686 329 735 376 q 518 282 638 282 l 135 282 l 135 397 l 463 397 q 522 417 508 397 q 535 474 535 438 q 508 541 535 522 q 415 560 481 560 q 326 545 358 561 q 282 486 294 529 q 269 361 269 443 q 285 228 269 275 q 337 164 300 182 q 439 146 374 146 q 556 149 486 146 q 697 161 626 153 l 717 35 q 625 4 676 15 q 519 -12 574 -7 q 415 -17 465 -17 q 206 22 285 -17 q 91 139 126 60 q 56 342 56 218 q 91 556 56 476 q 204 669 126 635 q 408 704 282 704 m 574 1056 l 663 918 l 353 763 l 293 850 l 574 1056 z "},"ĕ":{"ha":783,"x_min":56,"x_max":735,"o":"m 408 704 q 658 645 582 704 q 733 469 733 586 q 686 329 735 376 q 518 282 638 282 l 135 282 l 135 397 l 463 397 q 522 417 508 397 q 535 474 535 438 q 508 541 535 522 q 415 560 481 560 q 326 545 358 561 q 282 486 294 529 q 269 361 269 443 q 285 228 269 275 q 337 164 300 182 q 439 146 374 146 q 556 149 486 146 q 697 161 626 153 l 717 35 q 625 4 676 15 q 519 -12 574 -7 q 415 -17 465 -17 q 206 22 285 -17 q 91 139 126 60 q 56 342 56 218 q 91 556 56 476 q 204 669 126 635 q 408 704 282 704 m 543 1006 l 640 992 q 622 887 649 935 q 543 810 596 839 q 413 781 490 781 q 283 810 338 781 q 203 887 229 839 q 185 992 178 935 l 282 1006 q 314 936 282 960 q 414 913 346 913 q 511 936 479 913 q 543 1006 543 960 z "},"ě":{"ha":783,"x_min":56,"x_max":735,"o":"m 408 704 q 658 645 582 704 q 733 469 733 586 q 686 329 735 376 q 518 282 638 282 l 135 282 l 135 397 l 463 397 q 522 417 508 397 q 535 474 535 438 q 508 541 535 522 q 415 560 481 560 q 326 545 358 561 q 282 486 294 529 q 269 361 269 443 q 285 228 269 275 q 337 164 300 182 q 439 146 374 146 q 556 149 486 146 q 697 161 626 153 l 717 35 q 625 4 676 15 q 519 -12 574 -7 q 415 -17 465 -17 q 206 22 285 -17 q 91 139 126 60 q 56 342 56 218 q 91 556 56 476 q 204 669 126 635 q 408 704 282 704 m 614 1040 l 668 963 l 456 782 l 371 782 l 158 963 l 213 1040 l 408 928 l 419 928 l 614 1040 z "},"ḝ":{"ha":783,"x_min":56,"x_max":735,"o":"m 543 1006 l 640 992 q 622 887 647 935 q 544 810 597 839 q 414 781 490 781 q 283 810 338 781 q 203 887 229 839 q 185 992 178 935 l 282 1006 q 314 936 282 960 q 414 913 346 913 q 511 936 479 913 q 543 1006 543 960 m 408 704 q 658 645 582 704 q 733 469 733 586 q 686 329 735 376 q 518 282 638 282 l 135 282 l 135 397 l 463 397 q 522 417 508 397 q 535 474 535 438 q 508 541 535 522 q 415 560 481 560 q 326 545 358 561 q 282 486 294 529 q 269 361 269 443 q 285 228 269 275 q 337 164 300 182 q 439 146 374 146 q 556 149 486 146 q 697 161 626 153 l 717 35 q 625 4 676 15 q 519 -12 574 -7 q 415 -17 465 -17 q 206 22 285 -17 q 91 139 126 60 q 56 342 56 218 q 91 556 56 476 q 204 669 126 635 q 408 704 282 704 m 328 -67 q 444 -62 399 -58 q 510 -87 489 -65 q 528 -157 531 -108 q 488 -270 526 -225 q 388 -334 450 -315 q 249 -343 326 -353 l 274 -257 q 360 -239 325 -258 q 399 -174 396 -219 q 383 -149 400 -154 q 308 -144 367 -144 l 328 -67 z "},"ê":{"ha":783,"x_min":56,"x_max":735,"o":"m 408 704 q 658 645 582 704 q 733 469 733 586 q 686 329 735 376 q 518 282 638 282 l 135 282 l 135 397 l 463 397 q 522 417 508 397 q 535 474 535 438 q 508 541 535 522 q 415 560 481 560 q 326 545 358 561 q 282 486 294 529 q 269 361 269 443 q 285 228 269 275 q 337 164 300 182 q 439 146 374 146 q 556 149 486 146 q 697 161 626 153 l 717 35 q 625 4 676 15 q 519 -12 574 -7 q 415 -17 465 -17 q 206 22 285 -17 q 91 139 126 60 q 56 342 56 218 q 91 556 56 476 q 204 669 126 635 q 408 704 282 704 m 488 1019 l 674 833 l 619 760 l 419 892 l 408 892 l 206 760 l 150 839 l 339 1019 l 488 1019 z "},"ế":{"ha":783,"x_min":56,"x_max":850,"o":"m 408 704 q 658 645 582 704 q 733 469 733 586 q 686 329 735 376 q 518 282 638 282 l 135 282 l 135 397 l 463 397 q 522 417 508 397 q 535 474 535 438 q 508 541 535 522 q 415 560 481 560 q 326 545 358 561 q 282 486 294 529 q 269 361 269 443 q 285 228 269 275 q 337 164 300 182 q 439 146 374 146 q 556 149 486 146 q 697 161 626 153 l 717 35 q 625 4 676 15 q 519 -12 574 -7 q 415 -17 465 -17 q 206 22 285 -17 q 91 139 126 60 q 56 342 56 218 q 91 556 56 476 q 204 669 126 635 q 408 704 282 704 m 338 1007 l 485 1007 l 667 844 l 613 765 l 417 883 l 406 883 l 213 765 l 158 839 l 338 1007 m 744 1192 l 850 1083 l 636 926 l 567 994 l 744 1192 z "},"ệ":{"ha":783,"x_min":56,"x_max":735,"o":"m 488 1013 l 674 826 l 619 753 l 419 885 l 408 885 l 206 753 l 151 832 l 339 1013 l 488 1013 m 408 704 q 658 645 582 704 q 733 469 733 586 q 686 329 735 376 q 518 282 638 282 l 135 282 l 135 397 l 463 397 q 522 417 508 397 q 535 474 535 438 q 508 541 535 522 q 415 560 481 560 q 326 545 358 561 q 282 486 294 529 q 269 361 269 443 q 285 228 269 275 q 337 164 300 182 q 439 146 374 146 q 556 149 486 146 q 697 161 626 153 l 717 35 q 625 4 676 15 q 519 -12 574 -7 q 415 -17 465 -17 q 206 22 285 -17 q 91 139 126 60 q 56 342 56 218 q 91 556 56 476 q 204 669 126 635 q 408 704 282 704 m 439 -72 q 497 -129 497 -72 l 497 -201 q 439 -258 497 -258 l 376 -258 q 317 -201 317 -258 l 317 -129 q 376 -72 317 -72 l 439 -72 z "},"ề":{"ha":783,"x_min":-26,"x_max":735,"o":"m 408 704 q 658 645 582 704 q 733 469 733 586 q 686 329 735 376 q 518 282 638 282 l 135 282 l 135 397 l 463 397 q 522 417 508 397 q 535 474 535 438 q 508 541 535 522 q 415 560 481 560 q 326 545 358 561 q 282 486 294 529 q 269 361 269 443 q 285 228 269 275 q 337 164 300 182 q 439 146 374 146 q 556 149 486 146 q 697 161 626 153 l 717 35 q 625 4 676 15 q 519 -12 574 -7 q 415 -17 465 -17 q 206 22 285 -17 q 91 139 126 60 q 56 342 56 218 q 91 556 56 476 q 204 669 126 635 q 408 704 282 704 m 488 1007 l 665 839 l 611 765 l 419 883 l 408 883 l 213 765 l 158 844 l 339 1007 l 488 1007 m 79 1192 l 258 994 l 189 926 l -25 1083 l 79 1192 z "},"ể":{"ha":783,"x_min":56,"x_max":750,"o":"m 408 704 q 658 645 582 704 q 733 469 733 586 q 686 329 735 376 q 518 282 638 282 l 135 282 l 135 397 l 463 397 q 522 417 508 397 q 535 474 535 438 q 508 541 535 522 q 415 560 481 560 q 326 545 358 561 q 282 486 294 529 q 269 361 269 443 q 285 228 269 275 q 337 164 300 182 q 439 146 374 146 q 556 149 486 146 q 697 161 626 153 l 717 35 q 625 4 676 15 q 519 -12 574 -7 q 415 -17 465 -17 q 206 22 285 -17 q 91 139 126 60 q 56 342 56 218 q 91 556 56 476 q 204 669 126 635 q 408 704 282 704 m 338 1007 l 485 1007 l 667 844 l 613 765 l 417 883 l 406 883 l 213 765 l 158 839 l 338 1007 m 582 1031 q 628 1056 614 1040 q 644 1096 643 1071 q 619 1126 644 1122 q 558 1114 593 1129 l 539 1201 q 647 1217 599 1222 q 722 1181 694 1211 q 750 1097 750 1150 q 708 999 750 1036 q 600 951 665 963 l 582 1031 z "},"ễ":{"ha":783,"x_min":56,"x_max":735,"o":"m 408 704 q 658 645 582 704 q 733 469 733 586 q 686 329 735 376 q 518 282 638 282 l 135 282 l 135 397 l 463 397 q 522 417 508 397 q 535 474 535 438 q 508 541 535 522 q 415 560 481 560 q 326 545 358 561 q 282 486 294 529 q 269 361 269 443 q 285 228 269 275 q 337 164 300 182 q 439 146 374 146 q 556 149 486 146 q 697 161 626 153 l 717 35 q 625 4 676 15 q 519 -12 574 -7 q 415 -17 465 -17 q 206 22 285 -17 q 91 139 126 60 q 56 342 56 218 q 91 556 56 476 q 204 669 126 635 q 408 704 282 704 m 488 1007 l 665 839 l 613 765 l 419 883 l 408 883 l 213 765 l 157 844 l 339 1007 l 488 1007 m 300 1231 q 357 1219 332 1228 q 405 1200 382 1211 q 450 1180 428 1189 q 499 1167 472 1171 q 541 1175 532 1161 q 550 1224 550 1189 l 631 1224 q 613 1086 644 1133 q 525 1043 581 1039 q 466 1056 493 1046 q 415 1076 439 1065 q 370 1096 392 1086 q 325 1108 349 1106 q 285 1098 293 1113 q 276 1049 276 1083 l 196 1049 q 199 1153 186 1113 q 240 1214 213 1194 q 300 1231 268 1233 z "},"ȅ":{"ha":783,"x_min":56,"x_max":735,"o":"m 408 704 q 658 645 582 704 q 733 469 733 586 q 686 329 735 376 q 518 282 638 282 l 135 282 l 135 397 l 463 397 q 522 417 508 397 q 535 474 535 438 q 508 541 535 522 q 415 560 481 560 q 326 545 358 561 q 282 486 294 529 q 269 361 269 443 q 285 228 269 275 q 337 164 300 182 q 439 146 374 146 q 556 149 486 146 q 697 161 626 153 l 717 35 q 625 4 676 15 q 519 -12 574 -7 q 415 -17 465 -17 q 206 22 285 -17 q 91 139 126 60 q 56 342 56 218 q 91 556 56 476 q 204 669 126 635 q 408 704 282 704 m 471 1085 l 632 829 l 549 764 l 338 997 l 471 1085 m 207 1085 l 368 829 l 286 764 l 75 997 l 207 1085 z "},"ë":{"ha":783,"x_min":56,"x_max":735,"o":"m 408 704 q 658 645 582 704 q 733 469 733 586 q 686 329 735 376 q 518 282 638 282 l 135 282 l 135 397 l 463 397 q 522 417 508 397 q 535 474 535 438 q 508 541 535 522 q 415 560 481 560 q 326 545 358 561 q 282 486 294 529 q 269 361 269 443 q 285 228 269 275 q 337 164 300 182 q 439 146 374 146 q 556 149 486 146 q 697 161 626 153 l 717 35 q 625 4 676 15 q 519 -12 574 -7 q 415 -17 465 -17 q 206 22 285 -17 q 91 139 126 60 q 56 342 56 218 q 91 556 56 476 q 204 669 126 635 q 408 704 282 704 m 571 985 q 615 940 615 985 l 615 858 q 571 815 615 815 l 504 815 q 460 858 460 815 l 460 940 q 504 985 460 985 l 571 985 m 317 985 q 360 940 360 985 l 360 858 q 317 815 360 815 l 249 815 q 206 858 206 815 l 206 940 q 249 985 206 985 l 317 985 z "},"ė":{"ha":783,"x_min":56,"x_max":735,"o":"m 408 704 q 658 645 582 704 q 733 469 733 586 q 686 329 735 376 q 518 282 638 282 l 135 282 l 135 397 l 463 397 q 522 417 508 397 q 535 474 535 438 q 508 541 535 522 q 415 560 481 560 q 326 545 358 561 q 282 486 294 529 q 269 361 269 443 q 285 228 269 275 q 337 164 300 182 q 439 146 374 146 q 556 149 486 146 q 697 161 626 153 l 717 35 q 625 4 676 15 q 519 -12 574 -7 q 415 -17 465 -17 q 206 22 285 -17 q 91 139 126 60 q 56 342 56 218 q 91 556 56 476 q 204 669 126 635 q 408 704 282 704 m 444 989 q 503 932 503 989 l 503 860 q 444 801 503 801 l 382 801 q 322 860 322 801 l 322 932 q 382 989 322 989 l 444 989 z "},"ẹ":{"ha":783,"x_min":56,"x_max":735,"o":"m 408 704 q 658 645 582 704 q 733 469 733 586 q 686 329 735 376 q 518 282 638 282 l 135 282 l 135 397 l 463 397 q 522 417 508 397 q 535 474 535 438 q 508 541 535 522 q 415 560 481 560 q 326 545 358 561 q 282 486 294 529 q 269 361 269 443 q 285 228 269 275 q 337 164 300 182 q 439 146 374 146 q 556 149 486 146 q 697 161 626 153 l 717 35 q 625 4 676 15 q 519 -12 574 -7 q 415 -17 465 -17 q 206 22 285 -17 q 91 139 126 60 q 56 342 56 218 q 91 556 56 476 q 204 669 126 635 q 408 704 282 704 m 439 -68 q 499 -125 499 -68 l 499 -197 q 439 -256 499 -256 l 375 -256 q 317 -197 317 -256 l 317 -125 q 375 -68 317 -68 l 439 -68 z "},"è":{"ha":783,"x_min":56,"x_max":735,"o":"m 408 704 q 658 645 582 704 q 733 469 733 586 q 686 329 735 376 q 518 282 638 282 l 135 282 l 135 397 l 463 397 q 522 417 508 397 q 535 474 535 438 q 508 541 535 522 q 415 560 481 560 q 326 545 358 561 q 282 486 294 529 q 269 361 269 443 q 285 228 269 275 q 337 164 300 182 q 439 146 374 146 q 556 149 486 146 q 697 161 626 153 l 717 35 q 625 4 676 15 q 519 -12 574 -7 q 415 -17 465 -17 q 206 22 285 -17 q 91 139 126 60 q 56 342 56 218 q 91 556 56 476 q 204 669 126 635 q 408 704 282 704 m 240 1064 l 522 858 l 463 772 l 151 926 l 240 1064 z "},"ẻ":{"ha":783,"x_min":56,"x_max":735,"o":"m 408 704 q 658 645 582 704 q 733 469 733 586 q 686 329 735 376 q 518 282 638 282 l 135 282 l 135 397 l 463 397 q 522 417 508 397 q 535 474 535 438 q 508 541 535 522 q 415 560 481 560 q 326 545 358 561 q 282 486 294 529 q 269 361 269 443 q 285 228 269 275 q 337 164 300 182 q 439 146 374 146 q 556 149 486 146 q 697 161 626 153 l 717 35 q 625 4 676 15 q 519 -12 574 -7 q 415 -17 465 -17 q 206 22 285 -17 q 91 139 126 60 q 56 342 56 218 q 91 556 56 476 q 204 669 126 635 q 408 704 282 704 m 374 863 q 428 892 411 874 q 444 942 444 910 q 415 985 444 976 q 347 979 386 994 l 326 1078 q 448 1092 394 1101 q 533 1045 501 1082 q 564 947 564 1008 q 542 861 564 897 q 481 803 519 825 q 394 772 443 781 l 374 863 z "},"ȇ":{"ha":783,"x_min":56,"x_max":735,"o":"m 408 704 q 658 645 582 704 q 733 469 733 586 q 686 329 735 376 q 518 282 638 282 l 135 282 l 135 397 l 463 397 q 522 417 508 397 q 535 474 535 438 q 508 541 535 522 q 415 560 481 560 q 326 545 358 561 q 282 486 294 529 q 269 361 269 443 q 285 228 269 275 q 337 164 300 182 q 439 146 374 146 q 556 149 486 146 q 697 161 626 153 l 717 35 q 625 4 676 15 q 519 -12 574 -7 q 415 -17 465 -17 q 206 22 285 -17 q 91 139 126 60 q 56 342 56 218 q 91 556 56 476 q 204 669 126 635 q 408 704 282 704 m 281 786 l 183 800 q 201 906 176 858 q 281 983 226 954 q 410 1011 335 1011 q 541 983 488 1011 q 621 906 594 954 q 639 800 647 858 l 542 786 q 510 856 542 833 q 410 879 478 879 q 313 856 344 879 q 281 786 281 833 z "},"ē":{"ha":783,"x_min":56,"x_max":735,"o":"m 408 704 q 658 645 582 704 q 733 469 733 586 q 686 329 735 376 q 518 282 638 282 l 135 282 l 135 397 l 463 397 q 522 417 508 397 q 535 474 535 438 q 508 541 535 522 q 415 560 481 560 q 326 545 358 561 q 282 486 294 529 q 269 361 269 443 q 285 228 269 275 q 337 164 300 182 q 439 146 374 146 q 556 149 486 146 q 697 161 626 153 l 717 35 q 625 4 676 15 q 519 -12 574 -7 q 415 -17 465 -17 q 206 22 285 -17 q 91 139 126 60 q 56 342 56 218 q 91 556 56 476 q 204 669 126 635 q 408 704 282 704 m 621 964 l 621 835 l 206 835 l 206 964 l 621 964 z "},"ḗ":{"ha":783,"x_min":56,"x_max":735,"o":"m 408 704 q 658 645 582 704 q 733 469 733 586 q 686 329 735 376 q 518 282 638 282 l 135 282 l 135 397 l 463 397 q 522 417 508 397 q 535 474 535 438 q 508 541 535 522 q 415 560 481 560 q 326 545 358 561 q 282 486 294 529 q 269 361 269 443 q 285 228 269 275 q 337 164 300 182 q 439 146 374 146 q 556 149 486 146 q 697 161 626 153 l 717 35 q 625 4 676 15 q 519 -12 574 -7 q 415 -17 465 -17 q 206 22 285 -17 q 91 139 126 60 q 56 342 56 218 q 91 556 56 476 q 204 669 126 635 q 408 704 282 704 m 621 932 l 621 803 l 206 803 l 206 932 l 621 932 m 490 1228 l 583 1108 l 356 976 l 294 1050 l 490 1228 z "},"ḕ":{"ha":783,"x_min":56,"x_max":735,"o":"m 408 704 q 658 645 582 704 q 733 469 733 586 q 686 329 735 376 q 518 282 638 282 l 135 282 l 135 397 l 463 397 q 522 417 508 397 q 535 474 535 438 q 508 541 535 522 q 415 560 481 560 q 326 545 358 561 q 282 486 294 529 q 269 361 269 443 q 285 228 269 275 q 337 164 300 182 q 439 146 374 146 q 556 149 486 146 q 697 161 626 153 l 717 35 q 625 4 676 15 q 519 -12 574 -7 q 415 -17 465 -17 q 206 22 285 -17 q 91 139 126 60 q 56 342 56 218 q 91 556 56 476 q 204 669 126 635 q 408 704 282 704 m 204 932 l 619 932 l 619 803 l 204 803 l 204 932 m 333 1228 l 531 1050 l 468 976 l 240 1108 l 333 1228 z "},"ę":{"ha":783,"x_min":56,"x_max":735,"o":"m 408 704 q 658 645 582 704 q 733 469 733 586 q 686 329 735 376 q 518 282 638 282 l 135 282 l 135 397 l 463 397 q 522 417 508 397 q 535 474 535 438 q 508 541 535 522 q 415 560 481 560 q 326 545 358 561 q 282 486 294 529 q 269 361 269 443 q 285 228 269 275 q 337 164 300 182 q 439 146 374 146 q 556 149 486 146 q 697 161 626 153 l 717 35 q 625 4 676 15 q 519 -12 574 -7 q 415 -17 465 -17 q 206 22 285 -17 q 91 139 126 60 q 56 342 56 218 q 91 556 56 476 q 204 669 126 635 q 408 704 282 704 m 635 38 l 717 35 q 672 -31 693 3 q 632 -104 650 -64 q 640 -160 613 -149 q 719 -158 668 -171 l 735 -232 q 608 -262 660 -262 q 527 -242 557 -262 q 490 -189 497 -222 q 494 -119 482 -156 q 539 -44 506 -85 q 635 38 572 -4 z "},"ẽ":{"ha":783,"x_min":56,"x_max":735,"o":"m 408 704 q 658 645 582 704 q 733 469 733 586 q 686 329 735 376 q 518 282 638 282 l 135 282 l 135 397 l 463 397 q 522 417 508 397 q 535 474 535 438 q 508 541 535 522 q 415 560 481 560 q 326 545 358 561 q 282 486 294 529 q 269 361 269 443 q 285 228 269 275 q 337 164 300 182 q 439 146 374 146 q 556 149 486 146 q 697 161 626 153 l 717 35 q 625 4 676 15 q 519 -12 574 -7 q 415 -17 465 -17 q 206 22 285 -17 q 91 139 126 60 q 56 342 56 218 q 91 556 56 476 q 204 669 126 635 q 408 704 282 704 m 283 1001 q 346 990 318 999 q 399 969 374 981 q 451 948 425 958 q 504 933 476 938 q 549 943 540 928 q 558 994 558 958 l 647 994 q 628 846 663 897 q 533 799 593 794 q 448 818 486 803 q 377 849 410 833 q 311 868 344 864 q 267 858 276 874 q 258 804 258 842 l 171 804 q 174 918 160 874 q 219 983 189 963 q 283 1001 249 1004 z "},"ə":{"ha":783,"x_min":49,"x_max":728,"o":"m 375 -17 q 126 42 201 -17 q 50 218 50 101 q 97 359 49 313 q 265 406 146 406 l 649 406 l 649 290 l 321 290 q 262 271 275 290 q 249 214 249 251 q 276 147 249 165 q 368 128 304 128 q 457 143 425 128 q 501 202 489 158 q 514 328 514 246 q 499 460 514 414 q 447 524 483 507 q 344 542 410 542 q 228 538 297 542 q 86 526 158 535 l 67 653 q 159 683 108 672 q 264 699 210 694 q 368 704 318 704 q 579 667 500 704 q 693 550 658 629 q 728 346 728 471 q 692 133 728 213 q 580 18 657 53 q 375 -17 503 -17 z "},"f":{"ha":561,"x_min":25,"x_max":593,"o":"m 371 1001 q 437 1000 396 1001 q 520 995 478 999 q 593 986 563 992 l 575 856 l 444 856 q 371 834 392 856 q 350 763 350 813 l 350 0 l 144 0 l 144 789 q 167 901 144 853 q 238 975 189 949 q 371 1001 288 1001 m 542 686 l 542 551 l 25 551 l 25 679 l 149 686 l 542 686 z "},"g":{"ha":807,"x_min":33,"x_max":790,"o":"m 389 704 q 578 682 508 704 q 680 613 649 660 q 711 486 711 565 q 681 362 711 410 q 578 292 650 314 q 388 269 507 269 q 197 292 268 269 q 94 361 125 314 q 64 486 64 408 q 95 612 64 564 q 198 682 126 660 q 389 704 269 704 m 388 579 q 282 559 311 579 q 253 486 253 539 q 282 414 253 435 q 388 393 311 393 q 492 414 464 393 q 521 486 521 435 q 492 559 521 539 q 388 579 464 579 m 790 686 l 779 600 l 596 576 l 546 686 l 790 686 m 182 311 l 283 294 q 256 258 264 282 q 260 214 249 235 q 308 189 271 193 l 561 160 q 714 99 669 149 q 758 -44 758 50 q 722 -181 758 -133 q 607 -247 686 -229 q 396 -265 528 -265 q 217 -255 288 -265 q 107 -221 147 -244 q 50 -159 67 -197 q 33 -64 33 -121 q 49 10 33 -21 q 101 67 64 42 q 204 113 139 92 l 306 149 l 379 121 l 324 83 q 267 41 289 58 q 237 7 246 24 q 228 -37 228 -10 q 242 -87 228 -69 q 292 -110 256 -104 q 393 -117 329 -117 q 498 -110 461 -117 q 549 -87 535 -104 q 564 -40 564 -71 q 554 -1 564 -14 q 519 18 544 11 q 451 29 494 25 l 236 53 q 152 83 183 58 q 110 140 121 107 q 103 208 99 174 q 129 271 108 243 q 182 311 150 299 z "},"ğ":{"ha":807,"x_min":33,"x_max":790,"o":"m 389 704 q 578 682 508 704 q 680 613 649 660 q 711 486 711 565 q 681 362 711 410 q 578 292 650 314 q 388 269 507 269 q 197 292 268 269 q 94 361 125 314 q 64 486 64 408 q 95 612 64 564 q 198 682 126 660 q 389 704 269 704 m 388 579 q 282 559 311 579 q 253 486 253 539 q 282 414 253 435 q 388 393 311 393 q 492 414 464 393 q 521 486 521 435 q 492 559 521 539 q 388 579 464 579 m 790 686 l 779 600 l 596 576 l 546 686 l 790 686 m 182 311 l 283 294 q 256 258 264 282 q 260 214 249 235 q 308 189 271 193 l 561 160 q 714 99 669 149 q 758 -44 758 50 q 722 -181 758 -133 q 607 -247 686 -229 q 396 -265 528 -265 q 217 -255 288 -265 q 107 -221 147 -244 q 50 -159 67 -197 q 33 -64 33 -121 q 49 10 33 -21 q 101 67 64 42 q 204 113 139 92 l 306 149 l 379 121 l 324 83 q 267 41 289 58 q 237 7 246 24 q 228 -37 228 -10 q 242 -87 228 -69 q 292 -110 256 -104 q 393 -117 329 -117 q 498 -110 461 -117 q 549 -87 535 -104 q 564 -40 564 -71 q 554 -1 564 -14 q 519 18 544 11 q 451 29 494 25 l 236 53 q 152 83 183 58 q 110 140 121 107 q 103 208 99 174 q 129 271 108 243 q 182 311 150 299 m 522 999 l 619 985 q 601 880 628 928 q 522 803 575 832 q 392 774 469 774 q 263 803 317 774 q 183 880 208 832 q 164 985 157 928 l 261 999 q 293 929 261 953 q 393 906 325 906 q 490 929 458 906 q 522 999 522 953 z "},"ǧ":{"ha":807,"x_min":33,"x_max":790,"o":"m 389 704 q 578 682 508 704 q 680 613 649 660 q 711 486 711 565 q 681 362 711 410 q 578 292 650 314 q 388 269 507 269 q 197 292 268 269 q 94 361 125 314 q 64 486 64 408 q 95 612 64 564 q 198 682 126 660 q 389 704 269 704 m 388 579 q 282 559 311 579 q 253 486 253 539 q 282 414 253 435 q 388 393 311 393 q 492 414 464 393 q 521 486 521 435 q 492 559 521 539 q 388 579 464 579 m 790 686 l 779 600 l 596 576 l 546 686 l 790 686 m 182 311 l 283 294 q 256 258 264 282 q 260 214 249 235 q 308 189 271 193 l 561 160 q 714 99 669 149 q 758 -44 758 50 q 722 -181 758 -133 q 607 -247 686 -229 q 396 -265 528 -265 q 217 -255 288 -265 q 107 -221 147 -244 q 50 -159 67 -197 q 33 -64 33 -121 q 49 10 33 -21 q 101 67 64 42 q 204 113 139 92 l 306 149 l 379 121 l 324 83 q 267 41 289 58 q 237 7 246 24 q 228 -37 228 -10 q 242 -87 228 -69 q 292 -110 256 -104 q 393 -117 329 -117 q 498 -110 461 -117 q 549 -87 535 -104 q 564 -40 564 -71 q 554 -1 564 -14 q 519 18 544 11 q 451 29 494 25 l 236 53 q 152 83 183 58 q 110 140 121 107 q 103 208 99 174 q 129 271 108 243 q 182 311 150 299 m 593 1033 l 647 956 l 435 775 l 350 775 l 138 956 l 192 1033 l 388 921 l 399 921 l 593 1033 z "},"ĝ":{"ha":807,"x_min":33,"x_max":790,"o":"m 389 704 q 578 682 508 704 q 680 613 649 660 q 711 486 711 565 q 681 362 711 410 q 578 292 650 314 q 388 269 507 269 q 197 292 268 269 q 94 361 125 314 q 64 486 64 408 q 95 612 64 564 q 198 682 126 660 q 389 704 269 704 m 388 579 q 282 559 311 579 q 253 486 253 539 q 282 414 253 435 q 388 393 311 393 q 492 414 464 393 q 521 486 521 435 q 492 559 521 539 q 388 579 464 579 m 790 686 l 779 600 l 596 576 l 546 686 l 790 686 m 182 311 l 283 294 q 256 258 264 282 q 260 214 249 235 q 308 189 271 193 l 561 160 q 714 99 669 149 q 758 -44 758 50 q 722 -181 758 -133 q 607 -247 686 -229 q 396 -265 528 -265 q 217 -255 288 -265 q 107 -221 147 -244 q 50 -159 67 -197 q 33 -64 33 -121 q 49 10 33 -21 q 101 67 64 42 q 204 113 139 92 l 306 149 l 379 121 l 324 83 q 267 41 289 58 q 237 7 246 24 q 228 -37 228 -10 q 242 -87 228 -69 q 292 -110 256 -104 q 393 -117 329 -117 q 498 -110 461 -117 q 549 -87 535 -104 q 564 -40 564 -71 q 554 -1 564 -14 q 519 18 544 11 q 451 29 494 25 l 236 53 q 152 83 183 58 q 110 140 121 107 q 103 208 99 174 q 129 271 108 243 q 182 311 150 299 m 467 1013 l 653 826 l 599 753 l 399 885 l 388 885 l 185 753 l 129 832 l 318 1013 l 467 1013 z "},"ģ":{"ha":807,"x_min":33,"x_max":790,"o":"m 389 704 q 578 682 508 704 q 680 613 649 660 q 711 486 711 565 q 681 362 711 410 q 578 292 650 314 q 388 269 507 269 q 197 292 268 269 q 94 361 125 314 q 64 486 64 408 q 95 612 64 564 q 198 682 126 660 q 389 704 269 704 m 388 579 q 282 559 311 579 q 253 486 253 539 q 282 414 253 435 q 388 393 311 393 q 492 414 464 393 q 521 486 521 435 q 492 559 521 539 q 388 579 464 579 m 790 686 l 779 600 l 596 576 l 546 686 l 790 686 m 182 311 l 283 294 q 256 258 264 282 q 260 214 249 235 q 308 189 271 193 l 561 160 q 714 99 669 149 q 758 -44 758 50 q 722 -181 758 -133 q 607 -247 686 -229 q 396 -265 528 -265 q 217 -255 288 -265 q 107 -221 147 -244 q 50 -159 67 -197 q 33 -64 33 -121 q 49 10 33 -21 q 101 67 64 42 q 204 113 139 92 l 306 149 l 379 121 l 324 83 q 267 41 289 58 q 237 7 246 24 q 228 -37 228 -10 q 242 -87 228 -69 q 292 -110 256 -104 q 393 -117 329 -117 q 498 -110 461 -117 q 549 -87 535 -104 q 564 -40 564 -71 q 554 -1 564 -14 q 519 18 544 11 q 451 29 494 25 l 236 53 q 152 83 183 58 q 110 140 121 107 q 103 208 99 174 q 129 271 108 243 q 182 311 150 299 m 388 768 q 336 781 350 768 q 322 825 322 793 l 322 896 q 339 1008 322 961 q 386 1099 356 1056 l 461 1078 q 447 1009 451 1043 q 442 935 443 975 q 496 885 494 935 l 494 825 q 479 781 494 793 q 429 768 464 768 l 388 768 z "},"ġ":{"ha":807,"x_min":33,"x_max":790,"o":"m 389 704 q 578 682 508 704 q 680 613 649 660 q 711 486 711 565 q 681 362 711 410 q 578 292 650 314 q 388 269 507 269 q 197 292 268 269 q 94 361 125 314 q 64 486 64 408 q 95 612 64 564 q 198 682 126 660 q 389 704 269 704 m 388 579 q 282 559 311 579 q 253 486 253 539 q 282 414 253 435 q 388 393 311 393 q 492 414 464 393 q 521 486 521 435 q 492 559 521 539 q 388 579 464 579 m 790 686 l 779 600 l 596 576 l 546 686 l 790 686 m 182 311 l 283 294 q 256 258 264 282 q 260 214 249 235 q 308 189 271 193 l 561 160 q 714 99 669 149 q 758 -44 758 50 q 722 -181 758 -133 q 607 -247 686 -229 q 396 -265 528 -265 q 217 -255 288 -265 q 107 -221 147 -244 q 50 -159 67 -197 q 33 -64 33 -121 q 49 10 33 -21 q 101 67 64 42 q 204 113 139 92 l 306 149 l 379 121 l 324 83 q 267 41 289 58 q 237 7 246 24 q 228 -37 228 -10 q 242 -87 228 -69 q 292 -110 256 -104 q 393 -117 329 -117 q 498 -110 461 -117 q 549 -87 535 -104 q 564 -40 564 -71 q 554 -1 564 -14 q 519 18 544 11 q 451 29 494 25 l 236 53 q 152 83 183 58 q 110 140 121 107 q 103 208 99 174 q 129 271 108 243 q 182 311 150 299 m 425 982 q 483 925 483 982 l 483 853 q 425 794 483 794 l 363 794 q 303 853 303 794 l 303 925 q 363 982 303 982 l 425 982 z "},"ḡ":{"ha":807,"x_min":33,"x_max":790,"o":"m 389 704 q 578 682 508 704 q 680 613 649 660 q 711 486 711 565 q 681 362 711 410 q 578 292 650 314 q 388 269 507 269 q 197 292 268 269 q 94 361 125 314 q 64 486 64 408 q 95 612 64 564 q 198 682 126 660 q 389 704 269 704 m 388 579 q 282 559 311 579 q 253 486 253 539 q 282 414 253 435 q 388 393 311 393 q 492 414 464 393 q 521 486 521 435 q 492 559 521 539 q 388 579 464 579 m 790 686 l 779 600 l 596 576 l 546 686 l 790 686 m 182 311 l 283 294 q 256 258 264 282 q 260 214 249 235 q 308 189 271 193 l 561 160 q 714 99 669 149 q 758 -44 758 50 q 722 -181 758 -133 q 607 -247 686 -229 q 396 -265 528 -265 q 217 -255 288 -265 q 107 -221 147 -244 q 50 -159 67 -197 q 33 -64 33 -121 q 49 10 33 -21 q 101 67 64 42 q 204 113 139 92 l 306 149 l 379 121 l 324 83 q 267 41 289 58 q 237 7 246 24 q 228 -37 228 -10 q 242 -87 228 -69 q 292 -110 256 -104 q 393 -117 329 -117 q 498 -110 461 -117 q 549 -87 535 -104 q 564 -40 564 -71 q 554 -1 564 -14 q 519 18 544 11 q 451 29 494 25 l 236 53 q 152 83 183 58 q 110 140 121 107 q 103 208 99 174 q 129 271 108 243 q 182 311 150 299 m 600 957 l 600 828 l 185 828 l 185 957 l 600 957 z "},"h":{"ha":835,"x_min":85,"x_max":756,"o":"m 561 704 q 756 514 756 704 l 756 0 l 550 0 l 550 450 q 533 513 550 496 q 476 531 517 531 q 385 514 432 531 q 268 461 338 497 l 250 567 q 406 669 326 633 q 561 704 485 704 m 289 972 l 290 735 q 284 632 290 681 q 269 550 278 583 l 289 532 l 289 0 l 85 0 l 85 972 l 289 972 z "},"ħ":{"ha":840,"x_min":-1,"x_max":760,"o":"m 469 871 l 469 778 l -1 778 l -1 871 l 469 871 m 565 704 q 760 514 760 704 l 760 0 l 554 0 l 554 450 q 538 513 554 496 q 482 531 522 531 q 390 514 438 531 q 272 461 342 497 l 254 567 q 410 669 331 633 q 565 704 490 704 m 294 972 l 296 735 q 290 632 296 681 q 274 550 283 583 l 294 532 l 294 0 l 89 0 l 89 972 l 294 972 z "},"ḫ":{"ha":835,"x_min":85,"x_max":756,"o":"m 561 704 q 756 514 756 704 l 756 0 l 550 0 l 550 450 q 533 513 550 496 q 476 531 517 531 q 385 514 432 531 q 268 461 338 497 l 250 567 q 406 669 326 633 q 561 704 485 704 m 289 972 l 290 735 q 284 632 290 681 q 269 550 278 583 l 289 532 l 289 0 l 85 0 l 85 972 l 289 972 m 556 -69 l 653 -83 q 635 -190 661 -142 q 556 -266 610 -237 q 426 -294 503 -294 q 296 -266 350 -294 q 216 -190 242 -237 q 197 -83 190 -142 l 294 -69 q 326 -140 294 -117 q 426 -162 358 -162 q 524 -140 492 -162 q 556 -69 556 -117 z "},"ĥ":{"ha":835,"x_min":-76,"x_max":756,"o":"m 561 704 q 756 514 756 704 l 756 0 l 550 0 l 550 450 q 533 513 550 496 q 476 531 517 531 q 385 514 432 531 q 268 461 338 497 l 250 567 q 406 669 326 633 q 561 704 485 704 m 289 972 l 290 735 q 284 632 290 681 q 269 550 278 583 l 289 532 l 289 0 l 85 0 l 85 972 l 289 972 m 261 1235 l 447 1049 l 393 975 l 193 1107 l 182 1107 l -21 975 l -76 1054 l 113 1235 l 261 1235 z "},"ḥ":{"ha":835,"x_min":85,"x_max":756,"o":"m 561 704 q 756 514 756 704 l 756 0 l 550 0 l 550 450 q 533 513 550 496 q 476 531 517 531 q 385 514 432 531 q 268 461 338 497 l 250 567 q 406 669 326 633 q 561 704 485 704 m 289 972 l 290 735 q 284 632 290 681 q 269 550 278 583 l 289 532 l 289 0 l 85 0 l 85 972 l 289 972 m 458 -72 q 517 -129 517 -72 l 517 -201 q 458 -258 517 -258 l 396 -258 q 336 -201 336 -258 l 336 -129 q 396 -72 336 -72 l 458 -72 z "},"i":{"ha":383,"x_min":86,"x_max":297,"o":"m 293 686 l 293 0 l 90 0 l 90 686 l 293 686 m 236 989 q 297 928 297 989 l 297 853 q 236 792 297 792 l 147 792 q 86 853 86 792 l 86 928 q 147 989 86 989 l 236 989 z "},"ı":{"ha":385,"x_min":90,"x_max":296,"o":"m 296 686 l 296 0 l 90 0 l 90 686 l 296 686 z "},"í":{"ha":385,"x_min":71,"x_max":442,"o":"m 296 686 l 296 0 l 90 0 l 90 686 l 296 686 m 353 1056 l 442 918 l 132 763 l 72 850 l 353 1056 z "},"ĭ":{"ha":385,"x_min":-44,"x_max":426,"o":"m 296 686 l 296 0 l 90 0 l 90 686 l 296 686 m 322 1006 l 419 992 q 401 887 428 935 q 322 810 375 839 q 192 781 269 781 q 63 810 117 781 q -17 887 8 839 q -36 992 -43 935 l 61 1006 q 93 936 61 960 q 193 913 125 913 q 290 936 258 913 q 322 1006 322 960 z "},"î":{"ha":385,"x_min":-71,"x_max":451,"o":"m 296 686 l 296 0 l 90 0 l 90 686 l 296 686 m 267 1019 l 453 833 l 399 760 l 199 892 l 188 892 l -15 760 l -71 839 l 118 1019 l 267 1019 z "},"ȉ":{"ha":385,"x_min":-146,"x_max":411,"o":"m 296 686 l 296 0 l 90 0 l 90 686 l 296 686 m 250 1085 l 411 829 l 328 764 l 117 997 l 250 1085 m -14 1085 l 147 829 l 65 764 l -146 997 l -14 1085 z "},"ï":{"ha":385,"x_min":-15,"x_max":394,"o":"m 296 686 l 296 0 l 90 0 l 90 686 l 296 686 m 350 985 q 394 940 394 985 l 394 858 q 350 815 394 815 l 283 815 q 239 858 239 815 l 239 940 q 283 985 239 985 l 350 985 m 96 985 q 139 940 139 985 l 139 858 q 96 815 139 815 l 28 815 q -15 858 -15 815 l -15 940 q 28 985 -15 985 l 96 985 z "},"ḯ":{"ha":385,"x_min":4,"x_max":379,"o":"m 296 686 l 296 0 l 90 0 l 90 686 l 296 686 m 336 960 q 376 919 376 960 l 376 846 q 336 806 376 806 l 275 806 q 235 846 235 806 l 235 919 q 275 960 235 960 l 336 960 m 289 1269 l 379 1147 l 131 1008 l 71 1085 l 289 1269 m 106 960 q 144 919 144 960 l 144 846 q 106 806 144 806 l 44 806 q 4 846 4 806 l 4 919 q 44 960 4 960 l 106 960 z "},"ị":{"ha":383,"x_min":86,"x_max":297,"o":"m 293 686 l 293 0 l 90 0 l 90 686 l 293 686 m 236 989 q 297 928 297 989 l 297 853 q 236 792 297 792 l 147 792 q 86 853 86 792 l 86 928 q 147 989 86 989 l 236 989 m 226 -68 q 286 -125 286 -68 l 286 -197 q 226 -256 286 -256 l 163 -256 q 104 -197 104 -256 l 104 -125 q 163 -68 104 -68 l 226 -68 z "},"ì":{"ha":385,"x_min":-69,"x_max":300,"o":"m 296 686 l 296 0 l 90 0 l 90 686 l 296 686 m 19 1064 l 301 858 l 242 772 l -69 926 l 19 1064 z "},"ỉ":{"ha":385,"x_min":90,"x_max":343,"o":"m 296 686 l 296 0 l 90 0 l 90 686 l 296 686 m 153 863 q 207 892 190 874 q 224 942 224 910 q 194 985 224 976 q 126 979 165 994 l 106 1078 q 227 1092 174 1101 q 312 1045 281 1082 q 343 947 343 1008 q 321 861 343 897 q 260 803 299 825 q 174 772 222 781 l 153 863 z "}}}
